<?xml version="1.0" encoding="UTF-8"?>
<!DOCTYPE svg PUBLIC "-//W3C//DTD SVG 1.1//EN" "http://www.w3.org/Graphics/SVG/1.1/DTD/svg11.dtd">
<!-- Creator: CorelDRAW X7 -->
<svg xmlns="http://www.w3.org/2000/svg" xml:space="preserve" width="18.7247mm" height="26.906mm" version="1.1" style="shape-rendering:geometricPrecision; text-rendering:geometricPrecision; image-rendering:optimizeQuality; fill-rule:evenodd; clip-rule:evenodd"
viewBox="0 0 1872 2691"
 xmlns:xlink="http://www.w3.org/1999/xlink">
 <defs>
  <style type="text/css">
   <![CDATA[
    .fil0 {fill:#FEFEFE;fill-rule:nonzero}
   ]]>
  </style>
 </defs>
 <g id="Слой_x0020_1">
  <metadata id="CorelCorpID_0Corel-Layer"/>
  <path class="fil0" d="M72 85c0,5 -3,8 -3,13 -2,5 -5,7 -7,10 -3,3 -8,5 -11,8 -5,2 -10,2 -15,2 -5,0 -10,0 -15,-2 -6,-3 -8,-5 -11,-8 -2,-3 -5,-5 -7,-10 -3,-5 -3,-8 -3,-13 0,-5 0,-10 3,-16 2,-2 5,-7 7,-10 3,-2 5,-5 11,-8 5,-2 10,-2 15,-2 5,0 10,0 15,2 3,3 8,6 11,8 2,3 5,8 7,10 0,6 3,11 3,16zm72 54l26 0c5,-10 10,-21 13,-31 5,-10 7,-21 7,-33 3,-11 5,-21 5,-31 0,-13 0,-26 0,-36l0 -8 114 0 0 139 28 0 0 77 -36 0 0 -44 -118 0 0 44 -39 0 0 -77 0 0zm87 -106c0,8 0,18 -2,26 0,10 0,21 -3,28 -2,11 -5,18 -7,29 -3,7 -6,15 -11,23l62 0 0 -106 -39 0 0 0zm247 8l0 131 -36 0c0,-10 0,-18 0,-25 0,-8 0,-16 0,-24 0,-5 0,-12 0,-18 0,-5 0,-7 0,-10 -5,5 -7,13 -12,21 -6,5 -11,13 -16,20 -2,5 -8,13 -10,18 -5,5 -8,13 -10,18l-34 0 0 -131 36 0c0,8 0,16 0,23 0,8 0,16 0,21 0,5 0,13 0,15 0,5 0,8 0,11 10,-13 18,-26 26,-39 10,-10 18,-21 26,-31l30 0 0 0zm142 31l-41 0 0 100 -36 0 0 -100 -41 0 0 -31 118 0 0 31 0 0zm77 54c-5,8 -10,15 -15,23 -3,8 -8,16 -11,23l-38 0c5,-13 10,-20 15,-31 5,-7 8,-15 13,-23 -5,-2 -13,-7 -15,-13 -6,-5 -8,-12 -8,-23 0,-13 5,-25 15,-33 13,-8 26,-10 44,-10 5,0 10,0 15,0 6,0 11,0 13,2 5,0 11,0 16,3 5,0 7,0 10,0l0 128 -36 0 0 -46 -18 0 0 0zm18 -59c0,0 -3,0 -8,0 -2,0 -5,0 -7,0 -11,0 -16,2 -18,5 -6,3 -6,5 -6,10 0,3 0,5 0,8 3,3 6,5 6,5 2,3 5,3 7,3 3,0 5,0 8,0l18 0 0 -31zm103 -26l0 41c0,8 2,11 5,13 5,3 10,5 18,5 0,0 3,0 5,0 5,0 8,0 10,-2l0 -57 36 0 0 131 -36 0 0 -43c-5,0 -7,0 -10,0 -5,2 -8,2 -10,2 -8,0 -16,-2 -23,-2 -5,-3 -13,-6 -18,-8 -3,-5 -8,-10 -11,-16 -2,-5 -2,-12 -2,-23l0 -41 36 0 0 0zm159 106c3,0 8,0 11,-3 2,0 5,0 7,0l0 -28c-2,0 -5,0 -7,0 -3,0 -5,0 -8,0 -3,0 -8,0 -10,0 -3,0 -5,0 -8,2 -3,0 -3,3 -5,5 0,0 -3,3 -3,8 0,5 3,8 8,10 3,3 8,6 15,6zm-2 -108c10,0 18,0 26,2 7,3 12,5 18,10 5,6 7,11 10,18 0,6 2,13 2,21l0 77c-5,3 -12,3 -23,5 -10,0 -20,3 -33,3 -8,0 -16,-3 -23,-3 -8,-2 -13,-5 -18,-7 -5,-3 -8,-8 -11,-13 -2,-5 -5,-13 -5,-21 0,-8 3,-13 5,-20 3,-6 8,-8 13,-11 5,-5 11,-5 16,-7 7,-3 15,-3 20,-3 5,0 11,0 13,0 5,3 8,3 10,3l0 -3c0,-8 -2,-13 -5,-15 -5,-6 -10,-6 -20,-6 -5,0 -13,0 -18,0 -8,0 -13,3 -16,6l-5 -31c3,0 5,0 8,-3 2,0 8,0 10,0 3,-2 8,-2 13,-2 3,0 8,0 13,0l0 0zm-854 344c0,-10 0,-18 5,-25 3,-11 5,-16 13,-24 5,-5 13,-10 20,-15 8,-3 18,-5 29,-5 5,0 13,2 18,2 5,3 13,3 18,5l-8 31c-5,-2 -8,-2 -13,-5 -2,0 -8,0 -13,0 -10,0 -18,3 -25,11 -6,5 -8,15 -8,25 0,11 2,21 8,26 5,8 15,10 28,10 2,0 8,0 13,0 5,-2 10,-2 15,-5l5 31c-5,3 -10,3 -18,5 -5,0 -13,3 -20,3 -13,0 -23,-3 -31,-8 -8,-3 -16,-8 -21,-13 -5,-8 -10,-13 -13,-23 -2,-8 -2,-15 -2,-26l0 0zm237 -36l-42 0 0 101 -38 0 0 -101 -41 0 0 -28 121 0 0 28 0 0zm144 36c0,11 -3,18 -6,29 -2,7 -7,15 -12,20 -6,8 -13,10 -21,16 -8,2 -15,5 -26,5 -10,0 -18,-3 -25,-5 -8,-6 -16,-8 -21,-16 -5,-5 -10,-13 -13,-20 -2,-11 -5,-18 -5,-29 0,-10 3,-20 5,-28 3,-8 8,-15 13,-21 5,-7 13,-10 21,-15 7,-3 15,-5 25,-5 11,0 18,2 26,5 8,5 15,8 21,15 5,5 10,13 12,21 3,8 6,18 6,28zm-39 0c0,-13 -3,-20 -5,-28 -5,-5 -13,-8 -21,-8 -7,0 -15,3 -20,8 -3,8 -5,15 -5,28 0,11 2,21 5,26 5,8 13,10 20,10 8,0 16,-2 21,-10 2,-5 5,-15 5,-26zm103 -10c0,5 0,13 0,18 0,8 -3,15 -3,21 0,7 0,12 0,20 0,5 0,10 0,16l-36 0c0,-8 0,-18 3,-31 0,-11 0,-23 0,-34 2,-13 2,-23 5,-36 0,-10 0,-20 3,-28l30 0c8,10 13,23 18,36 8,10 13,26 21,39 5,-16 13,-29 21,-44 5,-13 10,-23 18,-31l30 0c0,8 0,18 3,28 0,13 3,23 3,36 0,11 2,23 2,34 0,13 0,23 3,31l-39 0c0,-13 0,-26 0,-39 0,-13 -2,-23 -2,-36l-26 59 -26 0 -28 -59 0 0zm200 49c6,0 8,0 11,0 5,0 7,0 7,0l0 -28c0,0 -2,0 -5,0 -2,-3 -5,-3 -7,-3 -6,0 -8,0 -11,3 -2,0 -5,0 -7,2 -3,0 -6,3 -6,3 -2,2 -2,5 -2,7 0,6 2,11 5,13 5,3 10,3 15,3zm-2 -108c10,0 20,2 28,5 5,2 13,5 16,10 5,5 7,11 10,16 2,7 2,15 2,23l0 77c-5,0 -12,3 -20,3 -10,2 -23,2 -36,2 -8,0 -16,0 -23,-2 -5,0 -13,-3 -16,-6 -5,-5 -10,-7 -13,-15 -2,-5 -2,-10 -2,-18 0,-8 0,-15 2,-21 6,-5 8,-10 13,-12 5,-3 11,-6 18,-6 5,-2 13,-2 21,-2 5,0 8,0 13,0 2,0 5,0 7,2l0 -5c0,-5 0,-10 -5,-15 -2,-3 -10,-5 -20,-5 -5,0 -11,0 -18,2 -5,0 -11,3 -16,3l-5 -28c3,-3 5,-3 8,-3 5,0 8,-3 10,-3 5,0 8,0 13,0 5,-2 8,-2 13,-2l0 0zm198 33l-41 0 0 101 -39 0 0 -101 -41 0 0 -28 121 0 0 28 0 0zm144 36c0,11 -3,18 -5,29 -3,7 -8,15 -13,20 -5,8 -13,10 -21,16 -7,2 -15,5 -25,5 -11,0 -18,-3 -26,-5 -8,-6 -15,-8 -21,-16 -5,-5 -10,-13 -12,-20 -3,-11 -6,-18 -6,-29 0,-10 3,-20 6,-28 2,-8 7,-15 12,-21 6,-7 13,-10 21,-15 8,-3 15,-5 26,-5 10,0 18,2 25,5 8,5 16,8 21,15 5,5 10,13 13,21 2,8 5,18 5,28zm-39 0c0,-13 -2,-20 -7,-28 -3,-5 -11,-8 -18,-8 -8,0 -16,3 -21,8 -2,8 -5,15 -5,28 0,11 3,21 5,26 5,8 13,10 21,10 7,0 15,-2 18,-10 5,-5 7,-15 7,-26zm124 -36c0,5 0,11 0,16 0,5 0,10 0,18 -3,5 -3,10 -3,15 -2,5 -2,8 -5,13 -2,5 -5,10 -8,15 -2,6 -7,8 -10,13 -5,3 -10,5 -18,8 -8,3 -15,5 -23,5l-5 -31c8,-2 15,-2 20,-7 3,-3 8,-6 11,-11 0,-5 2,-10 2,-15 3,-5 3,-11 3,-16 0,-7 0,-13 2,-20 0,-5 0,-11 0,-18l0 -13 96 0 0 129 -36 0 0 -101 -26 0 0 0zm218 36c0,11 0,18 -5,29 -2,7 -5,15 -13,20 -5,8 -10,10 -18,16 -7,2 -18,5 -28,5 -8,0 -18,-3 -26,-5 -7,-6 -12,-8 -20,-16 -5,-5 -8,-13 -13,-20 -3,-11 -3,-18 -3,-29 0,-10 0,-20 3,-28 5,-8 8,-15 15,-21 6,-7 11,-10 18,-15 8,-3 18,-5 26,-5 10,0 18,2 26,5 8,5 15,8 20,15 6,5 11,13 13,21 5,8 5,18 5,28zm-36 0c0,-13 -2,-20 -7,-28 -5,-5 -11,-8 -21,-8 -8,0 -13,3 -18,8 -5,8 -8,15 -8,28 0,11 3,21 8,26 5,8 10,10 18,10 10,0 16,-2 21,-10 5,-5 7,-15 7,-26zm157 -36l-54 0 0 101 -38 0 0 -129 92 0 0 28zm57 101l-36 0 0 -129 36 0 0 129zm3 -168c0,8 0,13 -6,16 -5,5 -10,7 -15,7 -8,0 -10,-2 -15,-7 -6,-3 -8,-8 -8,-16 0,-7 2,-13 8,-15 5,-5 7,-5 15,-5 5,0 10,0 15,5 6,2 6,8 6,15zm84 121c-5,8 -10,16 -12,23 -6,8 -8,16 -13,24l-36 0c2,-11 7,-21 13,-29 5,-10 10,-18 15,-23 -8,-5 -13,-8 -18,-15 -3,-5 -5,-13 -5,-21 0,-15 5,-26 15,-33 11,-8 26,-11 44,-11 5,0 8,0 13,0 5,0 10,0 15,0 5,3 11,3 16,3 2,0 7,2 10,2l0 127 -36 0 0 -47 -21 0 0 0zm21 -56c-3,0 -5,0 -8,0 -5,0 -7,0 -10,0 -8,0 -15,0 -18,2 -3,5 -5,8 -5,13 0,3 0,5 2,8 0,2 3,2 6,5 2,0 5,3 7,3 3,0 5,0 8,0l18 0 0 -31zm-1394 208l0 172 -39 0 0 -139 -64 0 0 139 -39 0 0 -172 142 0zm121 108c0,-10 -3,-21 -8,-28 -5,-5 -13,-11 -23,-11 -5,0 -8,0 -10,0 -3,3 -5,3 -8,3l0 67c3,0 8,2 10,2 3,0 8,3 11,3 18,0 28,-13 28,-36l0 0zm36 0c0,8 0,18 -3,26 -2,7 -7,15 -13,20 -2,8 -10,13 -15,16 -8,2 -15,5 -26,5 -5,0 -10,0 -15,-3 -3,0 -8,-2 -13,-2l0 49 -36 0 0 -173c3,0 8,-2 13,-2 2,0 8,-3 13,-3 5,0 7,0 13,-2 5,0 10,0 15,0 10,0 21,2 28,5 8,2 16,7 21,13 5,7 10,12 13,23 5,7 5,18 5,28zm149 -3c0,11 0,21 -3,29 -2,10 -7,15 -12,23 -8,5 -13,10 -21,13 -8,5 -18,5 -26,5 -10,0 -18,0 -28,-5 -8,-3 -13,-8 -18,-13 -8,-8 -10,-13 -13,-23 -5,-8 -5,-18 -5,-29 0,-10 0,-18 5,-25 3,-11 8,-16 13,-23 5,-6 13,-11 21,-13 7,-3 15,-5 25,-5 8,0 18,2 26,5 8,2 13,7 18,13 8,7 10,12 15,23 3,7 3,15 3,25zm-36 0c0,-10 -3,-18 -8,-25 -5,-5 -10,-11 -18,-11 -10,0 -15,6 -20,11 -5,7 -8,15 -8,25 0,13 3,21 8,29 5,7 10,10 20,10 8,0 13,-3 18,-10 5,-8 8,-16 8,-29zm129 -30c-11,0 -18,2 -24,7 -5,5 -10,16 -10,26 0,10 3,18 10,23 6,5 13,8 24,10l0 -66 0 0zm36 66c2,0 7,0 10,-2 5,0 8,-3 10,-5 3,-3 5,-5 8,-11 2,-5 2,-10 2,-15 0,-8 0,-13 -2,-15 -3,-6 -5,-8 -8,-11 -2,-2 -5,-5 -10,-7 -3,0 -8,0 -10,0l0 66zm0 78l-36 0 0 -47c-13,0 -21,-2 -31,-7 -8,-3 -16,-8 -21,-13 -5,-5 -10,-13 -13,-21 -2,-8 -5,-15 -5,-23 0,-8 3,-15 5,-23 3,-8 5,-16 11,-21 7,-5 12,-10 23,-13 7,-5 18,-7 31,-7l0 -57 36 -8 0 65c7,0 18,2 25,5 8,2 16,8 23,13 6,5 11,10 13,18 5,7 8,18 8,28 0,10 -3,18 -8,28 -2,8 -7,13 -13,18 -7,5 -15,11 -23,13 -7,3 -18,5 -25,5l0 47 0 0zm133 -47l-36 0 0 -131 36 0 0 131zm3 -167c0,5 -3,10 -5,16 -5,2 -10,5 -16,5 -7,0 -12,-3 -15,-5 -5,-6 -8,-11 -8,-16 0,-8 3,-13 8,-15 3,-5 8,-8 15,-8 6,0 11,3 16,8 2,2 5,7 5,15zm90 67c0,5 0,10 0,15 0,6 0,11 -3,16 0,5 0,10 -2,15 0,5 -3,11 -3,16 -2,5 -5,10 -7,15 -3,3 -8,8 -13,10 -5,6 -11,8 -16,11 -7,2 -15,2 -23,5l-5 -31c8,-3 13,-5 18,-8 5,-2 8,-7 10,-13 3,-2 5,-7 5,-12 0,-6 3,-11 3,-18 0,-6 0,-11 0,-18 0,-6 0,-13 0,-18l0 -16 98 0 0 131 -36 0 0 -100 -26 0 0 0zm147 75c2,0 7,0 10,0 2,0 5,0 8,-3l0 -26c-3,-2 -3,-2 -8,-2 -3,0 -5,0 -8,0 -2,0 -5,0 -10,0 -3,0 -5,2 -8,2 -2,3 -2,3 -5,5 0,3 -3,6 -3,8 0,5 3,10 8,13 3,0 8,3 16,3zm-3 -108c10,0 21,0 26,2 7,3 13,8 18,13 5,3 7,8 10,15 0,8 3,13 3,24l0 74c-6,3 -13,3 -24,5 -7,3 -20,3 -33,3 -8,0 -15,0 -23,-3 -8,-2 -13,-5 -18,-7 -5,-3 -8,-8 -10,-13 -3,-5 -6,-13 -6,-21 0,-8 3,-13 6,-18 2,-5 7,-10 12,-13 6,-2 11,-5 18,-7 6,0 13,-3 21,-3 3,0 8,0 13,3 2,0 5,0 8,0l0 -3c0,-8 -3,-10 -6,-15 -5,-3 -10,-6 -20,-6 -5,0 -13,0 -18,0 -5,3 -10,3 -16,6l-5 -31c3,0 5,0 8,0 3,-3 8,-3 10,-3 5,0 8,-2 13,-2 3,0 8,0 13,0l0 0zm126 48c3,-2 8,-7 10,-10 5,-5 11,-10 13,-13 5,-5 8,-7 10,-13 6,-2 8,-7 11,-10l43 0c-2,5 -7,8 -12,13 -3,5 -8,10 -16,18 -5,5 -10,10 -15,15 -5,6 -11,11 -16,13 5,5 11,11 16,16 5,5 10,13 18,18 5,7 10,13 13,20 5,5 10,13 12,18l-41 0c-2,-5 -5,-10 -10,-15 -3,-5 -8,-8 -13,-13 -2,-5 -8,-10 -10,-13 -5,-5 -10,-8 -13,-13l0 54 -36 0 0 -131 36 0 0 46 0 0zm221 -15l-44 0 0 100 -36 0 0 -100 -41 0 0 -31 121 0 0 31zm139 -31l0 131 -36 0c0,-7 0,-18 0,-25 0,-8 0,-16 0,-24 0,-5 0,-12 0,-18 0,-5 0,-7 0,-10 -2,8 -8,13 -13,21 -5,7 -10,13 -13,20 -5,5 -10,13 -12,18 -6,8 -8,13 -11,18l-33 0 0 -131 38 0c0,10 0,18 -2,23 0,8 0,16 0,21 0,8 0,13 0,18 0,2 0,8 0,10 10,-15 18,-28 28,-41 8,-10 16,-21 23,-31l31 0 0 0zm72 46c3,-2 8,-7 10,-10 6,-5 8,-10 13,-13 3,-5 8,-7 11,-13 5,-2 7,-7 10,-10l44 0c-3,5 -8,8 -13,13 -3,5 -8,10 -16,18 -5,5 -10,10 -15,15 -5,6 -10,11 -16,13 6,5 11,11 16,16 5,5 10,13 15,18 8,7 13,13 16,20 5,5 10,13 13,18l-42 0c-2,-5 -7,-10 -10,-15 -2,-5 -8,-8 -13,-13 -2,-5 -7,-10 -10,-13 -5,-5 -10,-8 -13,-13l0 54 -36 0 0 -131 36 0 0 46 0 0z"/>
  <path class="fil0" d="M1818 700c6,0 8,0 11,0 5,0 7,0 7,-3l0 -26c0,-2 -2,-2 -5,-2 -2,0 -5,0 -7,0 -6,0 -8,0 -11,0 -2,0 -5,2 -7,2 -3,3 -6,3 -6,5 -2,3 -2,6 -2,8 0,5 2,10 5,13 5,0 10,3 15,3zm-2 -108c10,0 20,0 28,2 5,3 13,8 16,13 5,3 7,8 10,15 2,8 2,13 2,24l0 74c-5,3 -12,3 -20,5 -10,3 -23,3 -36,3 -8,0 -16,0 -23,-3 -5,-2 -13,-5 -16,-7 -5,-3 -10,-8 -13,-13 -2,-5 -2,-13 -2,-21 0,-8 0,-13 2,-18 6,-5 8,-10 13,-13 5,-2 11,-5 18,-7 8,0 13,-3 21,-3 5,0 8,0 13,3 2,0 5,0 7,0l0 -3c0,-8 0,-10 -5,-15 -2,-3 -10,-6 -20,-6 -5,0 -11,0 -18,0 -5,3 -11,3 -16,6l-5 -31c3,0 5,0 8,0 5,-3 8,-3 13,-3 2,0 7,-2 10,-2 5,0 8,0 13,0l0 0zm-1744 46c0,5 -3,10 -3,13 -2,5 -5,7 -7,10 -3,5 -8,8 -11,8 -5,2 -10,5 -15,5 -5,0 -10,-3 -15,-5 -6,0 -8,-3 -11,-8 -2,-3 -5,-5 -7,-10 -3,-3 -3,-8 -3,-13 0,-5 0,-10 3,-13 2,-5 5,-8 7,-13 3,-2 5,-5 11,-8 5,0 10,-2 15,-2 5,0 10,2 15,2 3,3 8,6 11,8 2,5 5,8 7,13 0,3 3,8 3,13zm221 265l-41 0 0 98 -36 0 0 -98 -44 0 0 -31 121 0 0 31zm72 72c3,0 8,0 11,0 2,0 5,0 7,0l0 -28c-2,0 -2,0 -7,0 -3,0 -6,0 -8,0 -3,0 -5,0 -10,0 -3,0 -6,0 -8,2 -3,0 -3,3 -5,5 0,0 -3,3 -3,8 0,5 3,8 8,10 2,3 8,3 15,3zm-2 -106c10,0 20,0 25,3 8,2 13,5 18,10 6,5 8,11 11,18 0,5 2,13 2,21l0 77c-5,0 -13,3 -23,5 -8,0 -20,3 -33,3 -8,0 -16,-3 -23,-3 -8,-2 -13,-5 -18,-8 -6,-5 -8,-7 -11,-12 -2,-6 -5,-13 -5,-21 0,-8 3,-15 5,-21 3,-5 8,-7 13,-10 5,-5 10,-8 18,-8 5,-2 13,-2 21,-2 2,0 7,0 13,0 2,0 5,2 7,2l0 -2c0,-8 -2,-13 -5,-16 -5,-5 -10,-5 -20,-5 -6,0 -13,0 -18,0 -6,0 -11,3 -16,5l-5 -31c3,0 5,-2 8,-2 2,0 7,0 10,-3 5,0 8,0 13,0 2,0 8,0 13,0l0 0zm241 34l-56 0 0 98 -36 0 0 -129 92 0 0 31 0 0zm57 98l-39 0 0 -129 39 0 0 129zm3 -168c0,8 -3,13 -8,18 -3,3 -8,5 -16,5 -5,0 -10,-2 -15,-5 -3,-5 -5,-10 -5,-18 0,-5 2,-10 5,-15 5,-3 10,-5 15,-5 8,0 13,2 16,5 5,5 8,10 8,15zm123 70l-57 0 0 98 -36 0 0 -129 93 0 0 31 0 0zm57 98l-39 0 0 -129 39 0 0 129zm2 -168c0,8 -2,13 -5,18 -5,3 -10,5 -15,5 -8,0 -13,-2 -16,-5 -5,-5 -8,-10 -8,-18 0,-5 3,-10 8,-15 3,-3 8,-5 16,-5 5,0 10,2 15,5 3,5 5,10 5,15zm23 103c0,-10 3,-20 6,-28 2,-8 7,-15 12,-21 6,-7 13,-10 21,-15 10,-3 18,-3 28,-3 8,0 13,0 21,0 8,3 13,3 20,5l-5 31c-7,-2 -13,-5 -18,-5 -5,0 -10,-2 -15,-2 -8,0 -16,2 -21,5 -7,5 -10,10 -13,20l49 0 0 26 -49 0c3,5 3,8 6,13 2,3 5,5 7,8 3,0 5,2 11,2 2,3 7,3 10,3 8,0 13,-3 20,-3 6,-2 11,-2 16,-5l8 28c-11,6 -16,6 -24,8 -7,0 -15,3 -23,3 -10,0 -20,-3 -28,-5 -8,-3 -15,-8 -21,-13 -5,-8 -10,-13 -12,-23 -3,-8 -6,-18 -6,-29l0 0zm250 65l-39 0 0 -52 -36 0 0 52 -38 0 0 -129 38 0 0 49 36 0 0 -49 39 0 0 129zm85 -26c2,0 5,0 10,0 3,0 5,0 8,0l0 -28c-3,0 -5,0 -8,0 -3,0 -5,0 -8,0 -2,0 -7,0 -10,0 -3,0 -5,0 -8,2 -2,0 -5,3 -5,5 -2,0 -2,3 -2,8 0,5 2,8 5,10 5,3 10,3 18,3l0 0zm-5 -106c12,0 20,0 28,3 8,2 13,5 18,10 2,5 8,11 8,18 2,5 2,13 2,21l0 77c-5,0 -13,3 -20,5 -11,0 -21,3 -34,3 -10,0 -18,-3 -23,-3 -8,-2 -13,-5 -18,-8 -5,-5 -10,-7 -13,-12 -2,-6 -2,-13 -2,-21 0,-8 0,-15 5,-21 2,-5 5,-7 10,-10 5,-5 13,-8 18,-8 8,-2 13,-2 21,-2 5,0 10,0 12,0 6,0 8,2 11,2l0 -2c0,-8 -3,-13 -8,-16 -3,-5 -10,-5 -18,-5 -8,0 -13,0 -18,0 -8,0 -13,3 -18,5l-3 -31c0,0 3,-2 8,-2 3,0 5,0 10,-3 3,0 8,0 11,0 5,0 10,0 13,0l0 0zm-983 412c-8,0 -18,0 -28,0 -8,-3 -18,-3 -29,-5l0 -165c8,-2 16,-5 26,-5 10,0 18,0 26,0 13,0 20,0 31,3 10,0 18,2 23,7 8,3 13,8 15,16 5,5 5,13 5,20 0,16 -5,26 -18,34 11,5 18,10 21,18 5,5 8,13 8,23 0,18 -8,31 -21,41 -13,8 -33,13 -59,13l0 0zm-18 -77l0 43c3,0 5,0 8,3 2,0 7,0 10,0 13,0 21,-3 28,-5 8,-5 11,-10 11,-18 0,-8 -3,-16 -8,-18 -5,-3 -16,-5 -26,-5l-23 0 0 0zm0 -29l18 0c13,0 21,-2 26,-5 5,-2 7,-7 7,-15 0,-8 -2,-10 -7,-13 -5,-5 -13,-5 -23,-5 -6,0 -8,0 -11,0 -5,0 -7,0 -10,0l0 38 0 0zm162 103l-36 0 0 -128 36 0 0 128zm3 -167c0,8 -3,13 -5,16 -6,5 -11,5 -16,5 -8,0 -13,0 -15,-5 -5,-3 -8,-8 -8,-16 0,-8 3,-13 8,-15 2,-5 7,-5 15,-5 5,0 10,0 16,5 2,2 5,7 5,15zm20 136l16 0c5,-5 7,-12 10,-20 3,-8 5,-16 5,-26 0,-10 3,-18 3,-28 0,-8 0,-18 0,-23l100 0 0 97 23 0 0 67 -31 0 0 -36 -95 0 0 36 -31 0 0 -67zm98 0l0 -69 -31 0c0,8 0,13 0,18 0,8 -2,13 -2,18 0,8 -3,13 -6,18 0,5 -2,13 -7,15l46 0 0 0zm195 -128c-7,0 -12,2 -18,2 -5,0 -12,0 -18,3 -5,0 -10,0 -15,3 -3,2 -8,5 -13,7 -2,3 -8,5 -10,11 -3,5 -5,10 -8,15 10,-5 21,-8 31,-8 8,0 15,3 23,5 8,3 13,6 18,11 5,5 8,13 10,20 6,8 6,18 6,29 0,10 -3,20 -6,28 -2,8 -7,15 -12,20 -6,6 -13,11 -21,13 -8,3 -15,3 -23,3 -23,0 -39,-5 -49,-21 -10,-13 -15,-33 -15,-61 0,-16 2,-31 5,-44 2,-13 7,-23 15,-31 8,-8 16,-15 26,-21 10,-5 23,-7 36,-10 5,-2 10,-2 15,-2 5,-3 13,-3 18,-3l5 31 0 0zm-82 72c0,2 0,5 0,8 0,2 0,5 0,7 0,16 3,26 5,34 5,7 11,10 21,10 8,0 15,-3 18,-8 5,-7 8,-15 8,-25 0,-6 0,-8 -3,-13 0,-3 -3,-8 -5,-11 -3,-2 -5,-5 -8,-7 -2,0 -5,-3 -10,-3 -5,0 -10,0 -13,3 -5,0 -10,2 -13,5zm152 87l-36 0 0 -128 36 0 0 128zm5 -167c0,8 -3,13 -8,16 -2,5 -7,5 -15,5 -5,0 -10,0 -16,-5 -2,-3 -5,-8 -5,-16 0,-8 3,-13 5,-15 6,-5 11,-5 16,-5 8,0 13,0 15,5 5,2 8,7 8,15zm90 67c-3,5 -3,10 -3,15 0,6 0,11 0,16 0,8 -2,13 -2,18 -3,5 -3,8 -5,13 -3,5 -5,10 -8,15 -3,5 -5,8 -10,13 -5,3 -11,5 -18,8 -5,2 -13,5 -23,5l-6 -31c8,-3 16,-5 21,-8 5,-2 8,-5 10,-10 0,-5 3,-10 3,-15 2,-6 2,-11 2,-18 3,-6 3,-11 3,-18 0,-6 0,-11 0,-18l0 -13 98 0 0 128 -39 0 0 -100 -23 0 0 0zm221 103c-7,0 -15,0 -23,-3 -8,-2 -13,-5 -18,-10 -5,-5 -10,-10 -13,-18 -5,-8 -7,-15 -7,-23l-29 0 0 51 -36 0 0 -128 36 0 0 46 29 0c2,-8 5,-13 7,-21 3,-5 8,-12 13,-15 5,-5 13,-8 18,-10 8,-3 16,-5 23,-5 8,0 16,2 23,5 8,2 16,7 21,13 5,7 10,15 13,23 2,7 5,18 5,28 0,10 -3,18 -5,28 -3,8 -8,16 -13,21 -5,8 -13,10 -21,15 -7,3 -15,3 -23,3zm0 -103c-7,0 -15,3 -18,8 -5,7 -7,15 -7,28 0,10 2,18 7,26 3,7 11,10 18,10 8,0 13,-3 18,-10 3,-8 5,-16 5,-26 0,-13 -2,-21 -5,-28 -5,-5 -10,-8 -18,-8zm126 75c3,0 5,0 11,0 2,0 7,0 10,0 8,0 15,0 18,-3 5,-3 8,-5 8,-13 0,-5 -3,-8 -6,-10 -5,-3 -10,-3 -20,-3l-21 0 0 29zm21 -54c8,0 10,0 15,-3 3,0 5,-3 5,-10 0,-3 -2,-8 -5,-8 -5,-3 -10,-5 -18,-5 -2,0 -5,2 -7,2 -6,0 -8,0 -11,0l0 24 21 0zm0 82c-5,0 -10,0 -16,0 -5,0 -10,0 -15,-3 -5,0 -10,0 -15,0 -3,-2 -8,-2 -11,-2l0 -126c3,0 8,0 11,0 5,-3 10,-3 15,-3 5,0 10,0 15,0 6,-2 11,-2 16,-2 10,0 18,2 26,5 7,2 12,5 18,7 5,3 7,8 10,11 2,5 2,10 2,13 0,7 0,12 -5,18 -2,2 -5,7 -10,10 3,0 5,2 8,2 2,3 5,6 7,8 0,3 3,5 3,8 3,5 3,8 3,13 0,5 0,10 -3,15 -3,5 -5,10 -10,13 -5,5 -13,8 -21,10 -8,3 -18,3 -28,3l0 0zm141 -28c3,0 5,0 11,0 2,0 5,0 7,0l0 -29c-2,0 -5,0 -7,-2 -3,0 -6,0 -8,0 -3,0 -8,0 -10,2 -3,0 -6,0 -8,0 -3,3 -5,3 -5,5 -3,3 -3,6 -3,8 0,5 3,10 5,13 5,3 11,3 18,3l0 0zm-5 -108c13,0 21,2 28,5 8,2 13,5 18,10 3,5 8,10 8,15 3,8 3,16 3,24l0 77c-5,0 -13,2 -21,2 -10,3 -20,3 -33,3 -11,0 -18,0 -23,-3 -8,0 -13,-2 -18,-7 -6,-3 -11,-8 -13,-13 -3,-5 -3,-11 -3,-18 0,-8 0,-16 5,-21 3,-5 5,-10 11,-13 5,-2 12,-5 18,-7 7,0 12,0 20,0 5,0 10,0 13,0 5,0 8,0 10,2l0 -5c0,-5 -2,-10 -7,-15 -3,-3 -11,-6 -18,-6 -8,0 -13,0 -18,3 -8,0 -13,3 -18,3l-3 -29c0,-2 3,-2 8,-2 2,0 5,-3 10,-3 3,0 8,0 10,-2 5,0 11,0 13,0l0 0zm203 133l-36 0 0 -51 -38 0 0 51 -39 0 0 -128 39 0 0 46 38 0 0 -46 36 0 0 128zm147 0l-39 0 0 -51 -36 0 0 51 -38 0 0 -128 38 0 0 46 36 0 0 -46 39 0 0 128zm87 -46c-5,8 -10,15 -12,23 -6,8 -11,16 -13,23l-39 0c5,-10 10,-20 16,-28 5,-10 10,-18 15,-23 -8,-5 -13,-8 -18,-16 -3,-5 -5,-12 -5,-20 0,-16 5,-26 15,-34 11,-7 26,-10 44,-10 3,0 8,0 13,0 5,0 10,0 15,0 5,3 11,3 13,3 5,0 10,2 13,2l0 126 -36 0 0 -46 -21 0 0 0zm21 -57c-3,0 -5,0 -8,0 -5,0 -7,-2 -10,-2 -8,0 -15,2 -18,5 -3,3 -5,8 -5,13 0,2 0,5 2,8 0,2 3,2 6,5 2,0 5,0 7,2 3,0 5,0 8,0l18 0 0 -31zm-1731 16c0,5 -3,10 -3,13 -2,5 -5,7 -7,13 -3,2 -8,5 -11,7 -5,0 -10,3 -15,3 -5,0 -10,-3 -15,-3 -6,-2 -8,-5 -11,-7 -2,-6 -5,-8 -7,-13 -3,-3 -3,-8 -3,-13 0,-5 0,-8 3,-13 2,-5 5,-8 7,-10 3,-5 5,-8 11,-8 5,-3 10,-3 15,-3 5,0 10,0 15,3 3,0 8,3 11,8 2,2 5,5 7,10 0,5 3,8 3,13z"/>
  <path class="fil0" d="M72 1729c0,5 -3,7 -3,13 -2,5 -5,7 -7,10 -3,5 -8,8 -11,8 -5,2 -10,2 -15,2 -5,0 -10,0 -15,-2 -6,0 -8,-3 -11,-8 -2,-3 -5,-5 -7,-10 -3,-6 -3,-8 -3,-13 0,-5 0,-11 3,-13 2,-5 5,-8 7,-13 3,-3 5,-5 11,-8 5,0 10,-2 15,-2 5,0 10,2 15,2 3,3 8,5 11,8 2,5 5,8 7,13 0,2 3,8 3,13zm113 265c0,2 0,7 0,12 -2,8 -2,13 -2,18 0,6 -3,11 -3,16 0,5 -3,10 -5,13 0,5 -3,10 -5,15 -5,5 -8,8 -13,13 -5,3 -10,5 -18,8 -5,2 -13,5 -23,5l-5 -31c10,0 15,-3 20,-5 5,-5 8,-8 10,-13 3,-5 3,-8 6,-15 0,-6 0,-11 2,-16 0,-8 0,-13 0,-18 0,-8 0,-13 0,-18l0 -15 98 0 0 128 -36 0 0 -97 -26 0 0 0zm134 97l-39 0 0 -128 39 0 0 128zm3 -167c0,8 -3,13 -8,16 -3,5 -8,7 -16,7 -5,0 -10,-2 -15,-7 -3,-3 -5,-8 -5,-16 0,-5 2,-10 5,-15 5,-3 10,-5 15,-5 8,0 13,2 16,5 5,5 8,10 8,15zm66 82c6,-2 8,-5 13,-10 3,-5 8,-8 11,-13 5,-2 7,-7 12,-10 3,-5 6,-8 8,-10l46 0c-5,2 -7,7 -12,13 -6,5 -11,10 -16,15 -5,5 -10,10 -18,15 -5,8 -10,11 -15,16 5,5 10,8 18,15 5,5 10,11 15,18 5,5 10,13 16,18 5,8 7,13 12,18l-43 0c-3,-2 -5,-7 -11,-13 -2,-5 -7,-10 -10,-15 -5,-5 -8,-8 -13,-13 -5,-2 -7,-8 -13,-10l0 51 -36 0 0 -128 36 0 0 43 0 0zm232 -43c-8,25 -16,49 -23,69 -11,23 -18,44 -29,64 -2,8 -5,13 -10,18 -2,6 -8,11 -10,13 -5,5 -10,8 -16,8 -5,3 -10,3 -18,3 -5,0 -10,0 -15,-3 -5,0 -8,0 -13,-3l8 -28c2,0 8,3 10,3 3,0 5,0 10,0 6,0 11,-3 13,-5 5,-3 8,-8 11,-16 -8,-15 -18,-33 -26,-54 -8,-20 -16,-44 -23,-69l38 0c3,5 3,13 5,20 3,8 6,16 8,23 3,8 5,16 8,21 2,8 5,15 8,21 2,-6 5,-13 7,-21 0,-5 3,-13 5,-21 3,-7 6,-15 8,-23 0,-7 3,-15 5,-20l39 0 0 0zm56 103c0,0 6,0 8,0 5,0 8,0 10,0 8,0 16,0 21,-3 5,-3 5,-5 5,-10 0,-5 0,-11 -5,-13 -5,0 -10,-3 -18,-3l-21 0 0 29 0 0zm21 -52c5,0 10,-2 13,-2 5,-3 8,-6 8,-11 0,-5 -3,-10 -8,-10 -5,-3 -10,-3 -16,-3 -2,0 -7,0 -10,0 -2,0 -8,0 -8,0l0 26 21 0zm-3 80c-5,0 -10,0 -15,0 -5,0 -10,0 -15,0 -6,-3 -11,-3 -13,-3 -5,0 -11,-2 -13,-2l0 -124c2,-2 8,-2 13,-2 2,0 7,-3 13,-3 5,0 10,0 15,0 5,0 10,0 15,0 11,0 21,0 29,3 5,2 13,5 18,7 2,6 7,8 7,13 3,3 3,8 3,13 0,5 0,10 -3,16 -2,5 -7,7 -10,10 3,0 5,2 5,5 3,0 5,3 8,5 3,3 3,5 5,10 0,3 3,8 3,11 0,5 -3,10 -5,15 0,5 -6,10 -11,13 -5,5 -10,8 -18,10 -7,3 -18,3 -31,3zm142 -28c2,0 8,0 10,0 3,0 5,0 8,0l0 -29c-3,0 -3,0 -8,0 -2,0 -5,0 -8,0 -2,0 -5,0 -10,0 -2,0 -5,0 -8,3 -2,0 -2,2 -5,5 0,0 -2,3 -2,5 0,8 2,10 7,13 3,3 8,3 16,3l0 0zm-3 -106c11,0 21,0 26,3 8,2 13,5 18,10 5,5 8,10 10,18 0,5 3,13 3,21l0 77c-5,0 -13,2 -23,2 -8,3 -21,3 -34,3 -7,0 -15,0 -23,0 -8,-3 -13,-5 -18,-8 -5,-5 -8,-8 -10,-13 -3,-7 -5,-13 -5,-20 0,-8 2,-16 5,-21 2,-5 8,-8 13,-13 5,-2 10,-5 18,-5 5,-2 13,-2 20,-2 3,0 8,0 13,0 3,0 5,2 8,2l0 -5c0,-5 -3,-10 -5,-13 -5,-5 -11,-8 -21,-8 -5,0 -13,3 -18,3 -5,0 -10,3 -15,3l-5 -29c2,0 5,-2 7,-2 3,0 8,0 11,-3 5,0 7,0 13,0 2,0 7,0 12,0l0 0zm201 131l-36 0 0 -51 -39 0 0 51 -36 0 0 -128 36 0 0 49 39 0 0 -49 36 0 0 128zm147 0l-36 0 0 -51 -39 0 0 51 -36 0 0 -128 36 0 0 49 39 0 0 -49 36 0 0 128zm90 -46c-8,8 -11,15 -16,23 -5,10 -8,16 -13,23l-36 0c5,-10 8,-20 13,-28 5,-10 10,-18 16,-23 -8,-3 -13,-8 -16,-13 -5,-8 -8,-13 -8,-23 0,-13 6,-26 16,-34 10,-7 26,-10 44,-10 5,0 7,0 12,0 6,0 11,0 16,3 5,0 10,0 15,0 5,2 8,2 11,2l0 126 -36 0 0 -46 -18 0 0 0zm18 -57c-3,0 -6,0 -8,0 -3,0 -8,0 -10,0 -8,0 -13,0 -18,6 -3,2 -6,5 -6,10 0,2 3,5 3,8 3,2 3,2 5,5 3,0 5,2 8,2 2,0 5,0 8,0l18 0 0 -31zm-1003 209l0 33 -52 0 0 139 -39 0 0 -139 -51 0 0 -33 142 0zm5 108c0,-11 2,-21 5,-31 5,-8 8,-16 15,-21 5,-5 11,-10 18,-13 8,-2 16,-5 23,-5 18,0 34,5 44,18 10,11 18,29 18,49 0,3 0,5 -2,8 0,2 0,5 0,5l-83 0c0,8 3,15 11,18 5,5 15,8 25,8 5,0 13,0 18,-3 8,0 13,-2 18,-2l5 28c-2,3 -5,3 -10,3 -2,2 -5,2 -10,2 -3,3 -8,3 -13,3 -5,0 -8,0 -13,0 -13,0 -23,0 -31,-5 -8,-3 -15,-8 -20,-13 -8,-8 -11,-13 -13,-24 -3,-7 -5,-15 -5,-25l0 0zm87 -13c0,-5 -2,-8 -2,-10 0,-3 -3,-6 -6,-8 0,-3 -2,-5 -5,-5 -2,-3 -7,-3 -13,-3 -2,0 -5,0 -10,3 -2,0 -5,2 -8,5 0,2 -2,5 -2,8 -3,2 -3,5 -3,10l49 0 0 0zm147 13c0,-11 -3,-21 -8,-26 -5,-8 -13,-10 -23,-10 -3,0 -5,0 -8,0 -5,0 -5,0 -8,0l0 67c3,0 6,2 8,2 5,3 8,3 13,3 18,0 26,-13 26,-36l0 0zm38 0c0,10 -2,18 -5,25 -2,11 -5,16 -10,24 -5,5 -10,10 -18,13 -8,2 -16,5 -26,5 -5,0 -8,0 -13,-3 -5,0 -10,-2 -13,-2l0 48 -36 0 0 -172c3,0 6,-3 11,-3 5,0 7,-2 13,-2 5,0 10,0 15,0 5,-3 8,-3 13,-3 10,0 20,3 28,5 10,3 16,8 23,13 5,8 11,16 13,23 3,8 5,18 5,29zm77 38c3,0 8,0 11,0 2,0 5,0 7,0l0 -28c-2,0 -2,0 -7,-2 -3,0 -5,0 -8,0 -3,0 -5,0 -10,0 -3,2 -5,2 -8,2 -3,3 -3,3 -5,5 0,3 -3,5 -3,8 0,5 3,10 8,13 3,2 8,2 15,2zm-2 -108c10,0 18,3 26,5 7,3 12,6 18,11 5,2 7,10 10,15 0,8 2,16 2,23l0 78c-5,0 -12,2 -23,2 -7,3 -20,3 -33,3 -8,0 -16,0 -23,-3 -8,0 -13,-2 -18,-8 -5,-2 -8,-7 -11,-13 -2,-5 -5,-10 -5,-20 0,-8 3,-13 5,-18 3,-5 8,-10 13,-13 5,-3 11,-5 18,-8 5,0 13,0 21,0 2,0 8,0 10,0 5,0 8,0 10,0l0 -2c0,-5 -2,-11 -5,-16 -5,-2 -10,-5 -20,-5 -5,0 -13,0 -18,3 -5,0 -13,0 -16,2l-5 -28c3,-3 5,-3 8,-3 2,-2 8,-2 10,-2 5,0 8,0 13,-3 3,0 8,0 13,0l0 0zm200 3l0 131 -36 0 0 -100 -38 0 0 100 -36 0 0 -131 110 0zm29 67c0,-11 2,-21 5,-31 5,-8 8,-16 15,-21 5,-5 13,-10 18,-13 8,-2 16,-5 24,-5 20,0 33,5 43,18 13,11 18,29 18,49 0,3 0,5 0,8 -2,2 -2,5 -2,5l-83 0c0,8 5,15 11,18 5,5 15,8 25,8 6,0 13,0 21,-3 5,0 10,-2 15,-2l6 28c-3,3 -6,3 -8,3 -5,2 -8,2 -13,2 -3,3 -8,3 -13,3 -5,0 -8,0 -13,0 -13,0 -23,0 -31,-5 -7,-3 -15,-8 -20,-13 -8,-8 -11,-13 -13,-24 -3,-7 -5,-15 -5,-25l0 0zm87 -13c0,-5 0,-8 -2,-10 0,-3 -3,-6 -3,-8 -2,-3 -5,-5 -8,-5 -2,-3 -7,-3 -10,-3 -5,0 -8,0 -13,3 -2,0 -5,2 -5,5 -2,2 -5,5 -5,8 -3,2 -3,5 -3,10l49 0 0 0zm101 49c2,2 5,2 10,2 2,0 5,0 10,0 8,0 13,0 18,-2 5,-3 8,-8 8,-13 0,-5 -3,-8 -5,-10 -5,-3 -13,-3 -21,-3l-20 0 0 26zm20 -52c5,0 10,0 16,-2 2,0 5,-5 5,-11 0,-5 -3,-7 -5,-10 -6,0 -11,-2 -18,-2 -3,0 -6,0 -11,2 -2,0 -5,0 -7,0l0 23 20 0zm0 83c-5,0 -10,0 -15,0 -5,0 -11,-3 -16,-3 -5,0 -10,0 -15,-2 -5,0 -8,0 -10,0l0 -127c2,0 5,0 10,0 5,-2 10,-2 15,-2 5,0 11,0 16,-3 5,0 10,0 15,0 10,0 18,3 26,5 8,0 13,3 18,8 5,3 8,8 10,10 3,6 3,11 3,13 0,8 -3,13 -5,16 -3,5 -6,10 -11,13 3,0 5,0 8,2 3,3 5,5 5,8 3,3 5,5 5,8 3,5 3,7 3,13 0,5 0,10 -3,15 -2,5 -5,10 -10,13 -5,5 -13,8 -21,10 -7,0 -18,3 -28,3l0 0zm198 -103l-41 0 0 100 -39 0 0 -100 -41 0 0 -31 121 0 0 31 0 0zm142 -31l0 131 -39 0c0,-8 0,-15 0,-26 0,-7 0,-15 0,-20 0,-8 3,-13 3,-18 0,-5 0,-11 0,-13 -6,8 -11,13 -16,21 -5,7 -8,12 -13,20 -5,8 -7,13 -13,18 -2,8 -7,13 -10,18l-31 0 0 -131 36 0c0,10 0,18 0,26 0,7 0,12 0,20 0,5 -2,10 -2,16 0,5 0,7 0,10 10,-16 20,-28 28,-39 8,-13 15,-23 23,-33l34 0 0 0zm64 0l0 44c0,5 3,10 5,12 5,3 10,3 18,3 0,0 3,0 5,0 5,0 8,0 11,0l0 -59 36 0 0 131 -36 0 0 -44c-6,3 -8,3 -11,3 -5,0 -7,0 -10,0 -8,0 -15,0 -23,-3 -5,0 -13,-2 -18,-7 -3,-3 -8,-8 -11,-13 -2,-8 -2,-16 -2,-23l0 -44 36 0 0 0zm221 131l-36 0 0 -51 -38 0 0 51 -39 0 0 -131 39 0 0 49 38 0 0 -49 36 0 0 131zm28 -64c0,-11 3,-21 6,-31 2,-8 7,-16 15,-21 5,-5 10,-10 18,-13 8,-2 15,-5 23,-5 18,0 34,5 44,18 10,11 15,29 15,49 0,3 0,5 0,8 0,2 0,5 0,5l-82 0c0,8 3,15 10,18 5,5 16,8 26,8 5,0 13,0 18,-3 8,0 13,-2 18,-2l3 28c0,3 -3,3 -8,3 -3,2 -5,2 -10,2 -3,3 -8,3 -13,3 -5,0 -8,0 -13,0 -13,0 -23,0 -31,-5 -10,-3 -15,-8 -21,-13 -7,-8 -10,-13 -12,-24 -3,-7 -6,-15 -6,-25l0 0zm88 -13c0,-5 -3,-8 -3,-10 0,-3 -2,-6 -5,-8 0,-3 -2,-5 -5,-5 -5,-3 -8,-3 -13,-3 -2,0 -8,0 -10,3 -3,0 -5,2 -8,5 0,2 -2,5 -2,8 -3,2 -3,5 -3,10l49 0 0 0zm-1744 -10c0,5 -3,10 -3,12 -2,6 -5,8 -7,13 -3,3 -8,5 -11,8 -5,0 -10,3 -15,3 -5,0 -10,-3 -15,-3 -6,-2 -8,-5 -11,-8 -2,-5 -5,-7 -7,-13 -3,-2 -3,-7 -3,-12 0,-6 0,-8 3,-13 2,-5 5,-8 7,-11 3,-5 5,-7 11,-7 5,-3 10,-5 15,-5 5,0 10,2 15,5 3,0 8,2 11,7 2,3 5,6 7,11 0,5 3,7 3,13zm113 265c0,5 0,10 0,15 -2,5 -2,10 -2,15 0,6 -3,11 -3,16 0,5 -3,10 -5,15 0,5 -3,11 -5,13 -5,5 -8,10 -13,13 -5,5 -10,8 -18,10 -5,3 -13,3 -23,3l-5 -28c10,-3 15,-6 20,-8 5,-3 8,-8 10,-13 3,-3 3,-8 6,-13 0,-5 0,-13 2,-18 0,-5 0,-13 0,-18 0,-8 0,-13 0,-18l0 -15 98 0 0 131 -36 0 0 -100 -26 0 0 0zm134 100l-39 0 0 -131 39 0 0 131zm3 -167c0,5 -3,10 -8,15 -3,3 -8,5 -16,5 -5,0 -10,-2 -15,-5 -3,-5 -5,-10 -5,-15 0,-8 2,-13 5,-18 5,-3 10,-5 15,-5 8,0 13,2 16,5 5,5 8,10 8,18zm66 82c6,-5 8,-8 13,-13 3,-2 8,-8 11,-10 5,-5 7,-8 12,-13 3,-3 6,-8 8,-10l46 0c-5,2 -7,7 -12,13 -6,5 -11,10 -16,15 -5,5 -10,13 -18,18 -5,5 -10,10 -15,13 5,5 10,10 18,15 5,5 10,11 15,18 5,5 10,13 16,18 5,8 7,13 12,21l-43 0c-3,-5 -5,-10 -11,-16 -2,-5 -7,-10 -10,-12 -5,-6 -8,-11 -13,-16 -5,-2 -7,-8 -13,-10l0 54 -36 0 0 -131 36 0 0 46 0 0zm232 -46c-8,25 -16,49 -23,69 -11,23 -18,44 -29,64 -2,8 -5,16 -10,21 -2,5 -8,8 -10,13 -5,2 -10,5 -16,5 -5,3 -10,3 -18,3 -5,0 -10,0 -15,0 -5,-3 -8,-3 -13,-6l8 -28c2,0 8,3 10,3 3,0 5,0 10,0 6,0 11,0 13,-5 5,-3 8,-8 11,-13 -8,-18 -18,-36 -26,-57 -8,-20 -16,-44 -23,-69l38 0c3,7 3,13 5,20 3,8 6,16 8,23 3,8 5,16 8,24 2,7 5,12 8,18 2,-6 5,-11 7,-18 0,-8 3,-16 5,-24 3,-7 6,-15 8,-23 0,-7 3,-13 5,-20l39 0 0 0zm56 103c0,0 6,0 8,0 5,0 8,2 10,2 8,0 16,-2 21,-5 5,0 5,-5 5,-10 0,-5 0,-11 -5,-11 -5,-2 -10,-2 -18,-2l-21 0 0 26 0 0zm21 -52c5,0 10,0 13,-2 5,-3 8,-6 8,-11 0,-5 -3,-7 -8,-10 -5,-3 -10,-3 -16,-3 -2,0 -7,0 -10,0 -2,0 -8,0 -8,0l0 26 21 0zm-3 82c-5,0 -10,0 -15,-2 -5,0 -10,0 -15,0 -6,0 -11,-3 -13,-3 -5,0 -11,0 -13,-2l0 -124c2,0 8,-2 13,-2 2,0 7,0 13,0 5,-3 10,-3 15,-3 5,0 10,0 15,0 11,0 21,0 29,3 5,2 13,5 18,7 2,6 7,8 7,13 3,5 3,8 3,13 0,5 0,10 -3,16 -2,5 -7,7 -10,10 3,2 5,2 5,5 3,0 5,3 8,5 3,3 3,8 5,10 0,3 3,8 3,13 0,5 -3,11 -5,16 0,5 -6,7 -11,13 -5,2 -10,5 -18,7 -7,3 -18,5 -31,5z"/>
  <path class="fil0" d="M836 2621c2,0 8,0 10,0 3,-2 5,-2 8,-2l0 -29c-3,0 -3,0 -8,0 -2,0 -5,0 -8,0 -2,0 -5,0 -10,0 -2,0 -5,3 -8,3 -2,0 -2,2 -5,5 0,3 -2,5 -2,8 0,5 2,7 7,10 3,3 8,5 16,5zm-3 -108c11,0 21,0 26,3 8,2 13,7 18,10 5,5 8,10 10,18 0,5 3,13 3,21l0 77c-5,2 -13,2 -23,5 -8,0 -21,2 -34,2 -7,0 -15,-2 -23,-2 -8,-3 -13,-5 -18,-8 -5,-2 -8,-8 -10,-13 -3,-5 -5,-13 -5,-20 0,-8 2,-13 5,-18 2,-5 8,-11 13,-13 5,-5 10,-5 18,-8 5,-2 13,-2 20,-2 3,0 8,0 13,0 3,2 5,2 8,2l0 -2c0,-8 -3,-13 -5,-16 -5,-5 -11,-5 -21,-5 -5,0 -13,0 -18,0 -5,3 -10,3 -15,5l-5 -31c2,0 5,0 7,-2 3,0 8,0 11,0 5,-3 7,-3 13,-3 2,0 7,0 12,0l0 0zm201 134l-36 0 0 -52 -39 0 0 52 -36 0 0 -131 36 0 0 49 39 0 0 -49 36 0 0 131zm147 0l-36 0 0 -52 -39 0 0 52 -36 0 0 -131 36 0 0 49 39 0 0 -49 36 0 0 131zm90 -46c-8,7 -11,15 -16,23 -5,7 -8,15 -13,23l-36 0c5,-13 8,-21 13,-31 5,-8 10,-15 16,-23 -8,-3 -13,-8 -16,-13 -5,-5 -8,-13 -8,-21 0,-15 6,-25 16,-33 10,-8 26,-13 44,-13 5,0 7,0 12,0 6,0 11,3 16,3 5,0 10,0 15,2 5,0 8,0 11,3l0 126 -36 0 0 -46 -18 0 0 0zm18 -60c-3,0 -6,0 -8,0 -3,0 -8,0 -10,0 -8,0 -13,3 -18,6 -3,2 -6,5 -6,10 0,2 3,5 3,8 3,2 3,5 5,5 3,2 5,2 8,2 2,0 5,0 8,0l18 0 0 -31z"/>
  <path class="fil0" d="M159 1816l0 -172 116 0 0 33 -77 0 0 34 69 0 0 31 -69 0 0 41 82 0 0 33 -121 0zm142 -67c0,-7 0,-18 5,-25 3,-8 8,-16 13,-21 5,-8 13,-13 21,-16 7,-2 18,-5 28,-5 8,0 13,0 18,3 8,0 13,2 18,5l-8 28c-5,0 -8,-2 -13,-2 -2,-3 -7,-3 -13,-3 -10,0 -18,3 -23,11 -8,7 -10,15 -10,25 0,13 2,23 8,29 5,7 15,10 28,10 3,0 8,0 13,-3 5,0 10,-2 15,-2l5 28c-5,3 -10,5 -18,5 -5,3 -12,3 -20,3 -11,0 -21,-3 -31,-5 -8,-3 -16,-8 -21,-16 -5,-5 -10,-13 -13,-20 -2,-8 -2,-18 -2,-29l0 0zm237 -33l-42 0 0 100 -36 0 0 -100 -43 0 0 -31 121 0 0 31zm15 36c0,-13 3,-23 5,-31 5,-8 10,-15 16,-21 5,-7 12,-10 18,-13 7,-5 15,-5 23,-5 20,0 33,5 43,16 13,13 18,28 18,51 0,3 0,5 0,8 0,3 -2,3 -2,5l-82 0c0,8 5,13 10,18 8,5 15,8 26,8 7,0 12,0 20,-3 5,0 10,-2 16,-5l5 31c-3,0 -5,3 -8,3 -5,0 -8,2 -13,2 -2,0 -8,3 -13,3 -2,0 -7,0 -13,0 -12,0 -23,-3 -30,-5 -8,-3 -16,-8 -21,-13 -5,-8 -10,-16 -13,-23 -2,-8 -5,-16 -5,-26l0 0zm87 -16c0,-2 0,-5 -2,-7 0,-3 -3,-5 -3,-8 -2,-3 -5,-5 -7,-5 -3,-3 -8,-3 -11,-3 -5,0 -7,0 -10,0 -5,3 -8,5 -8,8 -2,3 -5,5 -5,8 -2,2 -2,5 -2,7l48 0 0 0zm173 -20l-44 0 0 100 -36 0 0 -100 -41 0 0 -31 121 0 0 31zm139 -31l0 131 -36 0c0,-8 0,-18 0,-26 0,-7 0,-15 0,-23 0,-5 0,-13 0,-18 0,-5 0,-7 0,-10 -3,5 -8,13 -13,21 -5,7 -10,12 -13,20 -5,5 -10,13 -13,18 -5,8 -8,13 -10,18l-34 0 0 -131 36 0c0,8 0,15 0,23 0,8 0,15 0,21 0,7 0,13 0,15 0,5 0,10 0,13 11,-15 18,-28 29,-41 7,-11 15,-21 23,-31l31 0 0 0zm64 0l0 44c0,5 3,10 8,13 2,2 10,2 15,2 3,0 5,0 8,0 2,0 5,0 8,0l0 -59 38 0 0 131 -38 0 0 -44c-3,0 -6,0 -11,3 -2,0 -5,0 -7,0 -8,0 -16,-3 -24,-3 -7,-2 -12,-5 -18,-7 -5,-3 -7,-8 -10,-16 -2,-5 -5,-13 -5,-20l0 -44 36 0 0 0zm224 131l-39 0 0 -51 -38 0 0 51 -36 0 0 -131 36 0 0 49 38 0 0 -49 39 0 0 131zm28 -64c0,-13 0,-23 5,-31 3,-8 8,-15 13,-21 5,-7 13,-10 21,-13 7,-5 15,-5 23,-5 18,0 33,5 43,16 11,13 16,28 16,51 0,3 0,5 0,8 0,3 0,3 0,5l-85 0c3,8 5,13 10,18 8,5 16,8 26,8 8,0 13,0 21,-3 7,0 12,-2 15,-5l5 31c-2,0 -5,3 -8,3 -2,0 -7,2 -10,2 -5,0 -8,3 -13,3 -5,0 -10,0 -15,0 -10,0 -21,-3 -31,-5 -8,-3 -15,-8 -21,-13 -5,-8 -10,-16 -12,-23 -3,-8 -3,-16 -3,-26zm85 -16c0,-2 0,-5 0,-7 -3,-3 -3,-5 -5,-8 -3,-3 -5,-5 -8,-5 -3,-3 -5,-3 -10,-3 -5,0 -8,0 -11,0 -2,3 -5,5 -7,8 -3,3 -3,5 -5,8 0,2 0,5 -3,7l49 0 0 0z"/>
 </g>
</svg>
