<?xml version="1.0" encoding="UTF-8"?>
<!DOCTYPE svg PUBLIC "-//W3C//DTD SVG 1.1//EN" "http://www.w3.org/Graphics/SVG/1.1/DTD/svg11.dtd">
<!-- Creator: CorelDRAW X7 -->
<svg xmlns="http://www.w3.org/2000/svg" xml:space="preserve" width="18.7247mm" height="24.3128mm" version="1.1" style="shape-rendering:geometricPrecision; text-rendering:geometricPrecision; image-rendering:optimizeQuality; fill-rule:evenodd; clip-rule:evenodd"
viewBox="0 0 728 945"
 xmlns:xlink="http://www.w3.org/1999/xlink">
 <defs>
  <style type="text/css">
   <![CDATA[
    .fil0 {fill:#FEFEFE;fill-rule:nonzero}
   ]]>
  </style>
 </defs>
 <g id="Слой_x0020_1">
  <metadata id="CorelCorpID_0Corel-Layer"/>
  <g id="_847217168">
   <path class="fil0" d="M28 33c0,2 -1,3 -1,5 -1,2 -2,3 -3,4 -1,1 -3,2 -4,3 -2,1 -4,1 -6,1 -2,0 -4,0 -6,-1 -2,-1 -3,-2 -4,-3 -1,-1 -2,-2 -3,-4 -1,-2 -1,-3 -1,-5 0,-2 0,-4 1,-6 1,-1 2,-3 3,-4 1,-1 2,-2 4,-3 2,-1 4,-1 6,-1 2,0 4,0 6,1 1,1 3,2 4,3 1,1 2,3 3,4 0,2 1,4 1,6zm28 21l10 0c2,-4 4,-8 5,-12 2,-4 3,-8 3,-13 1,-4 2,-8 2,-12 0,-5 0,-10 0,-14l0 -3 44 0 0 54 11 0 0 30 -14 0 0 -17 -46 0 0 17 -15 0 0 -30zm34 -41c0,3 0,7 -1,10 0,4 0,8 -1,11 -1,4 -2,7 -3,11 -1,3 -2,6 -4,9l24 0 0 -41 -15 0zm96 3l0 51 -14 0c0,-4 0,-7 0,-10 0,-3 0,-6 0,-9 0,-2 0,-5 0,-7 0,-2 0,-3 0,-4 -2,2 -3,5 -5,8 -2,2 -4,5 -6,8 -1,2 -3,5 -4,7 -2,2 -3,5 -4,7l-13 0 0 -51 14 0c0,3 0,6 0,9 0,3 0,6 0,8 0,2 0,5 0,6 0,2 0,3 0,4 4,-5 7,-10 10,-15 4,-4 7,-8 10,-12l12 0zm55 12l-16 0 0 39 -14 0 0 -39 -16 0 0 -12 46 0 0 12zm30 21c-2,3 -4,6 -6,9 -1,3 -3,6 -4,9l-15 0c2,-5 4,-8 6,-12 2,-3 3,-6 5,-9 -2,-1 -5,-3 -6,-5 -2,-2 -3,-5 -3,-9 0,-5 2,-10 6,-13 5,-3 10,-4 17,-4 2,0 4,0 6,0 2,0 4,0 5,1 2,0 4,0 6,1 2,0 3,0 4,0l0 50 -14 0 0 -18 -7 0zm7 -23c0,0 -1,0 -3,0 -1,0 -2,0 -3,0 -4,0 -6,1 -7,2 -2,1 -2,2 -2,4 0,1 0,2 0,3 1,1 2,2 2,2 1,1 2,1 3,1 1,0 2,0 3,0l7 0 0 -12zm40 -10l0 16c0,3 1,4 2,5 2,1 4,2 7,2 0,0 1,0 2,0 2,0 3,0 4,-1l0 -22 14 0 0 51 -14 0 0 -17c-2,0 -3,0 -4,0 -2,1 -3,1 -4,1 -3,0 -6,-1 -9,-1 -2,-1 -5,-2 -7,-3 -1,-2 -3,-4 -4,-6 -1,-2 -1,-5 -1,-9l0 -16 14 0zm62 41c1,0 3,0 4,-1 1,0 2,0 3,0l0 -11c-1,0 -2,0 -3,0 -1,0 -2,0 -3,0 -1,0 -3,0 -4,0 -1,0 -2,0 -3,1 -1,0 -1,1 -2,2 0,0 -1,1 -1,3 0,2 1,3 3,4 1,1 3,2 6,2zm-1 -42c4,0 7,0 10,1 3,1 5,2 7,4 2,2 3,4 4,7 0,2 1,5 1,8l0 30c-2,1 -5,1 -9,2 -4,0 -8,1 -13,1 -3,0 -6,-1 -9,-1 -3,-1 -5,-2 -7,-3 -2,-1 -3,-3 -4,-5 -1,-2 -2,-5 -2,-8 0,-3 1,-5 2,-8 1,-2 3,-3 5,-4 2,-2 4,-2 6,-3 3,-1 6,-1 8,-1 2,0 4,0 5,0 2,1 3,1 4,1l0 -1c0,-3 -1,-5 -2,-6 -2,-2 -4,-2 -8,-2 -2,0 -5,0 -7,0 -3,0 -5,1 -6,2l-2 -12c1,0 2,0 3,-1 1,0 3,0 4,0 1,-1 3,-1 5,-1 1,0 3,0 5,0zm-332 134c0,-4 0,-7 2,-10 1,-4 2,-6 5,-9 2,-2 5,-4 8,-6 3,-1 7,-2 11,-2 2,0 5,1 7,1 2,1 5,1 7,2l-3 12c-2,-1 -3,-1 -5,-2 -1,0 -3,0 -5,0 -4,0 -7,1 -10,4 -2,2 -3,6 -3,10 0,4 1,8 3,10 2,3 6,4 11,4 1,0 3,0 5,0 2,-1 4,-1 6,-2l2 12c-2,1 -4,1 -7,2 -2,0 -5,1 -8,1 -5,0 -9,-1 -12,-3 -3,-1 -6,-3 -8,-5 -2,-3 -4,-5 -5,-9 -1,-3 -1,-6 -1,-10zm92 -14l-16 0 0 39 -15 0 0 -39 -16 0 0 -11 47 0 0 11zm56 14c0,4 -1,7 -2,11 -1,3 -3,6 -5,8 -2,3 -5,4 -8,6 -3,1 -6,2 -10,2 -4,0 -7,-1 -10,-2 -3,-2 -6,-3 -8,-6 -2,-2 -4,-5 -5,-8 -1,-4 -2,-7 -2,-11 0,-4 1,-8 2,-11 1,-3 3,-6 5,-8 2,-3 5,-4 8,-6 3,-1 6,-2 10,-2 4,0 7,1 10,2 3,2 6,3 8,6 2,2 4,5 5,8 1,3 2,7 2,11zm-15 0c0,-5 -1,-8 -2,-11 -2,-2 -5,-3 -8,-3 -3,0 -6,1 -8,3 -1,3 -2,6 -2,11 0,4 1,8 2,10 2,3 5,4 8,4 3,0 6,-1 8,-4 1,-2 2,-6 2,-10zm40 -4c0,2 0,5 0,7 0,3 -1,6 -1,8 0,3 0,5 0,8 0,2 0,4 0,6l-14 0c0,-3 0,-7 1,-12 0,-4 0,-9 0,-13 1,-5 1,-9 2,-14 0,-4 0,-8 1,-11l12 0c3,4 5,9 7,14 3,4 5,10 8,15 2,-6 5,-11 8,-17 2,-5 4,-9 7,-12l12 0c0,3 0,7 1,11 0,5 1,9 1,14 0,4 1,9 1,13 0,5 0,9 1,12l-15 0c0,-5 0,-10 0,-15 0,-5 -1,-9 -1,-14l-10 23 -10 0 -11 -23zm78 19c2,0 3,0 4,0 2,0 3,0 3,0l0 -11c0,0 -1,0 -2,0 -1,-1 -2,-1 -3,-1 -2,0 -3,0 -4,1 -1,0 -2,0 -3,1 -1,0 -2,1 -2,1 -1,1 -1,2 -1,3 0,2 1,4 2,5 2,1 4,1 6,1zm-1 -42c4,0 8,1 11,2 2,1 5,2 6,4 2,2 3,4 4,6 1,3 1,6 1,9l0 30c-2,0 -5,1 -8,1 -4,1 -9,1 -14,1 -3,0 -6,0 -9,-1 -2,0 -5,-1 -6,-2 -2,-2 -4,-3 -5,-6 -1,-2 -1,-4 -1,-7 0,-3 0,-6 1,-8 2,-2 3,-4 5,-5 2,-1 4,-2 7,-2 2,-1 5,-1 8,-1 2,0 3,0 5,0 1,0 2,0 3,1l0 -2c0,-2 0,-4 -2,-6 -1,-1 -4,-2 -8,-2 -2,0 -4,0 -7,1 -2,0 -4,1 -6,1l-2 -11c1,-1 2,-1 3,-1 2,0 3,-1 4,-1 2,0 3,0 5,0 2,-1 3,-1 5,-1zm77 13l-16 0 0 39 -15 0 0 -39 -16 0 0 -11 47 0 0 11zm56 14c0,4 -1,7 -2,11 -1,3 -3,6 -5,8 -2,3 -5,4 -8,6 -3,1 -6,2 -10,2 -4,0 -7,-1 -10,-2 -3,-2 -6,-3 -8,-6 -2,-2 -4,-5 -5,-8 -1,-4 -2,-7 -2,-11 0,-4 1,-8 2,-11 1,-3 3,-6 5,-8 2,-3 5,-4 8,-6 3,-1 6,-2 10,-2 4,0 7,1 10,2 3,2 6,3 8,6 2,2 4,5 5,8 1,3 2,7 2,11zm-15 0c0,-5 -1,-8 -3,-11 -1,-2 -4,-3 -7,-3 -3,0 -6,1 -8,3 -1,3 -2,6 -2,11 0,4 1,8 2,10 2,3 5,4 8,4 3,0 6,-1 7,-4 2,-2 3,-6 3,-10zm48 -14c0,2 0,4 0,6 0,2 0,4 0,7 -1,2 -1,4 -1,6 -1,2 -1,3 -2,5 -1,2 -2,4 -3,6 -1,2 -3,3 -4,5 -2,1 -4,2 -7,3 -3,1 -6,2 -9,2l-2 -12c3,-1 6,-1 8,-3 1,-1 3,-2 4,-4 0,-2 1,-4 1,-6 1,-2 1,-4 1,-6 0,-3 0,-5 1,-8 0,-2 0,-4 0,-7l0 -5 37 0 0 50 -14 0 0 -39 -10 0zm85 14c0,4 0,7 -2,11 -1,3 -2,6 -5,8 -2,3 -4,4 -7,6 -3,1 -7,2 -11,2 -3,0 -7,-1 -10,-2 -3,-2 -5,-3 -8,-6 -2,-2 -3,-5 -5,-8 -1,-4 -1,-7 -1,-11 0,-4 0,-8 1,-11 2,-3 3,-6 6,-8 2,-3 4,-4 7,-6 3,-1 7,-2 10,-2 4,0 7,1 10,2 3,2 6,3 8,6 2,2 4,5 5,8 2,3 2,7 2,11zm-14 0c0,-5 -1,-8 -3,-11 -2,-2 -4,-3 -8,-3 -3,0 -5,1 -7,3 -2,3 -3,6 -3,11 0,4 1,8 3,10 2,3 4,4 7,4 4,0 6,-1 8,-4 2,-2 3,-6 3,-10zm61 -14l-21 0 0 39 -15 0 0 -50 36 0 0 11zm22 39l-14 0 0 -50 14 0 0 50zm1 -65c0,3 0,5 -2,6 -2,2 -4,3 -6,3 -3,0 -4,-1 -6,-3 -2,-1 -3,-3 -3,-6 0,-3 1,-5 3,-6 2,-2 3,-2 6,-2 2,0 4,0 6,2 2,1 2,3 2,6zm33 47c-2,3 -4,6 -5,9 -2,3 -3,6 -5,9l-14 0c1,-4 3,-8 5,-11 2,-4 4,-7 6,-9 -3,-2 -5,-3 -7,-6 -1,-2 -2,-5 -2,-8 0,-6 2,-10 6,-13 4,-3 10,-4 17,-4 2,0 3,0 5,0 2,0 4,0 6,0 2,1 4,1 6,1 1,0 3,1 4,1l0 49 -14 0 0 -18 -8 0zm8 -22c-1,0 -2,0 -3,0 -2,0 -3,0 -4,0 -3,0 -6,0 -7,1 -1,2 -2,3 -2,5 0,1 0,2 1,3 0,1 1,1 2,2 1,0 2,1 3,1 1,0 2,0 3,0l7 0 0 -12zm-542 81l0 67 -15 0 0 -54 -25 0 0 54 -15 0 0 -67 55 0zm47 42c0,-4 -1,-8 -3,-11 -2,-2 -5,-4 -9,-4 -2,0 -3,0 -4,0 -1,1 -2,1 -3,1l0 26c1,0 3,1 4,1 1,0 3,1 4,1 7,0 11,-5 11,-14zm14 0c0,3 0,7 -1,10 -1,3 -3,6 -5,8 -1,3 -4,5 -6,6 -3,1 -6,2 -10,2 -2,0 -4,0 -6,-1 -1,0 -3,-1 -5,-1l0 19 -14 0 0 -67c1,0 3,-1 5,-1 1,0 3,-1 5,-1 2,0 3,0 5,-1 2,0 4,0 6,0 4,0 8,1 11,2 3,1 6,3 8,5 2,3 4,5 5,9 2,3 2,7 2,11zm58 -1c0,4 0,8 -1,11 -1,4 -3,6 -5,9 -3,2 -5,4 -8,5 -3,2 -7,2 -10,2 -4,0 -7,0 -11,-2 -3,-1 -5,-3 -7,-5 -3,-3 -4,-5 -5,-9 -2,-3 -2,-7 -2,-11 0,-4 0,-7 2,-10 1,-4 3,-6 5,-9 2,-2 5,-4 8,-5 3,-1 6,-2 10,-2 3,0 7,1 10,2 3,1 5,3 7,5 3,3 4,5 6,9 1,3 1,6 1,10zm-14 0c0,-4 -1,-7 -3,-10 -2,-2 -4,-4 -7,-4 -4,0 -6,2 -8,4 -2,3 -3,6 -3,10 0,5 1,8 3,11 2,3 4,4 8,4 3,0 5,-1 7,-4 2,-3 3,-6 3,-11zm50 -12c-4,0 -7,1 -9,3 -2,2 -4,6 -4,10 0,4 1,7 4,9 2,2 5,3 9,4l0 -26zm14 26c1,0 3,0 4,-1 2,0 3,-1 4,-2 1,-1 2,-2 3,-4 1,-2 1,-4 1,-6 0,-3 0,-5 -1,-6 -1,-2 -2,-3 -3,-4 -1,-1 -2,-2 -4,-3 -1,0 -3,0 -4,0l0 26zm0 30l-14 0 0 -18c-5,0 -8,-1 -12,-3 -3,-1 -6,-3 -8,-5 -2,-2 -4,-5 -5,-8 -1,-3 -2,-6 -2,-9 0,-3 1,-6 2,-9 1,-3 2,-6 4,-8 3,-2 5,-4 9,-5 3,-2 7,-3 12,-3l0 -22 14 -3 0 25c3,0 7,1 10,2 3,1 6,3 9,5 2,2 4,4 5,7 2,3 3,7 3,11 0,4 -1,7 -3,11 -1,3 -3,5 -5,7 -3,2 -6,4 -9,5 -3,1 -7,2 -10,2l0 18zm52 -18l-14 0 0 -51 14 0 0 51zm1 -65c0,2 -1,4 -2,6 -2,1 -4,2 -6,2 -3,0 -5,-1 -6,-2 -2,-2 -3,-4 -3,-6 0,-3 1,-5 3,-6 1,-2 3,-3 6,-3 2,0 4,1 6,3 1,1 2,3 2,6zm35 26c0,2 0,4 0,6 0,2 0,4 -1,6 0,2 0,4 -1,6 0,2 -1,4 -1,6 -1,2 -2,4 -3,6 -1,1 -3,3 -5,4 -2,2 -4,3 -6,4 -3,1 -6,1 -9,2l-2 -12c3,-1 5,-2 7,-3 2,-1 3,-3 4,-5 1,-1 2,-3 2,-5 0,-2 1,-4 1,-7 0,-2 0,-4 0,-7 0,-2 0,-5 0,-7l0 -6 38 0 0 51 -14 0 0 -39 -10 0zm57 29c1,0 3,0 4,0 1,0 2,0 3,-1l0 -10c-1,-1 -1,-1 -3,-1 -1,0 -2,0 -3,0 -1,0 -2,0 -4,0 -1,0 -2,1 -3,1 -1,1 -1,1 -2,2 0,1 -1,2 -1,3 0,2 1,4 3,5 1,0 3,1 6,1zm-1 -42c4,0 8,0 10,1 3,1 5,3 7,5 2,1 3,3 4,6 0,3 1,5 1,9l0 29c-2,1 -5,1 -9,2 -3,1 -8,1 -13,1 -3,0 -6,0 -9,-1 -3,-1 -5,-2 -7,-3 -2,-1 -3,-3 -4,-5 -1,-2 -2,-5 -2,-8 0,-3 1,-5 2,-7 1,-2 3,-4 5,-5 2,-1 4,-2 7,-3 2,0 5,-1 8,-1 1,0 3,0 5,1 1,0 2,0 3,0l0 -1c0,-3 -1,-4 -2,-6 -2,-1 -4,-2 -8,-2 -2,0 -5,0 -7,0 -2,1 -4,1 -6,2l-2 -12c1,0 2,0 3,0 1,-1 3,-1 4,-1 2,0 3,-1 5,-1 1,0 3,0 5,0zm49 19c1,-1 3,-3 4,-4 2,-2 4,-4 5,-5 2,-2 3,-3 4,-5 2,-1 3,-3 4,-4l17 0c-1,2 -3,3 -5,5 -1,2 -3,4 -6,7 -2,2 -4,4 -6,6 -2,2 -4,4 -6,5 2,2 4,4 6,6 2,2 4,5 7,7 2,3 4,5 5,8 2,2 4,5 5,7l-16 0c-1,-2 -2,-4 -4,-6 -1,-2 -3,-3 -5,-5 -1,-2 -3,-4 -4,-5 -2,-2 -4,-3 -5,-5l0 21 -14 0 0 -51 14 0 0 18zm86 -6l-17 0 0 39 -14 0 0 -39 -16 0 0 -12 47 0 0 12zm54 -12l0 51 -14 0c0,-3 0,-7 0,-10 0,-3 0,-6 0,-9 0,-2 0,-5 0,-7 0,-2 0,-3 0,-4 -1,3 -3,5 -5,8 -2,3 -4,5 -5,8 -2,2 -4,5 -5,7 -2,3 -3,5 -4,7l-13 0 0 -51 15 0c0,4 0,7 -1,9 0,3 0,6 0,8 0,3 0,5 0,7 0,1 0,3 0,4 4,-6 7,-11 11,-16 3,-4 6,-8 9,-12l12 0zm28 18c1,-1 3,-3 4,-4 2,-2 3,-4 5,-5 1,-2 3,-3 4,-5 2,-1 3,-3 4,-4l17 0c-1,2 -3,3 -5,5 -1,2 -3,4 -6,7 -2,2 -4,4 -6,6 -2,2 -4,4 -6,5 2,2 4,4 6,6 2,2 4,5 6,7 3,3 5,5 6,8 2,2 4,5 5,7l-16 0c-1,-2 -3,-4 -4,-6 -1,-2 -3,-3 -5,-5 -1,-2 -3,-4 -4,-5 -2,-2 -4,-3 -5,-5l0 21 -14 0 0 -51 14 0 0 18z"/>
   <path class="fil0" d="M707 272c2,0 3,0 4,0 2,0 3,0 3,-1l0 -10c0,-1 -1,-1 -2,-1 -1,0 -2,0 -3,0 -2,0 -3,0 -4,0 -1,0 -2,1 -3,1 -1,1 -2,1 -2,2 -1,1 -1,2 -1,3 0,2 1,4 2,5 2,0 4,1 6,1zm-1 -42c4,0 8,0 11,1 2,1 5,3 6,5 2,1 3,3 4,6 1,3 1,5 1,9l0 29c-2,1 -5,1 -8,2 -4,1 -9,1 -14,1 -3,0 -6,0 -9,-1 -2,-1 -5,-2 -6,-3 -2,-1 -4,-3 -5,-5 -1,-2 -1,-5 -1,-8 0,-3 0,-5 1,-7 2,-2 3,-4 5,-5 2,-1 4,-2 7,-3 3,0 5,-1 8,-1 2,0 3,0 5,1 1,0 2,0 3,0l0 -1c0,-3 0,-4 -2,-6 -1,-1 -4,-2 -8,-2 -2,0 -4,0 -7,0 -2,1 -4,1 -6,2l-2 -12c1,0 2,0 3,0 2,-1 3,-1 5,-1 1,0 3,-1 4,-1 2,0 3,0 5,0zm-678 18c0,2 -1,4 -1,5 -1,2 -2,3 -3,4 -1,2 -3,3 -4,3 -2,1 -4,2 -6,2 -2,0 -4,-1 -6,-2 -2,0 -3,-1 -4,-3 -1,-1 -2,-2 -3,-4 -1,-1 -1,-3 -1,-5 0,-2 0,-4 1,-5 1,-2 2,-3 3,-5 1,-1 2,-2 4,-3 2,0 4,-1 6,-1 2,0 4,1 6,1 1,1 3,2 4,3 1,2 2,3 3,5 0,1 1,3 1,5zm86 103l-16 0 0 38 -14 0 0 -38 -17 0 0 -12 47 0 0 12zm28 28c1,0 3,0 4,0 1,0 2,0 3,0l0 -11c-1,0 -1,0 -3,0 -1,0 -2,0 -3,0 -1,0 -2,0 -4,0 -1,0 -2,0 -3,1 -1,0 -1,1 -2,2 0,0 -1,1 -1,3 0,2 1,3 3,4 1,1 3,1 6,1zm-1 -41c4,0 8,0 10,1 3,1 5,2 7,4 2,2 3,4 4,7 0,2 1,5 1,8l0 30c-2,0 -5,1 -9,2 -3,0 -8,1 -13,1 -3,0 -6,-1 -9,-1 -3,-1 -5,-2 -7,-3 -2,-2 -3,-3 -4,-5 -1,-2 -2,-5 -2,-8 0,-3 1,-6 2,-8 1,-2 3,-3 5,-4 2,-2 4,-3 7,-3 2,-1 5,-1 8,-1 1,0 3,0 5,0 1,0 2,1 3,1l0 -1c0,-3 -1,-5 -2,-6 -2,-2 -4,-2 -8,-2 -2,0 -5,0 -7,0 -2,0 -4,1 -6,2l-2 -12c1,0 2,-1 3,-1 1,0 3,0 4,-1 2,0 3,0 5,0 1,0 3,0 5,0zm94 13l-22 0 0 38 -14 0 0 -50 36 0 0 12zm22 38l-15 0 0 -50 15 0 0 50zm1 -65c0,3 -1,5 -3,7 -1,1 -3,2 -6,2 -2,0 -4,-1 -6,-2 -1,-2 -2,-4 -2,-7 0,-2 1,-4 2,-6 2,-1 4,-2 6,-2 3,0 5,1 6,2 2,2 3,4 3,6zm48 27l-22 0 0 38 -14 0 0 -50 36 0 0 12zm22 38l-15 0 0 -50 15 0 0 50zm1 -65c0,3 -1,5 -2,7 -2,1 -4,2 -6,2 -3,0 -5,-1 -6,-2 -2,-2 -3,-4 -3,-7 0,-2 1,-4 3,-6 1,-1 3,-2 6,-2 2,0 4,1 6,2 1,2 2,4 2,6zm9 40c0,-4 1,-8 2,-11 1,-3 3,-6 5,-8 2,-3 5,-4 8,-6 4,-1 7,-1 11,-1 3,0 5,0 8,0 3,1 5,1 8,2l-2 12c-3,-1 -5,-2 -7,-2 -2,0 -4,-1 -6,-1 -3,0 -6,1 -8,2 -3,2 -4,4 -5,8l19 0 0 10 -19 0c1,2 1,3 2,5 1,1 2,2 3,3 1,0 2,1 4,1 1,1 3,1 4,1 3,0 5,-1 8,-1 2,-1 4,-1 6,-2l3 11c-4,2 -6,2 -9,3 -3,0 -6,1 -9,1 -4,0 -8,-1 -11,-2 -3,-1 -6,-3 -8,-5 -2,-3 -4,-5 -5,-9 -1,-3 -2,-7 -2,-11zm97 25l-15 0 0 -20 -14 0 0 20 -15 0 0 -50 15 0 0 19 14 0 0 -19 15 0 0 50zm33 -10c1,0 2,0 4,0 1,0 2,0 3,0l0 -11c-1,0 -2,0 -3,0 -1,0 -2,0 -3,0 -1,0 -3,0 -4,0 -1,0 -2,0 -3,1 -1,0 -2,1 -2,2 -1,0 -1,1 -1,3 0,2 1,3 2,4 2,1 4,1 7,1zm-2 -41c5,0 8,0 11,1 3,1 5,2 7,4 1,2 3,4 3,7 1,2 1,5 1,8l0 30c-2,0 -5,1 -8,2 -4,0 -8,1 -13,1 -4,0 -7,-1 -9,-1 -3,-1 -5,-2 -7,-3 -2,-2 -4,-3 -5,-5 -1,-2 -1,-5 -1,-8 0,-3 0,-6 2,-8 1,-2 2,-3 4,-4 2,-2 5,-3 7,-3 3,-1 5,-1 8,-1 2,0 4,0 5,0 2,0 3,1 4,1l0 -1c0,-3 -1,-5 -3,-6 -1,-2 -4,-2 -7,-2 -3,0 -5,0 -7,0 -3,0 -5,1 -7,2l-1 -12c0,0 1,-1 3,-1 1,0 2,0 4,-1 1,0 3,0 4,0 2,0 4,0 5,0zm-382 160c-3,0 -7,0 -11,0 -3,-1 -7,-1 -11,-2l0 -64c3,-1 6,-2 10,-2 4,0 7,0 10,0 5,0 8,0 12,1 4,0 7,1 9,3 3,1 5,3 6,6 2,2 2,5 2,8 0,6 -2,10 -7,13 4,2 7,4 8,7 2,2 3,5 3,9 0,7 -3,12 -8,16 -5,3 -13,5 -23,5zm-7 -30l0 17c1,0 2,0 3,1 1,0 3,0 4,0 5,0 8,-1 11,-2 3,-2 4,-4 4,-7 0,-3 -1,-6 -3,-7 -2,-1 -6,-2 -10,-2l-9 0zm0 -11l7 0c5,0 8,-1 10,-2 2,-1 3,-3 3,-6 0,-3 -1,-4 -3,-5 -2,-2 -5,-2 -9,-2 -2,0 -3,0 -4,0 -2,0 -3,0 -4,0l0 15zm63 40l-14 0 0 -50 14 0 0 50zm1 -65c0,3 -1,5 -2,6 -2,2 -4,2 -6,2 -3,0 -5,0 -6,-2 -2,-1 -3,-3 -3,-6 0,-3 1,-5 3,-6 1,-2 3,-2 6,-2 2,0 4,0 6,2 1,1 2,3 2,6zm8 53l6 0c2,-2 3,-5 4,-8 1,-3 2,-6 2,-10 0,-4 1,-7 1,-11 0,-3 0,-7 0,-9l39 0 0 38 9 0 0 26 -12 0 0 -14 -37 0 0 14 -12 0 0 -26zm38 0l0 -27 -12 0c0,3 0,5 0,7 0,3 -1,5 -1,7 0,3 -1,5 -2,7 0,2 -1,5 -3,6l18 0zm76 -50c-3,0 -5,1 -7,1 -2,0 -5,0 -7,1 -2,0 -4,0 -6,1 -1,1 -3,2 -5,3 -1,1 -3,2 -4,4 -1,2 -2,4 -3,6 4,-2 8,-3 12,-3 3,0 6,1 9,2 3,1 5,2 7,4 2,2 3,5 4,8 2,3 2,7 2,11 0,4 -1,8 -2,11 -1,3 -3,6 -5,8 -2,2 -5,4 -8,5 -3,1 -6,1 -9,1 -9,0 -15,-2 -19,-8 -4,-5 -6,-13 -6,-24 0,-6 1,-12 2,-17 1,-5 3,-9 6,-12 3,-3 6,-6 10,-8 4,-2 9,-3 14,-4 2,-1 4,-1 6,-1 2,-1 5,-1 7,-1l2 12zm-32 28c0,1 0,2 0,3 0,1 0,2 0,3 0,6 1,10 2,13 2,3 4,4 8,4 3,0 6,-1 7,-3 2,-3 3,-6 3,-10 0,-2 0,-3 -1,-5 0,-1 -1,-3 -2,-4 -1,-1 -2,-2 -3,-3 -1,0 -2,-1 -4,-1 -2,0 -4,0 -5,1 -2,0 -4,1 -5,2zm59 34l-14 0 0 -50 14 0 0 50zm2 -65c0,3 -1,5 -3,6 -1,2 -3,2 -6,2 -2,0 -4,0 -6,-2 -1,-1 -2,-3 -2,-6 0,-3 1,-5 2,-6 2,-2 4,-2 6,-2 3,0 5,0 6,2 2,1 3,3 3,6zm35 26c-1,2 -1,4 -1,6 0,2 0,4 0,6 0,3 -1,5 -1,7 -1,2 -1,3 -2,5 -1,2 -2,4 -3,6 -1,2 -2,3 -4,5 -2,1 -4,2 -7,3 -2,1 -5,2 -9,2l-2 -12c3,-1 6,-2 8,-3 2,-1 3,-2 4,-4 0,-2 1,-4 1,-6 1,-2 1,-4 1,-7 1,-2 1,-4 1,-7 0,-2 0,-4 0,-7l0 -5 38 0 0 50 -15 0 0 -39 -9 0zm86 40c-3,0 -6,0 -9,-1 -3,-1 -5,-2 -7,-4 -2,-2 -4,-4 -5,-7 -2,-3 -3,-6 -3,-9l-11 0 0 20 -14 0 0 -50 14 0 0 18 11 0c1,-3 2,-5 3,-8 1,-2 3,-5 5,-6 2,-2 5,-3 7,-4 3,-1 6,-2 9,-2 3,0 6,1 9,2 3,1 6,3 8,5 2,3 4,6 5,9 1,3 2,7 2,11 0,4 -1,7 -2,11 -1,3 -3,6 -5,8 -2,3 -5,4 -8,6 -3,1 -6,1 -9,1zm0 -40c-3,0 -6,1 -7,3 -2,3 -3,6 -3,11 0,4 1,7 3,10 1,3 4,4 7,4 3,0 5,-1 7,-4 1,-3 2,-6 2,-10 0,-5 -1,-8 -2,-11 -2,-2 -4,-3 -7,-3zm49 29c1,0 2,0 4,0 1,0 3,0 4,0 3,0 6,0 7,-1 2,-1 3,-2 3,-5 0,-2 -1,-3 -2,-4 -2,-1 -4,-1 -8,-1l-8 0 0 11zm8 -21c3,0 4,0 6,-1 1,0 2,-1 2,-4 0,-1 -1,-3 -2,-3 -2,-1 -4,-2 -7,-2 -1,0 -2,1 -3,1 -2,0 -3,0 -4,0l0 9 8 0zm0 32c-2,0 -4,0 -6,0 -2,0 -4,0 -6,-1 -2,0 -4,0 -6,0 -1,-1 -3,-1 -4,-1l0 -49c1,0 3,0 4,0 2,-1 4,-1 6,-1 2,0 4,0 6,0 2,-1 4,-1 6,-1 4,0 7,1 10,2 3,1 5,2 7,3 2,1 3,3 4,4 1,2 1,4 1,5 0,3 0,5 -2,7 -1,1 -2,3 -4,4 1,0 2,1 3,1 1,1 2,2 3,3 0,1 1,2 1,3 1,2 1,3 1,5 0,2 0,4 -1,6 -1,2 -2,4 -4,5 -2,2 -5,3 -8,4 -3,1 -7,1 -11,1zm55 -11c1,0 2,0 4,0 1,0 2,0 3,0l0 -11c-1,0 -2,0 -3,-1 -1,0 -2,0 -3,0 -1,0 -3,0 -4,1 -1,0 -2,0 -3,0 -1,1 -2,1 -2,2 -1,1 -1,2 -1,3 0,2 1,4 2,5 2,1 4,1 7,1zm-2 -42c5,0 8,1 11,2 3,1 5,2 7,4 1,2 3,4 3,6 1,3 1,6 1,9l0 30c-2,0 -5,1 -8,1 -4,1 -8,1 -13,1 -4,0 -7,0 -9,-1 -3,0 -5,-1 -7,-3 -2,-1 -4,-3 -5,-5 -1,-2 -1,-4 -1,-7 0,-3 0,-6 2,-8 1,-2 2,-4 4,-5 2,-1 5,-2 7,-3 3,0 5,0 8,0 2,0 4,0 5,0 2,0 3,0 4,1l0 -2c0,-2 -1,-4 -3,-6 -1,-1 -4,-2 -7,-2 -3,0 -5,0 -7,1 -3,0 -5,1 -7,1l-1 -11c0,-1 1,-1 3,-1 1,0 2,-1 4,-1 1,0 3,0 4,-1 2,0 4,0 5,0zm79 52l-14 0 0 -20 -15 0 0 20 -15 0 0 -50 15 0 0 18 15 0 0 -18 14 0 0 50zm57 0l-15 0 0 -20 -14 0 0 20 -15 0 0 -50 15 0 0 18 14 0 0 -18 15 0 0 50zm34 -18c-2,3 -4,6 -5,9 -2,3 -4,6 -5,9l-15 0c2,-4 4,-8 6,-11 2,-4 4,-7 6,-9 -3,-2 -5,-3 -7,-6 -1,-2 -2,-5 -2,-8 0,-6 2,-10 6,-13 4,-3 10,-4 17,-4 1,0 3,0 5,0 2,0 4,0 6,0 2,1 4,1 5,1 2,0 4,1 5,1l0 49 -14 0 0 -18 -8 0zm8 -22c-1,0 -2,0 -3,0 -2,0 -3,-1 -4,-1 -3,0 -6,1 -7,2 -1,1 -2,3 -2,5 0,1 0,2 1,3 0,1 1,1 2,2 1,0 2,0 3,1 1,0 2,0 3,0l7 0 0 -12zm-673 6c0,2 -1,4 -1,5 -1,2 -2,3 -3,5 -1,1 -3,2 -4,3 -2,0 -4,1 -6,1 -2,0 -4,-1 -6,-1 -2,-1 -3,-2 -4,-3 -1,-2 -2,-3 -3,-5 -1,-1 -1,-3 -1,-5 0,-2 0,-3 1,-5 1,-2 2,-3 3,-4 1,-2 2,-3 4,-3 2,-1 4,-1 6,-1 2,0 4,0 6,1 1,0 3,1 4,3 1,1 2,2 3,4 0,2 1,3 1,5zm34 142l0 -67 45 0 0 13 -30 0 0 13 27 0 0 12 -27 0 0 16 32 0 0 13 -47 0zm55 -26c0,-3 0,-7 2,-10 1,-3 3,-6 5,-8 2,-3 5,-5 8,-6 3,-1 7,-2 11,-2 3,0 5,0 7,1 3,0 5,1 7,2l-3 11c-2,0 -3,-1 -5,-1 -1,-1 -3,-1 -5,-1 -4,0 -7,1 -9,4 -3,3 -4,6 -4,10 0,5 1,9 3,11 2,3 6,4 11,4 1,0 3,0 5,-1 2,0 4,-1 6,-1l2 11c-2,1 -4,2 -7,2 -2,1 -5,1 -8,1 -4,0 -8,-1 -12,-2 -3,-1 -6,-3 -8,-6 -2,-2 -4,-5 -5,-8 -1,-3 -1,-7 -1,-11zm92 -13l-16 0 0 39 -14 0 0 -39 -17 0 0 -12 47 0 0 12zm6 14c0,-5 1,-9 2,-12 2,-3 4,-6 6,-8 2,-3 5,-4 7,-5 3,-2 6,-2 9,-2 8,0 13,2 17,6 5,5 7,11 7,20 0,1 0,2 0,3 0,1 -1,1 -1,2l-32 0c0,3 2,5 4,7 3,2 6,3 10,3 3,0 5,0 8,-1 2,0 4,-1 6,-2l2 12c-1,0 -2,1 -3,1 -2,0 -3,1 -5,1 -1,0 -3,1 -5,1 -1,0 -3,0 -5,0 -5,0 -9,-1 -12,-2 -3,-1 -6,-3 -8,-5 -2,-3 -4,-6 -5,-9 -1,-3 -2,-6 -2,-10zm34 -6c0,-1 0,-2 -1,-3 0,-1 -1,-2 -1,-3 -1,-1 -2,-2 -3,-2 -1,-1 -3,-1 -4,-1 -2,0 -3,0 -4,0 -2,1 -3,2 -3,3 -1,1 -2,2 -2,3 -1,1 -1,2 -1,3l19 0zm67 -8l-17 0 0 39 -14 0 0 -39 -16 0 0 -12 47 0 0 12zm54 -12l0 51 -14 0c0,-3 0,-7 0,-10 0,-3 0,-6 0,-9 0,-2 0,-5 0,-7 0,-2 0,-3 0,-4 -1,2 -3,5 -5,8 -2,3 -4,5 -5,8 -2,2 -4,5 -5,7 -2,3 -3,5 -4,7l-13 0 0 -51 14 0c0,3 0,6 0,9 0,3 0,6 0,8 0,3 0,5 0,6 0,2 0,4 0,5 4,-6 7,-11 11,-16 3,-4 6,-8 9,-12l12 0zm25 0l0 17c0,2 1,4 3,5 1,1 4,1 6,1 1,0 2,0 3,0 1,0 2,0 3,0l0 -23 15 0 0 51 -15 0 0 -17c-1,0 -2,0 -4,1 -1,0 -2,0 -3,0 -3,0 -6,-1 -9,-1 -3,-1 -5,-2 -7,-3 -2,-1 -3,-3 -4,-6 -1,-2 -2,-5 -2,-8l0 -17 14 0zm87 51l-15 0 0 -20 -15 0 0 20 -14 0 0 -51 14 0 0 19 15 0 0 -19 15 0 0 51zm11 -25c0,-5 0,-9 2,-12 1,-3 3,-6 5,-8 2,-3 5,-4 8,-5 3,-2 6,-2 9,-2 7,0 13,2 17,6 4,5 6,11 6,20 0,1 0,2 0,3 0,1 0,1 0,2l-33 0c1,3 2,5 4,7 3,2 6,3 10,3 3,0 5,0 8,-1 3,0 5,-1 6,-2l2 12c-1,0 -2,1 -3,1 -1,0 -3,1 -4,1 -2,0 -3,1 -5,1 -2,0 -4,0 -6,0 -4,0 -8,-1 -12,-2 -3,-1 -6,-3 -8,-5 -2,-3 -4,-6 -5,-9 -1,-3 -1,-6 -1,-10zm33 -6c0,-1 0,-2 0,-3 -1,-1 -1,-2 -2,-3 -1,-1 -2,-2 -3,-2 -1,-1 -2,-1 -4,-1 -2,0 -3,0 -4,0 -1,1 -2,2 -3,3 -1,1 -1,2 -2,3 0,1 0,2 -1,3l19 0z"/>
   <path class="fil0" d="M28 571c0,2 -1,3 -1,5 -1,2 -2,3 -3,4 -1,2 -3,3 -4,3 -2,1 -4,1 -6,1 -2,0 -4,0 -6,-1 -2,0 -3,-1 -4,-3 -1,-1 -2,-2 -3,-4 -1,-2 -1,-3 -1,-5 0,-2 0,-4 1,-5 1,-2 2,-3 3,-5 1,-1 2,-2 4,-3 2,0 4,-1 6,-1 2,0 4,1 6,1 1,1 3,2 4,3 1,2 2,3 3,5 0,1 1,3 1,5zm44 103c0,1 0,3 0,5 -1,3 -1,5 -1,7 0,2 -1,4 -1,6 0,2 -1,4 -2,5 0,2 -1,4 -2,6 -2,2 -3,3 -5,5 -2,1 -4,2 -7,3 -2,1 -5,2 -9,2l-2 -12c4,0 6,-1 8,-2 2,-2 3,-3 4,-5 1,-2 1,-3 2,-6 0,-2 0,-4 1,-6 0,-3 0,-5 0,-7 0,-3 0,-5 0,-7l0 -6 38 0 0 50 -14 0 0 -38 -10 0zm52 38l-15 0 0 -50 15 0 0 50zm1 -65c0,3 -1,5 -3,6 -1,2 -3,3 -6,3 -2,0 -4,-1 -6,-3 -1,-1 -2,-3 -2,-6 0,-2 1,-4 2,-6 2,-1 4,-2 6,-2 3,0 5,1 6,2 2,2 3,4 3,6zm26 32c2,-1 3,-2 5,-4 1,-2 3,-3 4,-5 2,-1 3,-3 5,-4 1,-2 2,-3 3,-4l18 0c-2,1 -3,3 -5,5 -2,2 -4,4 -6,6 -2,2 -4,4 -7,6 -2,3 -4,4 -6,6 2,2 4,3 7,6 2,2 4,4 6,7 2,2 4,5 6,7 2,3 3,5 5,7l-17 0c-1,-1 -2,-3 -4,-5 -1,-2 -3,-4 -4,-6 -2,-2 -3,-3 -5,-5 -2,-1 -3,-3 -5,-4l0 20 -14 0 0 -50 14 0 0 17zm90 -17c-3,10 -6,19 -9,27 -4,9 -7,17 -11,25 -1,3 -2,5 -4,7 -1,2 -3,4 -4,5 -2,2 -4,3 -6,3 -2,1 -4,1 -7,1 -2,0 -4,0 -6,-1 -2,0 -3,0 -5,-1l3 -11c1,0 3,1 4,1 1,0 2,0 4,0 2,0 4,-1 5,-2 2,-1 3,-3 4,-6 -3,-6 -7,-13 -10,-21 -3,-8 -6,-17 -9,-27l15 0c1,2 1,5 2,8 1,3 2,6 3,9 1,3 2,6 3,8 1,3 2,6 3,8 1,-2 2,-5 3,-8 0,-2 1,-5 2,-8 1,-3 2,-6 3,-9 0,-3 1,-6 2,-8l15 0zm22 40c0,0 2,0 3,0 2,0 3,0 4,0 3,0 6,0 8,-1 2,-1 2,-2 2,-4 0,-2 0,-4 -2,-5 -2,0 -4,-1 -7,-1l-8 0 0 11zm8 -20c2,0 4,-1 5,-1 2,-1 3,-2 3,-4 0,-2 -1,-4 -3,-4 -2,-1 -4,-1 -6,-1 -1,0 -3,0 -4,0 -1,0 -3,0 -3,0l0 10 8 0zm-1 31c-2,0 -4,0 -6,0 -2,0 -4,0 -6,0 -2,-1 -4,-1 -5,-1 -2,0 -4,-1 -5,-1l0 -48c1,-1 3,-1 5,-1 1,0 3,-1 5,-1 2,0 4,0 6,0 2,0 4,0 6,0 4,0 8,0 11,1 2,1 5,2 7,3 1,2 3,3 3,5 1,1 1,3 1,5 0,2 0,4 -1,6 -1,2 -3,3 -4,4 1,0 2,1 2,2 1,0 2,1 3,2 1,1 1,2 2,4 0,1 1,3 1,4 0,2 -1,4 -2,6 0,2 -2,4 -4,5 -2,2 -4,3 -7,4 -3,1 -7,1 -12,1zm55 -11c1,0 3,0 4,0 1,0 2,0 3,0l0 -11c-1,0 -1,0 -3,0 -1,0 -2,0 -3,0 -1,0 -2,0 -4,0 -1,0 -2,0 -3,1 -1,0 -1,1 -2,2 0,0 -1,1 -1,2 0,3 1,4 3,5 1,1 3,1 6,1zm-1 -41c4,0 8,0 10,1 3,1 5,2 7,4 2,2 3,4 4,7 0,2 1,5 1,8l0 30c-2,0 -5,1 -9,1 -3,1 -8,1 -13,1 -3,0 -6,0 -9,0 -3,-1 -5,-2 -7,-3 -2,-2 -3,-3 -4,-5 -1,-3 -2,-5 -2,-8 0,-3 1,-6 2,-8 1,-2 3,-3 5,-5 2,-1 4,-2 7,-2 2,-1 5,-1 8,-1 1,0 3,0 5,0 1,0 2,1 3,1l0 -2c0,-2 -1,-4 -2,-5 -2,-2 -4,-3 -8,-3 -2,0 -5,1 -7,1 -2,0 -4,1 -6,1l-2 -11c1,0 2,-1 3,-1 1,0 3,0 4,-1 2,0 3,0 5,0 1,0 3,0 5,0zm78 51l-14 0 0 -20 -15 0 0 20 -14 0 0 -50 14 0 0 19 15 0 0 -19 14 0 0 50zm57 0l-14 0 0 -20 -15 0 0 20 -14 0 0 -50 14 0 0 19 15 0 0 -19 14 0 0 50zm35 -18c-3,3 -4,6 -6,9 -2,4 -3,6 -5,9l-14 0c2,-4 3,-8 5,-11 2,-4 4,-7 6,-9 -3,-1 -5,-3 -6,-5 -2,-3 -3,-5 -3,-9 0,-5 2,-10 6,-13 4,-3 10,-4 17,-4 2,0 3,0 5,0 2,0 4,0 6,1 2,0 4,0 6,0 2,1 3,1 4,1l0 49 -14 0 0 -18 -7 0zm7 -22c-1,0 -2,0 -3,0 -1,0 -3,0 -4,0 -3,0 -5,0 -7,2 -1,1 -2,2 -2,4 0,1 1,2 1,3 1,1 1,1 2,2 1,0 2,1 3,1 1,0 2,0 3,0l7 0 0 -12zm-390 81l0 13 -20 0 0 54 -15 0 0 -54 -20 0 0 -13 55 0zm2 42c0,-4 1,-8 2,-12 2,-3 3,-6 6,-8 2,-2 4,-4 7,-5 3,-1 6,-2 9,-2 7,0 13,2 17,7 4,4 7,11 7,19 0,1 0,2 -1,3 0,1 0,2 0,2l-32 0c0,3 1,6 4,7 2,2 6,3 10,3 2,0 5,0 7,-1 3,0 5,-1 7,-1l2 11c-1,1 -2,1 -4,1 -1,1 -2,1 -4,1 -1,1 -3,1 -5,1 -2,0 -3,0 -5,0 -5,0 -9,0 -12,-2 -3,-1 -6,-3 -8,-5 -3,-3 -4,-5 -5,-9 -1,-3 -2,-6 -2,-10zm34 -5c0,-2 -1,-3 -1,-4 0,-1 -1,-2 -2,-3 0,-1 -1,-2 -2,-2 -1,-1 -3,-1 -5,-1 -1,0 -2,0 -4,1 -1,0 -2,1 -3,2 0,1 -1,2 -1,3 -1,1 -1,2 -1,4l19 0zm57 5c0,-4 -1,-8 -3,-10 -2,-3 -5,-4 -9,-4 -1,0 -2,0 -3,0 -2,0 -2,0 -3,0l0 26c1,0 2,1 3,1 2,1 3,1 5,1 7,0 10,-5 10,-14zm15 0c0,4 -1,7 -2,10 -1,4 -2,6 -4,9 -2,2 -4,4 -7,5 -3,1 -6,2 -10,2 -2,0 -3,0 -5,-1 -2,0 -4,-1 -5,-1l0 19 -14 0 0 -67c1,0 2,-1 4,-1 2,0 3,-1 5,-1 2,0 4,0 6,0 2,-1 3,-1 5,-1 4,0 8,1 11,2 4,1 6,3 9,5 2,3 4,6 5,9 1,3 2,7 2,11zm30 15c1,0 3,0 4,0 1,0 2,0 3,0l0 -11c-1,0 -1,0 -3,-1 -1,0 -2,0 -3,0 -1,0 -2,0 -4,0 -1,1 -2,1 -3,1 -1,1 -1,1 -2,2 0,1 -1,2 -1,3 0,2 1,4 3,5 1,1 3,1 6,1zm-1 -42c4,0 7,1 10,2 3,1 5,2 7,4 2,1 3,4 4,6 0,3 1,6 1,9l0 30c-2,0 -5,1 -9,1 -3,1 -8,1 -13,1 -3,0 -6,0 -9,-1 -3,0 -5,-1 -7,-3 -2,-1 -3,-3 -4,-5 -1,-2 -2,-4 -2,-8 0,-3 1,-5 2,-7 1,-2 3,-4 5,-5 2,-1 4,-2 7,-3 2,0 5,0 8,0 1,0 3,0 4,0 2,0 3,0 4,0l0 -1c0,-2 -1,-4 -2,-6 -2,-1 -4,-2 -8,-2 -2,0 -5,0 -7,1 -2,0 -5,0 -6,1l-2 -11c1,-1 2,-1 3,-1 1,-1 3,-1 4,-1 2,0 3,0 5,-1 1,0 3,0 5,0zm78 1l0 51 -14 0 0 -39 -15 0 0 39 -14 0 0 -51 43 0zm11 26c0,-4 1,-8 2,-12 2,-3 3,-6 6,-8 2,-2 5,-4 7,-5 3,-1 6,-2 9,-2 8,0 13,2 17,7 5,4 7,11 7,19 0,1 0,2 0,3 -1,1 -1,2 -1,2l-32 0c0,3 2,6 4,7 2,2 6,3 10,3 2,0 5,0 8,-1 2,0 4,-1 6,-1l2 11c-1,1 -2,1 -3,1 -2,1 -3,1 -5,1 -1,1 -3,1 -5,1 -2,0 -3,0 -5,0 -5,0 -9,0 -12,-2 -3,-1 -6,-3 -8,-5 -3,-3 -4,-5 -5,-9 -1,-3 -2,-6 -2,-10zm34 -5c0,-2 0,-3 -1,-4 0,-1 -1,-2 -1,-3 -1,-1 -2,-2 -3,-2 -1,-1 -3,-1 -4,-1 -2,0 -3,0 -5,1 -1,0 -2,1 -2,2 -1,1 -2,2 -2,3 -1,1 -1,2 -1,4l19 0zm39 19c1,1 2,1 4,1 1,0 2,0 4,0 3,0 5,0 7,-1 2,-1 3,-3 3,-5 0,-2 -1,-3 -2,-4 -2,-1 -5,-1 -8,-1l-8 0 0 10zm8 -20c2,0 4,0 6,-1 1,0 2,-2 2,-4 0,-2 -1,-3 -2,-4 -2,0 -4,-1 -7,-1 -1,0 -2,0 -4,1 -1,0 -2,0 -3,0l0 9 8 0zm0 32c-2,0 -4,0 -6,0 -2,0 -4,-1 -6,-1 -2,0 -4,0 -6,-1 -2,0 -3,0 -4,0l0 -49c1,0 2,0 4,0 2,-1 4,-1 6,-1 2,0 4,0 6,-1 2,0 4,0 6,0 4,0 7,1 10,2 3,0 5,1 7,3 2,1 3,3 4,4 1,2 1,4 1,5 0,3 -1,5 -2,6 -1,2 -2,4 -4,5 1,0 2,0 3,1 1,1 2,2 2,3 1,1 2,2 2,3 1,2 1,3 1,5 0,2 0,4 -1,6 -1,2 -2,4 -4,5 -2,2 -5,3 -8,4 -3,0 -7,1 -11,1zm77 -40l-16 0 0 39 -15 0 0 -39 -16 0 0 -12 47 0 0 12zm55 -12l0 51 -15 0c0,-3 0,-6 0,-10 0,-3 0,-6 0,-8 0,-3 1,-5 1,-7 0,-2 0,-4 0,-5 -2,3 -4,5 -6,8 -2,3 -3,5 -5,8 -2,3 -3,5 -5,7 -1,3 -3,5 -4,7l-12 0 0 -51 14 0c0,4 0,7 0,10 0,3 0,5 0,8 0,2 -1,4 -1,6 0,2 0,3 0,4 4,-6 8,-11 11,-15 3,-5 6,-9 9,-13l13 0zm25 0l0 17c0,2 1,4 2,5 2,1 4,1 7,1 0,0 1,0 2,0 2,0 3,0 4,0l0 -23 14 0 0 51 -14 0 0 -17c-2,1 -3,1 -4,1 -2,0 -3,0 -4,0 -3,0 -6,0 -9,-1 -2,0 -5,-1 -7,-3 -1,-1 -3,-3 -4,-5 -1,-3 -1,-6 -1,-9l0 -17 14 0zm86 51l-14 0 0 -20 -15 0 0 20 -15 0 0 -51 15 0 0 19 15 0 0 -19 14 0 0 51zm11 -25c0,-4 1,-8 2,-12 1,-3 3,-6 6,-8 2,-2 4,-4 7,-5 3,-1 6,-2 9,-2 7,0 13,2 17,7 4,4 6,11 6,19 0,1 0,2 0,3 0,1 0,2 0,2l-32 0c0,3 1,6 4,7 2,2 6,3 10,3 2,0 5,0 7,-1 3,0 5,-1 7,-1l1 11c0,1 -1,1 -3,1 -1,1 -2,1 -4,1 -1,1 -3,1 -5,1 -2,0 -3,0 -5,0 -5,0 -9,0 -12,-2 -4,-1 -6,-3 -8,-5 -3,-3 -4,-5 -5,-9 -1,-3 -2,-6 -2,-10zm34 -5c0,-2 -1,-3 -1,-4 0,-1 -1,-2 -2,-3 0,-1 -1,-2 -2,-2 -2,-1 -3,-1 -5,-1 -1,0 -3,0 -4,1 -1,0 -2,1 -3,2 0,1 -1,2 -1,3 -1,1 -1,2 -1,4l19 0zm-678 -4c0,2 -1,4 -1,5 -1,2 -2,3 -3,5 -1,1 -3,2 -4,3 -2,0 -4,1 -6,1 -2,0 -4,-1 -6,-1 -2,-1 -3,-2 -4,-3 -1,-2 -2,-3 -3,-5 -1,-1 -1,-3 -1,-5 0,-2 0,-3 1,-5 1,-2 2,-3 3,-4 1,-2 2,-3 4,-3 2,-1 4,-2 6,-2 2,0 4,1 6,2 1,0 3,1 4,3 1,1 2,2 3,4 0,2 1,3 1,5zm44 103c0,2 0,4 0,6 -1,2 -1,4 -1,6 0,2 -1,4 -1,6 0,2 -1,4 -2,6 0,2 -1,4 -2,5 -2,2 -3,4 -5,5 -2,2 -4,3 -7,4 -2,1 -5,1 -9,1l-2 -11c4,-1 6,-2 8,-3 2,-1 3,-3 4,-5 1,-1 1,-3 2,-5 0,-2 0,-5 1,-7 0,-2 0,-5 0,-7 0,-3 0,-5 0,-7l0 -6 38 0 0 51 -14 0 0 -39 -10 0zm52 39l-15 0 0 -51 15 0 0 51zm1 -65c0,2 -1,4 -3,6 -1,1 -3,2 -6,2 -2,0 -4,-1 -6,-2 -1,-2 -2,-4 -2,-6 0,-3 1,-5 2,-7 2,-1 4,-2 6,-2 3,0 5,1 6,2 2,2 3,4 3,7zm26 32c2,-2 3,-3 5,-5 1,-1 3,-3 4,-4 2,-2 3,-3 5,-5 1,-1 2,-3 3,-4l18 0c-2,1 -3,3 -5,5 -2,2 -4,4 -6,6 -2,2 -4,5 -7,7 -2,2 -4,4 -6,5 2,2 4,4 7,6 2,2 4,4 6,7 2,2 4,5 6,7 2,3 3,5 5,8l-17 0c-1,-2 -2,-4 -4,-6 -1,-2 -3,-4 -4,-5 -2,-2 -3,-4 -5,-6 -2,-1 -3,-3 -5,-4l0 21 -14 0 0 -51 14 0 0 18zm90 -18c-3,10 -6,19 -9,27 -4,9 -7,17 -11,25 -1,3 -2,6 -4,8 -1,2 -3,3 -4,5 -2,1 -4,2 -6,2 -2,1 -4,1 -7,1 -2,0 -4,0 -6,0 -2,-1 -3,-1 -5,-2l3 -11c1,0 3,1 4,1 1,0 2,0 4,0 2,0 4,0 5,-2 2,-1 3,-3 4,-5 -3,-7 -7,-14 -10,-22 -3,-8 -6,-17 -9,-27l15 0c1,3 1,5 2,8 1,3 2,6 3,9 1,3 2,6 3,9 1,3 2,5 3,7 1,-2 2,-4 3,-7 0,-3 1,-6 2,-9 1,-3 2,-6 3,-9 0,-3 1,-5 2,-8l15 0zm22 40c0,0 2,0 3,0 2,0 3,1 4,1 3,0 6,-1 8,-2 2,0 2,-2 2,-4 0,-2 0,-4 -2,-4 -2,-1 -4,-1 -7,-1l-8 0 0 10zm8 -20c2,0 4,0 5,-1 2,-1 3,-2 3,-4 0,-2 -1,-3 -3,-4 -2,-1 -4,-1 -6,-1 -1,0 -3,0 -4,0 -1,0 -3,0 -3,0l0 10 8 0zm-1 32c-2,0 -4,0 -6,-1 -2,0 -4,0 -6,0 -2,0 -4,-1 -5,-1 -2,0 -4,0 -5,-1l0 -48c1,0 3,-1 5,-1 1,0 3,0 5,0 2,-1 4,-1 6,-1 2,0 4,0 6,0 4,0 8,0 11,1 2,1 5,2 7,3 1,2 3,3 3,5 1,2 1,3 1,5 0,2 0,4 -1,6 -1,2 -3,3 -4,4 1,1 2,1 2,2 1,0 2,1 3,2 1,1 1,3 2,4 0,1 1,3 1,5 0,2 -1,4 -2,6 0,2 -2,3 -4,5 -2,1 -4,2 -7,3 -3,1 -7,2 -12,2z"/>
   <path class="fil0" d="M325 918c1,0 3,0 4,0 1,-1 2,-1 3,-1l0 -11c-1,0 -1,0 -3,0 -1,0 -2,0 -3,0 -1,0 -2,0 -4,0 -1,0 -2,1 -3,1 -1,0 -1,1 -2,2 0,1 -1,2 -1,3 0,2 1,3 3,4 1,1 3,2 6,2zm-1 -42c4,0 8,0 10,1 3,1 5,3 7,4 2,2 3,4 4,7 0,2 1,5 1,8l0 30c-2,1 -5,1 -9,2 -3,0 -8,1 -13,1 -3,0 -6,-1 -9,-1 -3,-1 -5,-2 -7,-3 -2,-1 -3,-3 -4,-5 -1,-2 -2,-5 -2,-8 0,-3 1,-5 2,-7 1,-2 3,-4 5,-5 2,-2 4,-2 7,-3 2,-1 5,-1 8,-1 1,0 3,0 5,0 1,1 2,1 3,1l0 -1c0,-3 -1,-5 -2,-6 -2,-2 -4,-2 -8,-2 -2,0 -5,0 -7,0 -2,1 -4,1 -6,2l-2 -12c1,0 2,0 3,-1 1,0 3,0 4,0 2,-1 3,-1 5,-1 1,0 3,0 5,0zm78 52l-14 0 0 -20 -15 0 0 20 -14 0 0 -51 14 0 0 19 15 0 0 -19 14 0 0 51zm57 0l-14 0 0 -20 -15 0 0 20 -14 0 0 -51 14 0 0 19 15 0 0 -19 14 0 0 51zm35 -18c-3,3 -4,6 -6,9 -2,3 -3,6 -5,9l-14 0c2,-5 3,-8 5,-12 2,-3 4,-6 6,-9 -3,-1 -5,-3 -6,-5 -2,-2 -3,-5 -3,-8 0,-6 2,-10 6,-13 4,-3 10,-5 17,-5 2,0 3,0 5,0 2,0 4,1 6,1 2,0 4,0 6,1 2,0 3,0 4,1l0 49 -14 0 0 -18 -7 0zm7 -23c-1,0 -2,0 -3,0 -1,0 -3,0 -4,0 -3,0 -5,1 -7,2 -1,1 -2,2 -2,4 0,1 1,2 1,3 1,1 1,2 2,2 1,1 2,1 3,1 1,0 2,0 3,0l7 0 0 -12z"/>
  </g>
 </g>
</svg>
