<?xml version="1.0" encoding="UTF-8"?>
<!DOCTYPE svg PUBLIC "-//W3C//DTD SVG 1.1//EN" "http://www.w3.org/Graphics/SVG/1.1/DTD/svg11.dtd">
<!-- Creator: CorelDRAW X7 -->
<svg xmlns="http://www.w3.org/2000/svg" xml:space="preserve" width="23.9336mm" height="27.1758mm" version="1.1" style="shape-rendering:geometricPrecision; text-rendering:geometricPrecision; image-rendering:optimizeQuality; fill-rule:evenodd; clip-rule:evenodd"
viewBox="0 0 621 705"
 xmlns:xlink="http://www.w3.org/1999/xlink">
 <defs>
  <style type="text/css">
   <![CDATA[
    .fil0 {fill:#FEFEFE;fill-rule:nonzero}
   ]]>
  </style>
 </defs>
 <g id="Слой_x0020_1">
  <metadata id="CorelCorpID_0Corel-Layer"/>
  <g id="_810943808">
   <path class="fil0" d="M18 26c0,2 0,3 0,4 -1,1 -1,2 -2,3 -1,1 -2,1 -3,2 -1,0 -2,1 -4,1 -1,0 -2,-1 -4,-1 -1,-1 -2,-1 -3,-2 0,-1 -1,-2 -1,-3 -1,-1 -1,-2 -1,-4 0,-1 0,-2 1,-3 0,-1 1,-2 1,-3 1,-1 2,-1 3,-2 2,0 3,-1 4,-1 2,0 3,1 4,1 1,1 2,1 3,2 1,1 1,2 2,3 0,1 0,2 0,3zm60 -21l0 44 -10 0 0 -36 -17 0 0 36 -10 0 0 -44 37 0zm22 37c1,0 2,0 3,0 1,0 2,0 2,0l0 -7c0,0 -1,0 -2,0 0,0 -1,0 -2,0 -1,0 -1,0 -2,0 -1,0 -2,0 -2,0 -1,1 -1,1 -2,2 0,0 0,1 0,1 0,2 0,3 1,4 1,0 3,0 4,0zm0 -28c2,0 5,1 7,1 2,1 3,2 4,3 1,1 2,3 3,5 0,1 0,3 0,5l0 20c-1,0 -3,1 -5,1 -3,1 -6,1 -9,1 -2,0 -4,0 -6,-1 -2,0 -3,-1 -5,-2 -1,-1 -2,-2 -3,-3 0,-2 -1,-3 -1,-5 0,-2 1,-4 2,-5 0,-2 1,-3 3,-4 1,0 3,-1 4,-1 2,-1 4,-1 6,-1 1,0 2,0 3,0 1,0 2,1 2,1l0 -1c0,-2 0,-3 -1,-4 -1,-1 -3,-2 -5,-2 -2,0 -4,1 -5,1 -2,0 -3,0 -4,1l-2 -8c1,0 2,0 3,0 0,-1 1,-1 2,-1 1,0 2,0 3,0 1,0 3,-1 4,-1zm45 18c0,-2 -1,-5 -2,-7 -2,-1 -4,-2 -6,-2 -1,0 -2,0 -3,0 0,0 -1,0 -1,0l0 17c0,1 1,1 2,1 1,1 2,1 3,1 4,0 7,-3 7,-10zm9 0c0,3 0,5 -1,7 0,2 -1,4 -2,6 -2,1 -3,3 -5,3 -2,1 -4,2 -6,2 -2,0 -3,0 -4,-1 -1,0 -2,0 -3,-1l0 13 -10 0 0 -44c1,-1 2,-1 3,-1 1,0 2,-1 3,-1 2,0 3,0 4,0 1,0 3,0 4,0 3,0 5,0 7,1 2,1 4,2 6,3 1,2 2,4 3,6 1,2 1,5 1,7zm21 10c1,0 1,0 2,0 1,0 2,0 2,0l0 -7c0,0 -1,0 -1,0 -1,0 -2,0 -3,0 0,0 -1,0 -2,0 -1,0 -2,0 -2,0 -1,1 -1,1 -2,2 0,0 0,1 0,1 0,2 0,3 1,4 1,0 3,0 5,0zm-1 -28c3,0 5,1 7,1 2,1 3,2 4,3 2,1 2,3 3,5 0,1 1,3 1,5l0 20c-2,0 -4,1 -6,1 -3,1 -6,1 -9,1 -2,0 -4,0 -6,-1 -2,0 -3,-1 -5,-2 -1,-1 -2,-2 -3,-3 0,-2 -1,-3 -1,-5 0,-2 1,-4 2,-5 0,-2 2,-3 3,-4 1,0 3,-1 4,-1 2,-1 4,-1 6,-1 1,0 2,0 3,0 1,0 2,1 2,1l0 -1c0,-2 0,-3 -1,-4 -1,-1 -3,-2 -5,-2 -2,0 -3,1 -5,1 -2,0 -3,0 -4,1l-1 -8c0,0 1,0 2,0 1,-1 1,-1 2,-1 1,0 2,0 4,0 1,0 2,-1 3,-1zm20 27l4 0c1,-1 2,-3 3,-5 1,-2 1,-5 1,-7 1,-2 1,-5 1,-7 0,-3 0,-5 0,-7l26 0 0 26 6 0 0 18 -8 0 0 -10 -25 0 0 10 -8 0 0 -18zm26 0l0 -18 -8 0c0,2 0,3 -1,5 0,1 0,3 0,5 0,1 -1,3 -1,4 -1,2 -1,3 -2,4l12 0zm52 -9c0,3 0,5 -1,7 -1,3 -2,5 -3,6 -2,2 -4,3 -6,4 -2,1 -4,1 -6,1 -3,0 -5,0 -7,-1 -2,-1 -4,-2 -5,-4 -2,-1 -3,-3 -4,-6 -1,-2 -1,-4 -1,-7 0,-2 0,-5 1,-7 1,-2 2,-4 4,-6 1,-1 3,-2 5,-3 2,-1 4,-2 7,-2 2,0 4,1 6,2 2,1 4,2 6,3 1,2 2,4 3,6 1,2 1,5 1,7zm-10 0c0,-3 0,-5 -1,-7 -2,-1 -3,-2 -5,-2 -3,0 -4,1 -5,2 -2,2 -2,4 -2,7 0,3 0,5 2,7 1,2 2,3 5,3 2,0 3,-1 5,-3 1,-2 1,-4 1,-7zm47 17l-10 0 0 -13 -10 0 0 13 -9 0 0 -34 9 0 0 13 10 0 0 -13 10 0 0 34zm36 -26l-10 0 0 26 -10 0 0 -26 -11 0 0 -8 31 0 0 8zm38 9c0,3 -1,5 -1,7 -1,3 -2,5 -4,6 -1,2 -3,3 -5,4 -2,1 -4,1 -7,1 -2,0 -5,0 -7,-1 -2,-1 -3,-2 -5,-4 -1,-1 -2,-3 -3,-6 -1,-2 -1,-4 -1,-7 0,-2 0,-5 1,-7 1,-2 2,-4 3,-6 2,-1 4,-2 6,-3 2,-1 4,-2 6,-2 3,0 5,1 7,2 2,1 4,2 5,3 2,2 3,4 4,6 0,2 1,5 1,7zm-10 0c0,-3 -1,-5 -2,-7 -1,-1 -3,-2 -5,-2 -2,0 -4,1 -5,2 -1,2 -2,4 -2,7 0,3 1,5 2,7 1,2 3,3 5,3 2,0 4,-1 5,-3 1,-2 2,-4 2,-7zm32 -9c0,1 0,3 0,4 0,2 0,3 0,4 0,2 -1,3 -1,4 0,2 -1,3 -1,4 -1,1 -1,3 -2,4 -1,1 -2,2 -3,3 -1,1 -3,2 -4,2 -2,1 -4,1 -6,2l-2 -8c2,-1 4,-1 5,-2 2,-1 2,-2 3,-3 0,-1 1,-2 1,-4 0,-1 1,-3 1,-4 0,-2 0,-3 0,-5 0,-2 0,-3 0,-5l0 -4 25 0 0 34 -9 0 0 -26 -7 0zm57 9c0,3 -1,5 -1,7 -1,3 -2,5 -4,6 -1,2 -3,3 -5,4 -2,1 -4,1 -7,1 -2,0 -4,0 -6,-1 -3,-1 -4,-2 -6,-4 -1,-1 -2,-3 -3,-6 -1,-2 -1,-4 -1,-7 0,-2 0,-5 1,-7 1,-2 2,-4 3,-6 2,-1 4,-2 6,-3 2,-1 4,-2 6,-2 3,0 5,1 7,2 2,1 4,2 5,3 2,2 3,4 4,6 0,2 1,5 1,7zm-10 0c0,-3 -1,-5 -2,-7 -1,-1 -3,-2 -5,-2 -2,0 -4,1 -5,2 -1,2 -2,4 -2,7 0,3 1,5 2,7 1,2 3,3 5,3 2,0 4,-1 5,-3 1,-2 2,-4 2,-7zm41 -9l-14 0 0 26 -10 0 0 -34 24 0 0 8zm15 26l-10 0 0 -34 10 0 0 34zm1 -43c0,1 -1,3 -2,4 -1,1 -2,1 -4,1 -2,0 -3,0 -4,-1 -1,-1 -2,-3 -2,-4 0,-2 1,-3 2,-4 1,-1 2,-2 4,-2 2,0 3,1 4,2 1,1 2,2 2,4zm16 9l0 11c0,2 0,3 1,4 1,0 3,1 5,1 0,0 1,0 1,0 1,-1 2,-1 3,-1l0 -15 9 0 0 34 -9 0 0 -11c-1,0 -2,0 -3,0 -1,0 -2,0 -2,0 -3,0 -5,0 -6,0 -2,-1 -4,-1 -5,-2 -1,-1 -2,-2 -3,-4 -1,-1 -1,-3 -1,-6l0 -11 10 0zm57 34l-9 0 0 -13 -10 0 0 13 -10 0 0 -34 10 0 0 13 10 0 0 -13 9 0 0 34zm8 -17c0,-2 0,-5 1,-7 1,-3 2,-4 4,-6 1,-1 3,-3 5,-3 2,-1 4,-2 6,-2 4,0 8,2 11,5 3,3 4,7 4,13 0,0 0,1 0,2 0,0 0,1 0,1l-22 0c1,2 1,4 3,5 2,1 4,2 7,2 1,0 3,0 5,-1 2,0 3,0 4,-1l1 8c0,0 -1,0 -2,1 -1,0 -2,0 -3,0 -1,1 -2,1 -3,1 -1,0 -2,0 -4,0 -3,0 -5,0 -8,-1 -2,-1 -4,-2 -5,-4 -2,-2 -3,-3 -3,-6 -1,-2 -1,-4 -1,-7zm22 -3c0,-1 0,-2 0,-3 -1,0 -1,-1 -2,-2 0,0 -1,-1 -1,-1 -1,0 -2,-1 -3,-1 -1,0 -2,1 -3,1 -1,0 -1,1 -2,1 0,1 -1,2 -1,2 0,1 -1,2 -1,3l13 0zm-564 66c0,1 0,3 0,4 0,1 0,3 -1,4 0,2 0,3 0,4 -1,2 -1,3 -1,4 -1,1 -1,3 -2,4 -1,1 -2,2 -3,3 -1,1 -3,2 -5,2 -1,1 -3,1 -6,2l-1 -8c2,-1 4,-1 5,-2 1,-1 2,-2 3,-3 0,-1 1,-3 1,-4 0,-1 0,-3 0,-4 1,-2 1,-4 1,-5 0,-2 0,-3 0,-5l0 -4 25 0 0 34 -10 0 0 -26 -6 0zm35 26l-10 0 0 -34 10 0 0 34zm0 -44c0,2 0,4 -1,5 -1,1 -3,1 -4,1 -2,0 -3,0 -4,-1 -1,-1 -2,-3 -2,-5 0,-1 1,-3 2,-4 1,-1 2,-1 4,-1 1,0 3,0 4,1 1,1 1,3 1,4zm18 22c1,-1 2,-2 3,-3 1,-1 2,-2 3,-3 1,-1 2,-2 3,-3 1,-1 2,-2 2,-3l12 0c-1,1 -2,2 -3,4 -2,1 -3,2 -4,4 -2,1 -3,3 -5,4 -1,1 -2,3 -4,4 2,1 3,2 5,3 1,2 2,3 4,5 1,2 2,3 4,5 1,2 2,3 3,5l-11 0c-1,-1 -2,-2 -3,-4 -1,-1 -2,-2 -3,-3 -1,-2 -2,-3 -3,-4 -1,-1 -2,-2 -3,-3l0 14 -9 0 0 -34 9 0 0 12zm60 -12c-2,7 -4,13 -6,19 -3,5 -5,11 -7,16 -1,2 -2,4 -3,5 -1,1 -2,2 -3,3 -1,1 -2,2 -4,2 -1,1 -2,1 -4,1 -2,0 -3,0 -4,-1 -2,0 -3,0 -4,-1l2 -7c1,0 2,0 3,1 1,0 1,0 2,0 2,0 3,-1 4,-2 1,-1 2,-2 2,-3 -2,-5 -4,-10 -6,-15 -2,-5 -4,-11 -6,-18l10 0c0,2 1,4 1,6 1,2 2,4 2,6 1,2 2,3 2,5 1,2 2,4 2,5 1,-1 1,-3 2,-5 0,-2 1,-3 2,-5 0,-2 1,-4 1,-6 1,-2 1,-4 2,-6l10 0zm14 27c1,0 2,0 3,0 1,0 2,0 2,0 3,0 4,0 5,-1 2,0 2,-1 2,-2 0,-2 0,-3 -1,-3 -1,-1 -3,-1 -5,-1l-6 0 0 7zm6 -14c1,0 2,0 3,0 1,-1 2,-1 2,-3 0,-1 -1,-2 -2,-2 -1,-1 -2,-1 -4,-1 -1,0 -1,0 -2,0 -1,0 -2,0 -3,0l0 6 6 0zm-1 22c-1,0 -2,0 -4,-1 -1,0 -2,0 -4,0 -1,0 -2,0 -3,0 -2,-1 -2,-1 -3,-1l0 -32c1,0 1,-1 3,-1 1,0 2,0 3,0 2,0 3,0 4,0 2,-1 3,-1 4,-1 3,0 5,1 7,1 2,1 4,2 5,2 1,1 2,2 2,3 1,2 1,3 1,4 0,1 0,3 -1,4 -1,1 -1,2 -3,3 1,0 2,0 2,1 1,0 1,1 2,1 0,1 1,2 1,3 0,1 1,2 1,3 0,1 -1,3 -1,4 -1,1 -2,2 -3,3 -1,1 -3,2 -5,3 -2,0 -5,1 -8,1zm37 -8c1,0 2,0 3,0 0,0 1,0 2,0l0 -7c-1,0 -1,0 -2,0 -1,-1 -2,-1 -2,-1 -1,0 -2,0 -3,1 -1,0 -1,0 -2,0 0,0 -1,1 -1,1 -1,1 -1,2 -1,2 0,2 1,3 2,3 1,1 2,1 4,1zm-1 -28c3,0 5,1 7,1 2,1 4,2 5,3 1,1 2,3 2,4 1,2 1,4 1,6l0 20c-2,0 -3,1 -6,1 -2,0 -5,1 -9,1 -2,0 -4,-1 -6,-1 -1,0 -3,-1 -4,-2 -2,-1 -3,-2 -3,-3 -1,-2 -1,-3 -1,-5 0,-2 0,-4 1,-5 1,-2 2,-3 3,-4 1,-1 3,-1 5,-1 1,-1 3,-1 5,-1 1,0 2,0 3,0 1,0 2,0 3,1l0 -1c0,-2 -1,-3 -2,-4 -1,-1 -3,-2 -5,-2 -2,0 -3,0 -5,1 -1,0 -3,0 -4,1l-1 -8c0,0 1,0 2,-1 1,0 2,0 3,0 1,0 2,0 3,-1 1,0 2,0 3,0zm53 35l-10 0 0 -13 -10 0 0 13 -10 0 0 -34 10 0 0 13 10 0 0 -13 10 0 0 34zm38 0l-10 0 0 -13 -10 0 0 13 -10 0 0 -34 10 0 0 13 10 0 0 -13 10 0 0 34zm22 -12c-1,2 -2,4 -3,6 -1,2 -2,4 -3,6l-10 0c1,-3 2,-5 4,-8 1,-2 2,-4 3,-6 -1,-1 -3,-2 -4,-3 -1,-2 -1,-4 -1,-6 0,-4 1,-6 4,-8 2,-2 6,-3 11,-3 1,0 2,0 3,0 2,0 3,0 4,0 2,0 3,0 4,1 1,0 2,0 3,0l0 33 -10 0 0 -12 -5 0zm5 -15c0,0 -1,0 -2,0 0,0 -1,0 -2,0 -2,0 -4,0 -5,1 -1,1 -1,2 -1,3 0,1 0,1 1,2 0,1 0,1 1,1 0,1 1,1 2,1 0,0 1,0 2,0l4 0 0 -8zm-293 99l0 -45 30 0 0 9 -20 0 0 8 18 0 0 9 -18 0 0 10 22 0 0 9 -32 0zm68 0l-10 0 0 -14 -10 0 0 14 -9 0 0 -34 9 0 0 13 10 0 0 -13 10 0 0 34zm37 -26l-11 0 0 26 -10 0 0 -26 -11 0 0 -8 32 0 0 8zm37 9c0,3 -1,5 -1,7 -1,2 -2,4 -4,6 -1,1 -3,3 -5,3 -2,1 -4,2 -7,2 -2,0 -4,-1 -6,-2 -3,0 -4,-2 -6,-3 -1,-2 -2,-4 -3,-6 -1,-2 -1,-4 -1,-7 0,-3 0,-5 1,-7 1,-3 2,-4 3,-6 2,-1 4,-3 6,-4 2,0 4,-1 6,-1 3,0 5,1 7,1 2,1 4,3 5,4 2,2 3,3 4,6 0,2 1,4 1,7zm-10 0c0,-3 -1,-5 -2,-7 -1,-2 -3,-3 -5,-3 -2,0 -4,1 -5,3 -1,2 -2,4 -2,7 0,3 1,5 2,7 1,2 3,2 5,2 2,0 4,0 5,-2 1,-2 2,-4 2,-7zm14 9l4 0c1,-1 2,-3 3,-5 1,-3 1,-5 1,-7 1,-3 1,-5 1,-8 0,-2 0,-4 0,-6l26 0 0 26 6 0 0 17 -8 0 0 -9 -25 0 0 9 -8 0 0 -17zm26 0l0 -18 -8 0c0,1 0,3 0,5 -1,1 -1,3 -1,4 0,2 -1,3 -1,5 -1,1 -1,3 -2,4l12 0zm52 -9c0,3 0,5 -1,7 -1,2 -2,4 -3,6 -2,1 -4,3 -6,3 -2,1 -4,2 -6,2 -3,0 -5,-1 -7,-2 -2,0 -4,-2 -5,-3 -2,-2 -3,-4 -4,-6 -1,-2 -1,-4 -1,-7 0,-3 0,-5 1,-7 1,-3 2,-4 4,-6 1,-1 3,-3 5,-4 2,0 4,-1 7,-1 2,0 4,1 6,1 2,1 4,3 6,4 1,2 2,3 3,6 1,2 1,4 1,7zm-10 0c0,-3 0,-5 -1,-7 -2,-2 -3,-3 -5,-3 -3,0 -4,1 -5,3 -2,2 -2,4 -2,7 0,3 0,5 2,7 1,2 2,2 5,2 2,0 3,0 5,-2 1,-2 1,-4 1,-7zm47 17l-10 0 0 -14 -10 0 0 14 -9 0 0 -34 9 0 0 13 10 0 0 -13 10 0 0 34zm36 -26l-10 0 0 26 -10 0 0 -26 -11 0 0 -8 31 0 0 8zm37 -8l0 34 -10 0c0,-2 0,-4 0,-7 0,-2 0,-4 0,-5 1,-2 1,-4 1,-5 0,-1 0,-2 0,-3 -2,2 -3,3 -4,5 -1,2 -2,4 -4,5 -1,2 -2,4 -3,5 -1,2 -2,3 -2,5l-9 0 0 -34 10 0c0,2 0,4 0,6 0,2 0,4 0,5 0,2 0,3 -1,5 0,1 0,2 0,2 3,-3 5,-7 8,-10 2,-3 4,-5 6,-8l8 0zm17 0l0 11c0,2 0,3 1,3 1,1 3,1 5,1 0,0 1,0 2,0 0,0 1,0 2,0l0 -15 9 0 0 34 -9 0 0 -11c-1,0 -2,0 -3,0 -1,0 -2,0 -2,0 -2,0 -4,0 -6,0 -2,-1 -4,-2 -5,-2 -1,-1 -2,-3 -3,-4 0,-2 -1,-4 -1,-6l0 -11 10 0zm57 34l-9 0 0 -14 -10 0 0 14 -10 0 0 -34 10 0 0 13 10 0 0 -13 9 0 0 34z"/>
   <path class="fil0" d="M457 176c0,-3 0,-5 1,-8 1,-2 2,-4 4,-5 1,-2 3,-3 5,-4 2,0 4,-1 6,-1 5,0 8,2 11,5 3,3 4,7 4,12 0,1 0,2 0,2 0,1 0,2 0,2l-22 0c1,2 2,4 3,5 2,1 4,1 7,1 2,0 3,0 5,0 2,0 3,-1 4,-1l1 8c0,0 -1,0 -2,0 -1,1 -1,1 -3,1 -1,0 -2,0 -3,1 -1,0 -2,0 -3,0 -4,0 -6,-1 -8,-2 -3,-1 -5,-2 -6,-3 -1,-2 -3,-4 -3,-6 -1,-2 -1,-4 -1,-7zm22 -3c0,-1 0,-2 0,-3 -1,-1 -1,-1 -1,-2 -1,0 -1,-1 -2,-1 -1,-1 -2,-1 -3,-1 -1,0 -2,0 -3,1 -1,0 -1,0 -2,1 0,1 -1,1 -1,2 0,1 0,2 -1,3l13 0zm-461 -3c0,1 0,3 0,4 -1,1 -1,2 -2,3 -1,0 -2,1 -3,2 -1,0 -2,0 -4,0 -1,0 -2,0 -4,0 -1,-1 -2,-2 -3,-2 0,-1 -1,-2 -1,-3 -1,-1 -1,-3 -1,-4 0,-1 0,-2 1,-3 0,-1 1,-2 1,-3 1,-1 2,-2 3,-2 2,-1 3,-1 4,-1 2,0 3,0 4,1 1,0 2,1 3,2 1,1 1,2 2,3 0,1 0,2 0,3zm30 69c0,1 0,2 0,4 0,1 0,2 -1,4 0,1 0,3 0,4 -1,1 -1,2 -1,4 -1,1 -1,2 -2,3 -1,2 -2,3 -3,4 -1,1 -3,1 -5,2 -1,1 -3,1 -6,1l-1 -8c2,0 4,-1 5,-2 1,0 2,-1 3,-3 0,-1 1,-2 1,-3 0,-2 0,-3 0,-5 1,-1 1,-3 1,-5 0,-1 0,-3 0,-4l0 -4 25 0 0 34 -10 0 0 -26 -6 0zm35 26l-10 0 0 -34 10 0 0 34zm0 -44c0,2 0,3 -1,4 -1,1 -3,2 -4,2 -2,0 -3,-1 -4,-2 -1,-1 -2,-2 -2,-4 0,-2 1,-3 2,-4 1,-1 2,-1 4,-1 1,0 3,0 4,1 1,1 1,2 1,4zm18 22c1,-1 2,-2 3,-3 1,-1 2,-2 3,-3 1,-1 2,-2 3,-3 1,-1 2,-2 2,-3l12 0c-1,1 -2,2 -3,3 -2,2 -3,3 -4,4 -2,2 -3,3 -5,5 -1,1 -2,2 -4,3 2,1 3,3 5,4 1,2 2,3 4,5 1,1 2,3 4,5 1,2 2,3 3,5l-11 0c-1,-2 -2,-3 -3,-4 -1,-1 -2,-2 -3,-4 -1,-1 -2,-2 -3,-3 -1,-1 -2,-2 -3,-3l0 14 -9 0 0 -34 9 0 0 12zm60 -12c-2,6 -4,13 -6,18 -3,6 -5,11 -7,17 -1,2 -2,3 -3,5 -1,1 -2,2 -3,3 -1,1 -2,1 -4,2 -1,0 -2,1 -4,1 -2,0 -3,-1 -4,-1 -2,0 -3,0 -4,-1l2 -7c1,0 2,0 3,0 1,0 1,0 2,0 2,0 3,0 4,-1 1,-1 2,-2 2,-4 -2,-4 -4,-9 -6,-14 -2,-5 -4,-11 -6,-18l10 0c0,2 1,3 1,5 1,2 2,4 2,6 1,2 2,4 2,6 1,2 2,4 2,5 1,-1 1,-3 2,-5 0,-2 1,-4 2,-6 0,-2 1,-4 1,-6 1,-2 1,-3 2,-5l10 0zm14 27c1,0 2,0 3,0 1,0 2,0 2,0 3,0 4,0 5,-1 2,0 2,-1 2,-3 0,-1 0,-2 -1,-3 -1,0 -3,0 -5,0l-6 0 0 7zm6 -14c1,0 2,0 3,0 1,-1 2,-2 2,-3 0,-1 -1,-2 -2,-3 -1,0 -2,0 -4,0 -1,0 -1,0 -2,0 -1,0 -2,0 -3,0l0 6 6 0zm-1 21c-1,0 -2,0 -4,0 -1,0 -2,0 -4,0 -1,0 -2,-1 -3,-1 -2,0 -2,0 -3,0l0 -33c1,0 1,0 3,0 1,0 2,0 3,0 2,-1 3,-1 4,-1 2,0 3,0 4,0 3,0 5,0 7,1 2,1 4,1 5,2 1,1 2,2 2,3 1,1 1,2 1,4 0,1 0,2 -1,4 -1,1 -1,2 -3,2 1,1 2,1 2,1 1,1 1,1 2,2 0,1 1,2 1,2 0,1 1,2 1,4 0,1 -1,2 -1,4 -1,1 -2,2 -3,3 -1,1 -3,2 -5,2 -2,1 -5,1 -8,1zm37 -7c1,0 2,0 3,0 0,0 1,0 2,0l0 -8c-1,0 -1,0 -2,0 -1,0 -2,0 -2,0 -1,0 -2,0 -3,0 -1,0 -1,1 -2,1 0,0 -1,1 -1,1 -1,1 -1,1 -1,2 0,2 1,3 2,3 1,1 2,1 4,1zm-1 -28c3,0 5,0 7,1 2,1 4,2 5,3 1,1 2,2 2,4 1,2 1,4 1,6l0 20c-2,0 -3,0 -6,1 -2,0 -5,0 -9,0 -2,0 -4,0 -6,0 -1,-1 -3,-1 -4,-2 -2,-1 -3,-2 -3,-4 -1,-1 -1,-3 -1,-5 0,-2 0,-3 1,-5 1,-1 2,-2 3,-3 1,-1 3,-1 5,-2 1,0 3,0 5,0 1,0 2,0 3,0 1,0 2,0 3,0l0 -1c0,-1 -1,-3 -2,-4 -1,-1 -3,-1 -5,-1 -2,0 -3,0 -5,0 -1,1 -3,1 -4,1l-1 -7c0,-1 1,-1 2,-1 1,0 2,0 3,0 1,-1 2,-1 3,-1 1,0 2,0 3,0zm53 35l-10 0 0 -14 -10 0 0 14 -10 0 0 -34 10 0 0 13 10 0 0 -13 10 0 0 34zm38 0l-10 0 0 -14 -10 0 0 14 -10 0 0 -34 10 0 0 13 10 0 0 -13 10 0 0 34zm22 -12c-1,2 -2,4 -3,6 -1,2 -2,4 -3,6l-10 0c1,-3 2,-6 4,-8 1,-2 2,-4 3,-6 -1,-1 -3,-2 -4,-4 -1,-1 -1,-3 -1,-5 0,-4 1,-7 4,-9 2,-2 6,-3 11,-3 1,0 2,0 3,0 2,0 3,1 4,1 2,0 3,0 4,0 1,0 2,1 3,1l0 33 -10 0 0 -12 -5 0zm5 -15c0,0 -1,0 -2,0 0,0 -1,0 -2,0 -2,0 -4,0 -5,1 -1,1 -1,2 -1,3 0,1 0,1 1,2 0,0 0,1 1,1 0,0 1,1 2,1 0,0 1,0 2,0l4 0 0 -8zm-284 76c0,2 0,4 1,6 0,2 1,3 2,5 1,1 2,2 4,3 1,0 3,1 5,1 1,0 3,-1 5,-1 1,-1 2,-2 3,-3 1,-2 2,-3 3,-5 0,-2 0,-4 0,-6 0,-2 0,-4 0,-6 -1,-1 -2,-3 -3,-4 -1,-1 -2,-2 -3,-3 -2,-1 -4,-1 -5,-1 -2,0 -4,0 -5,1 -2,1 -3,2 -4,3 -1,1 -2,3 -2,4 -1,2 -1,4 -1,6zm34 0c0,4 -1,7 -2,10 -1,3 -3,6 -5,8 -2,1 -4,3 -7,4 -2,1 -5,1 -8,1 -3,0 -6,0 -9,-1 -3,-1 -5,-3 -7,-4 -2,-2 -4,-5 -5,-8 -1,-3 -2,-6 -2,-10 0,-4 1,-7 2,-10 1,-3 3,-5 5,-7 2,-2 4,-3 7,-4 3,-1 6,-2 9,-2 3,0 5,1 8,2 3,1 5,2 7,4 2,2 4,4 5,7 1,3 2,6 2,10zm29 6c0,-3 -1,-5 -2,-7 -1,-2 -3,-3 -6,-3 -1,0 -2,0 -2,0 -1,0 -2,0 -2,0l0 18c1,0 1,0 2,1 1,0 2,0 3,0 5,0 7,-3 7,-9zm10 0c0,2 -1,5 -1,7 -1,2 -2,4 -3,5 -1,2 -3,3 -5,4 -1,1 -4,1 -6,1 -1,0 -3,0 -4,0 -1,0 -2,-1 -3,-1l0 12 -10 0 0 -44c1,0 2,-1 3,-1 1,0 3,0 4,0 1,-1 2,-1 4,-1 1,0 2,0 3,0 3,0 5,0 8,1 2,1 4,2 5,4 2,1 3,3 4,5 0,3 1,5 1,8zm35 -9l-11 0 0 26 -9 0 0 -26 -11 0 0 -8 31 0 0 8zm37 9c0,2 0,5 -1,7 -1,2 -2,4 -3,5 -2,2 -3,3 -5,4 -2,1 -5,1 -7,1 -3,0 -5,0 -7,-1 -2,-1 -4,-2 -5,-4 -2,-1 -3,-3 -4,-5 0,-2 -1,-5 -1,-7 0,-3 1,-5 1,-8 1,-2 2,-4 4,-5 1,-2 3,-3 5,-4 2,-1 4,-1 7,-1 2,0 4,0 6,1 2,1 4,2 6,4 1,1 2,3 3,5 1,3 1,5 1,8zm-9 0c0,-3 -1,-6 -2,-7 -1,-2 -3,-3 -5,-3 -2,0 -4,1 -5,3 -1,1 -2,4 -2,7 0,3 1,5 2,7 1,1 3,2 5,2 2,0 4,-1 5,-2 1,-2 2,-4 2,-7zm46 -17l0 34 -10 0 0 -26 -10 0 0 26 -9 0 0 -34 29 0zm7 17c0,-3 1,-6 1,-8 1,-2 3,-4 4,-6 2,-1 3,-2 5,-3 2,-1 4,-1 6,-1 5,0 9,1 12,4 2,3 4,8 4,13 0,1 0,1 0,2 0,1 0,1 0,2l-22 0c0,2 1,3 3,4 1,2 3,2 6,2 2,0 4,0 5,0 2,-1 3,-1 4,-1l2 7c-1,1 -1,1 -2,1 -1,0 -2,1 -3,1 -1,0 -2,0 -4,0 -1,0 -2,0 -3,0 -3,0 -6,0 -8,-1 -2,-1 -4,-2 -6,-4 -1,-1 -2,-3 -3,-5 -1,-2 -1,-5 -1,-7zm23 -4c-1,-1 -1,-1 -1,-2 0,-1 -1,-2 -1,-2 0,-1 -1,-1 -2,-2 -1,0 -2,0 -3,0 -1,0 -2,0 -2,0 -1,1 -2,1 -2,2 -1,0 -1,1 -2,2 0,1 0,1 0,2l13 0zm13 13l4 0c1,-2 2,-4 3,-6 1,-2 1,-4 1,-7 1,-2 1,-4 1,-7 0,-2 0,-4 0,-6l26 0 0 26 6 0 0 17 -8 0 0 -9 -25 0 0 9 -8 0 0 -17zm26 0l0 -18 -8 0c0,1 0,3 -1,4 0,2 0,3 0,5 0,2 -1,3 -1,5 -1,1 -1,2 -2,4l12 0zm51 -26l0 34 -9 0c0,-3 0,-5 0,-7 0,-2 0,-4 0,-6 0,-2 0,-3 0,-4 0,-2 0,-3 0,-3 -1,1 -2,3 -4,5 -1,2 -2,3 -3,5 -1,2 -2,4 -3,5 -1,2 -2,3 -3,5l-8 0 0 -34 9 0c0,2 0,4 0,6 0,2 0,4 0,5 0,2 0,3 0,4 0,2 0,2 0,3 2,-4 5,-7 7,-10 2,-3 4,-6 6,-8l8 0zm17 0l0 11c0,1 1,2 2,3 1,1 2,1 4,1 1,0 1,0 2,0 1,0 1,0 2,0l0 -15 10 0 0 34 -10 0 0 -12c-1,1 -2,1 -3,1 -1,0 -1,0 -2,0 -2,0 -4,0 -6,-1 -2,0 -3,-1 -4,-2 -2,-1 -3,-2 -3,-3 -1,-2 -1,-4 -1,-6l0 -11 9 0zm58 34l-10 0 0 -14 -10 0 0 14 -9 0 0 -34 9 0 0 12 10 0 0 -12 10 0 0 34zm7 -17c0,-3 1,-6 1,-8 1,-2 3,-4 4,-6 2,-1 3,-2 5,-3 2,-1 4,-1 6,-1 5,0 9,1 12,4 2,3 4,8 4,13 0,1 0,1 0,2 0,1 0,1 0,2l-22 0c0,2 1,3 3,4 1,2 3,2 6,2 2,0 4,0 5,0 2,-1 3,-1 4,-1l2 7c-1,1 -1,1 -2,1 -1,0 -2,1 -3,1 -1,0 -2,0 -4,0 -1,0 -2,0 -3,0 -3,0 -6,0 -8,-1 -2,-1 -4,-2 -6,-4 -1,-1 -2,-3 -3,-5 -1,-2 -1,-5 -1,-7zm22 -4c0,-1 0,-1 0,-2 0,-1 -1,-2 -1,-2 -1,-1 -1,-1 -2,-2 -1,0 -2,0 -3,0 -1,0 -2,0 -2,0 -1,1 -2,1 -2,2 -1,0 -1,1 -2,2 0,1 0,1 0,2l12 0zm-438 -2c0,1 0,2 0,3 -1,1 -1,2 -2,3 -1,1 -2,2 -3,2 -1,1 -2,1 -4,1 -1,0 -2,0 -4,-1 -1,0 -2,-1 -3,-2 0,-1 -1,-2 -1,-3 -1,-1 -1,-2 -1,-3 0,-1 0,-2 1,-4 0,-1 1,-2 1,-2 1,-1 2,-2 3,-2 2,-1 3,-1 4,-1 2,0 3,0 4,1 1,0 2,1 3,2 1,0 1,1 2,2 0,2 0,3 0,4zm30 68c0,2 0,3 0,4 0,2 0,3 -1,5 0,1 0,2 0,4 -1,1 -1,2 -1,3 -1,2 -1,3 -2,4 -1,1 -2,2 -3,3 -1,1 -3,2 -5,3 -1,0 -3,1 -6,1l-1 -8c2,0 4,-1 5,-2 1,-1 2,-2 3,-3 0,-1 1,-2 1,-4 0,-1 0,-2 0,-4 1,-2 1,-3 1,-5 0,-1 0,-3 0,-5l0 -3 25 0 0 33 -10 0 0 -26 -6 0zm35 26l-10 0 0 -33 10 0 0 33zm0 -43c0,2 0,3 -1,4 -1,1 -3,2 -4,2 -2,0 -3,-1 -4,-2 -1,-1 -2,-2 -2,-4 0,-2 1,-3 2,-4 1,-1 2,-2 4,-2 1,0 3,1 4,2 1,1 1,2 1,4zm18 21c1,0 2,-1 3,-3 1,-1 2,-2 3,-3 1,-1 2,-2 3,-3 1,-1 2,-2 2,-2l12 0c-1,1 -2,2 -3,3 -2,1 -3,3 -4,4 -2,2 -3,3 -5,4 -1,2 -2,3 -4,4 2,1 3,2 5,4 1,1 2,3 4,4 1,2 2,4 4,6 1,1 2,3 3,4l-11 0c-1,-1 -2,-2 -3,-3 -1,-2 -2,-3 -3,-4 -1,-1 -2,-2 -3,-3 -1,-2 -2,-2 -3,-3l0 13 -9 0 0 -33 9 0 0 11zm60 -11c-2,6 -4,12 -6,18 -3,6 -5,11 -7,16 -1,2 -2,4 -3,5 -1,2 -2,3 -3,4 -1,1 -2,1 -4,2 -1,0 -2,0 -4,0 -2,0 -3,0 -4,0 -2,0 -3,-1 -4,-1l2 -8c1,1 2,1 3,1 1,0 1,0 2,0 2,0 3,0 4,-1 1,-1 2,-2 2,-4 -2,-4 -4,-9 -6,-14 -2,-6 -4,-12 -6,-18l10 0c0,1 1,3 1,5 1,2 2,4 2,6 1,2 2,4 2,6 1,2 2,3 2,5 1,-2 1,-3 2,-5 0,-2 1,-4 2,-6 0,-2 1,-4 1,-6 1,-2 1,-4 2,-5l10 0zm14 26c1,0 2,0 3,1 1,0 2,0 2,0 3,0 4,-1 5,-1 2,-1 2,-2 2,-3 0,-1 0,-2 -1,-3 -1,0 -3,-1 -5,-1l-6 0 0 7zm6 -13c1,0 2,0 3,-1 1,0 2,-1 2,-2 0,-2 -1,-3 -2,-3 -1,-1 -2,-1 -4,-1 -1,0 -1,0 -2,0 -1,0 -2,0 -3,1l0 6 6 0zm-1 21c-1,0 -2,0 -4,0 -1,0 -2,0 -4,0 -1,-1 -2,-1 -3,-1 -2,0 -2,0 -3,-1l0 -32c1,0 1,0 3,0 1,0 2,-1 3,-1 2,0 3,0 4,0 2,0 3,0 4,0 3,0 5,0 7,1 2,0 4,1 5,2 1,1 2,2 2,3 1,1 1,2 1,3 0,2 0,3 -1,4 -1,2 -1,2 -3,3 1,0 2,1 2,1 1,1 1,1 2,2 0,0 1,1 1,2 0,1 1,2 1,3 0,2 -1,3 -1,4 -1,2 -2,3 -3,4 -1,1 -3,2 -5,2 -2,1 -5,1 -8,1z"/>
   <path class="fil0" d="M217 402c1,0 2,0 3,0 0,0 1,0 2,-1l0 -7c-1,0 -1,0 -2,0 -1,0 -2,0 -2,0 -1,0 -2,0 -3,0 -1,0 -1,0 -2,1 0,0 -1,0 -1,1 -1,0 -1,1 -1,2 0,1 1,2 2,3 1,0 2,1 4,1zm-1 -28c3,0 5,0 7,1 2,0 4,1 5,2 1,2 2,3 2,5 1,2 1,3 1,6l0 19c-2,1 -3,1 -6,1 -2,1 -5,1 -9,1 -2,0 -4,0 -6,-1 -1,0 -3,-1 -4,-1 -2,-1 -3,-2 -3,-4 -1,-1 -1,-3 -1,-5 0,-2 0,-4 1,-5 1,-1 2,-2 3,-3 1,-1 3,-2 5,-2 1,0 3,-1 5,-1 1,0 2,0 3,1 1,0 2,0 3,0l0 -1c0,-2 -1,-3 -2,-4 -1,-1 -3,-1 -5,-1 -2,0 -3,0 -5,0 -1,0 -3,1 -4,1l-1 -8c0,0 1,0 2,0 1,0 2,-1 3,-1 1,0 2,0 3,0 1,0 2,0 3,0zm53 34l-10 0 0 -13 -10 0 0 13 -10 0 0 -33 10 0 0 12 10 0 0 -12 10 0 0 33zm38 0l-10 0 0 -13 -10 0 0 13 -10 0 0 -33 10 0 0 12 10 0 0 -12 10 0 0 33zm22 -12c-1,2 -2,4 -3,6 -1,2 -2,4 -3,6l-10 0c1,-2 2,-5 4,-7 1,-3 2,-5 3,-6 -1,-1 -3,-2 -4,-4 -1,-1 -1,-3 -1,-5 0,-4 1,-7 4,-9 2,-2 6,-3 11,-3 1,0 2,0 3,0 2,0 3,0 4,0 2,1 3,1 4,1 1,0 2,0 3,1l0 32 -10 0 0 -12 -5 0zm5 -15c0,0 -1,0 -2,0 0,0 -1,0 -2,0 -2,0 -4,1 -5,1 -1,1 -1,2 -1,3 0,1 0,2 1,2 0,1 0,1 1,2 0,0 1,0 2,0 0,1 1,1 2,1l4 0 0 -9zm-284 77c0,2 0,4 1,6 0,2 1,3 2,4 1,2 2,3 4,3 1,1 3,1 5,1 1,0 3,0 5,-1 1,0 2,-1 3,-3 1,-1 2,-2 3,-4 0,-2 0,-4 0,-6 0,-2 0,-4 0,-6 -1,-2 -2,-3 -3,-5 -1,-1 -2,-2 -3,-2 -2,-1 -4,-1 -5,-1 -2,0 -4,0 -5,1 -2,0 -3,1 -4,3 -1,1 -2,2 -2,4 -1,2 -1,4 -1,6zm34 0c0,4 -1,7 -2,10 -1,3 -3,5 -5,7 -2,2 -4,4 -7,5 -2,1 -5,1 -8,1 -3,0 -6,0 -9,-1 -3,-1 -5,-3 -7,-5 -2,-2 -4,-4 -5,-7 -1,-3 -2,-6 -2,-10 0,-4 1,-7 2,-10 1,-3 3,-5 5,-7 2,-2 4,-4 7,-5 3,-1 6,-1 9,-1 3,0 5,0 8,1 3,1 5,3 7,5 2,2 4,4 5,7 1,3 2,6 2,10zm29 6c0,-3 -1,-6 -2,-7 -1,-2 -3,-3 -6,-3 -1,0 -2,0 -2,0 -1,0 -2,0 -2,0l0 17c1,1 1,1 2,1 1,1 2,1 3,1 5,0 7,-3 7,-9zm10 -1c0,3 -1,5 -1,7 -1,3 -2,4 -3,6 -1,2 -3,3 -5,4 -1,0 -4,1 -6,1 -1,0 -3,0 -4,-1 -1,0 -2,0 -3,-1l0 13 -10 0 0 -44c1,-1 2,-1 3,-1 1,0 3,-1 4,-1 1,0 2,0 4,0 1,0 2,0 3,0 3,0 5,0 8,1 2,1 4,2 5,3 2,2 3,4 4,6 0,2 1,5 1,7zm35 -9l-11 0 0 26 -9 0 0 -26 -11 0 0 -8 31 0 0 8zm37 9c0,3 0,5 -1,8 -1,2 -2,4 -3,5 -2,2 -3,3 -5,4 -2,1 -5,1 -7,1 -3,0 -5,0 -7,-1 -2,-1 -4,-2 -5,-4 -2,-1 -3,-3 -4,-5 0,-3 -1,-5 -1,-8 0,-2 1,-5 1,-7 1,-2 2,-4 4,-6 1,-1 3,-2 5,-3 2,-1 4,-1 7,-1 2,0 4,0 6,1 2,1 4,2 6,3 1,2 2,4 3,6 1,2 1,5 1,7zm-9 0c0,-3 -1,-5 -2,-7 -1,-1 -3,-2 -5,-2 -2,0 -4,1 -5,2 -1,2 -2,4 -2,7 0,3 1,6 2,7 1,2 3,3 5,3 2,0 4,-1 5,-3 1,-1 2,-4 2,-7zm13 9l5 0c1,-1 2,-3 2,-5 1,-2 2,-4 2,-7 0,-2 0,-5 0,-7 0,-2 0,-5 0,-7l27 0 0 26 5 0 0 18 -8 0 0 -10 -24 0 0 10 -9 0 0 -18zm26 0l0 -18 -8 0c0,2 0,3 0,5 0,2 0,3 -1,5 0,1 0,3 -1,4 0,2 -1,3 -2,4l12 0zm53 -9c0,3 -1,5 -1,8 -1,2 -2,4 -4,5 -1,2 -3,3 -5,4 -2,1 -4,1 -7,1 -2,0 -5,0 -7,-1 -2,-1 -3,-2 -5,-4 -1,-1 -2,-3 -3,-5 -1,-3 -1,-5 -1,-8 0,-2 0,-5 1,-7 1,-2 2,-4 3,-6 2,-1 3,-2 5,-3 3,-1 5,-1 7,-1 3,0 5,0 7,1 2,1 4,2 5,3 2,2 3,4 3,6 1,2 2,5 2,7zm-10 0c0,-3 -1,-5 -2,-7 -1,-1 -3,-2 -5,-2 -2,0 -4,1 -5,2 -1,2 -2,4 -2,7 0,3 1,6 2,7 1,2 3,3 5,3 2,0 4,-1 5,-3 1,-1 2,-4 2,-7zm46 17l-9 0 0 -13 -10 0 0 13 -10 0 0 -34 10 0 0 13 10 0 0 -13 9 0 0 34zm37 -26l-11 0 0 26 -9 0 0 -26 -11 0 0 -8 31 0 0 8zm36 -8l0 34 -9 0c0,-2 0,-4 0,-6 0,-2 0,-4 0,-6 0,-2 0,-3 0,-5 0,-1 0,-2 0,-3 -1,2 -2,4 -3,6 -2,1 -3,3 -4,5 -1,2 -2,3 -3,5 -1,1 -2,3 -3,4l-8 0 0 -34 9 0c0,3 0,5 0,7 0,2 0,3 0,5 0,1 0,3 0,4 0,1 0,2 0,3 2,-4 5,-7 7,-10 2,-3 4,-6 6,-9l8 0zm17 0l0 11c0,2 1,3 2,4 1,0 2,1 4,1 1,0 1,0 2,0 1,0 2,0 2,-1l0 -15 10 0 0 34 -10 0 0 -11c-1,0 -2,0 -3,0 -1,1 -1,1 -2,1 -2,0 -4,-1 -6,-1 -2,0 -3,-1 -4,-2 -2,-1 -3,-2 -3,-4 -1,-1 -1,-3 -1,-6l0 -11 9 0zm58 34l-10 0 0 -13 -10 0 0 13 -9 0 0 -34 9 0 0 13 10 0 0 -13 10 0 0 34zm7 -16c0,-3 1,-6 2,-8 0,-2 2,-4 3,-6 2,-1 3,-2 5,-3 2,-1 4,-1 6,-1 5,0 9,1 12,4 2,3 4,7 4,13 0,0 0,1 0,2 0,0 0,1 0,1l-22 0c0,2 1,4 3,5 1,1 4,2 6,2 2,0 4,0 5,-1 2,0 4,0 5,-1l1 8c-1,0 -1,1 -2,1 -1,0 -2,0 -3,0 -1,1 -2,1 -3,1 -2,0 -3,0 -4,0 -3,0 -6,0 -8,-1 -2,-1 -4,-2 -5,-4 -2,-1 -3,-3 -4,-5 0,-3 -1,-5 -1,-7zm23 -4c0,-1 -1,-2 -1,-2 0,-1 0,-2 -1,-2 0,-1 -1,-2 -2,-2 0,0 -1,-1 -3,-1 -1,0 -2,1 -2,1 -1,0 -2,1 -2,1 -1,1 -1,2 -1,3 -1,0 -1,1 -1,2l13 0zm-474 -2c0,1 0,2 0,3 -1,1 -1,2 -2,3 -1,1 -2,1 -3,2 -1,0 -2,1 -4,1 -1,0 -2,-1 -4,-1 -1,-1 -2,-1 -3,-2 0,-1 -1,-2 -1,-3 -1,-1 -1,-2 -1,-3 0,-2 0,-3 1,-4 0,-1 1,-2 1,-3 1,-1 2,-1 3,-2 2,0 3,-1 4,-1 2,0 3,1 4,1 1,1 2,1 3,2 1,1 1,2 2,3 0,1 0,2 0,4zm30 68c0,1 0,3 0,4 0,1 0,3 -1,4 0,2 0,3 0,4 -1,2 -1,3 -1,4 -1,1 -1,3 -2,4 -1,1 -2,2 -3,3 -1,1 -3,2 -5,2 -1,1 -3,1 -6,2l-1 -8c2,-1 4,-1 5,-2 1,-1 2,-2 3,-3 0,-1 1,-2 1,-4 0,-1 0,-3 0,-4 1,-2 1,-4 1,-5 0,-2 0,-3 0,-5l0 -4 25 0 0 34 -10 0 0 -26 -6 0zm35 26l-10 0 0 -34 10 0 0 34zm0 -43c0,1 0,3 -1,4 -1,1 -3,1 -4,1 -2,0 -3,0 -4,-1 -1,-1 -2,-3 -2,-4 0,-2 1,-4 2,-5 1,-1 2,-1 4,-1 1,0 3,0 4,1 1,1 1,3 1,5zm18 21c1,-1 2,-2 3,-3 1,-1 2,-2 3,-3 1,-1 2,-2 3,-3 1,-1 2,-2 2,-3l12 0c-1,1 -2,2 -3,4 -2,1 -3,2 -4,4 -2,1 -3,3 -5,4 -1,1 -2,3 -4,4 2,1 3,2 5,3 1,2 2,4 4,5 1,2 2,4 4,5 1,2 2,4 3,5l-11 0c-1,-1 -2,-2 -3,-4 -1,-1 -2,-2 -3,-3 -1,-2 -2,-3 -3,-4 -1,-1 -2,-2 -3,-3l0 14 -9 0 0 -34 9 0 0 12zm60 -12c-2,7 -4,13 -6,19 -3,5 -5,11 -7,16 -1,2 -2,4 -3,5 -1,1 -2,3 -3,3 -1,1 -2,2 -4,2 -1,1 -2,1 -4,1 -2,0 -3,0 -4,-1 -2,0 -3,0 -4,0l2 -8c1,0 2,1 3,1 1,0 1,0 2,0 2,0 3,-1 4,-2 1,0 2,-2 2,-3 -2,-5 -4,-9 -6,-15 -2,-5 -4,-11 -6,-18l10 0c0,2 1,4 1,6 1,2 2,4 2,6 1,2 2,4 2,5 1,2 2,4 2,6 1,-2 1,-4 2,-6 0,-1 1,-3 2,-5 0,-2 1,-4 1,-6 1,-2 1,-4 2,-6l10 0zm14 27c1,0 2,0 3,0 1,0 2,0 2,0 3,0 4,0 5,0 2,-1 2,-2 2,-3 0,-2 0,-3 -1,-3 -1,-1 -3,-1 -5,-1l-6 0 0 7zm6 -13c1,0 2,-1 3,-1 1,0 2,-1 2,-3 0,-1 -1,-2 -2,-2 -1,-1 -2,-1 -4,-1 -1,0 -1,0 -2,0 -1,0 -2,0 -3,0l0 7 6 0zm-1 21c-1,0 -2,0 -4,0 -1,-1 -2,-1 -4,-1 -1,0 -2,0 -3,0 -2,0 -2,-1 -3,-1l0 -32c1,0 1,0 3,-1 1,0 2,0 3,0 2,0 3,0 4,0 2,0 3,0 4,0 3,0 5,0 7,0 2,1 4,2 5,3 1,0 2,1 2,3 1,1 1,2 1,3 0,1 0,3 -1,4 -1,1 -1,2 -3,3 1,0 2,0 2,1 1,0 1,1 2,2 0,0 1,1 1,2 0,1 1,2 1,3 0,1 -1,3 -1,4 -1,1 -2,2 -3,3 -1,1 -3,2 -5,3 -2,0 -5,1 -8,1zm37 -8c1,0 2,0 3,0 0,0 1,0 2,0l0 -7c-1,0 -1,0 -2,0 -1,0 -2,0 -2,0 -1,0 -2,0 -3,0 -1,0 -1,0 -2,0 0,1 -1,1 -1,1 -1,1 -1,2 -1,2 0,2 1,3 2,4 1,0 2,0 4,0zm-1 -28c3,0 5,1 7,1 2,1 4,2 5,3 1,1 2,3 2,5 1,1 1,3 1,5l0 20c-2,0 -3,1 -6,1 -2,1 -5,1 -9,1 -2,0 -4,0 -6,-1 -1,0 -3,-1 -4,-2 -2,-1 -3,-2 -3,-3 -1,-2 -1,-3 -1,-5 0,-2 0,-4 1,-5 1,-2 2,-3 3,-4 1,0 3,-1 5,-1 1,-1 3,-1 5,-1 1,0 2,0 3,0 1,0 2,1 3,1l0 -1c0,-2 -1,-3 -2,-4 -1,-1 -3,-2 -5,-2 -2,0 -3,1 -5,1 -1,0 -3,0 -4,1l-1 -8c0,0 1,0 2,0 1,-1 2,-1 3,-1 1,0 2,0 3,0 1,0 2,-1 3,-1zm53 35l-10 0 0 -13 -10 0 0 13 -10 0 0 -34 10 0 0 13 10 0 0 -13 10 0 0 34zm22 -12c-1,2 -2,4 -3,6 -1,2 -2,4 -3,6l-10 0c1,-3 2,-5 4,-8 1,-2 2,-4 3,-6 -1,0 -3,-2 -4,-3 -1,-2 -1,-3 -1,-6 0,-3 1,-6 4,-8 2,-2 6,-3 11,-3 1,0 2,0 3,0 2,0 3,0 4,0 2,0 3,1 4,1 1,0 2,0 3,0l0 33 -10 0 0 -12 -5 0zm5 -15c0,0 -1,0 -2,0 -1,0 -1,0 -2,0 -2,0 -4,0 -5,1 -1,1 -1,2 -1,3 0,1 0,2 1,2 0,1 0,1 1,1 0,1 1,1 2,1 0,0 1,0 2,0l4 0 0 -8zm-229 99c-1,-3 -3,-5 -4,-8 -2,-2 -3,-4 -5,-6 -1,1 -2,2 -3,3 0,1 -1,2 -2,3 -1,2 -2,3 -3,5 -1,1 -1,2 -2,3l-11 0c2,-4 4,-7 7,-11 2,-4 5,-7 8,-12l-14 -22 12 0 8 13 9 -13 11 0 -14 22c4,5 7,9 9,13 3,4 4,7 6,10l-12 0zm27 0l-10 0 0 -34 10 0 0 34zm0 -44c0,2 0,4 -1,5 -1,1 -3,1 -4,1 -2,0 -3,0 -4,-1 -1,-1 -2,-3 -2,-5 0,-1 1,-3 2,-4 1,-1 2,-1 4,-1 1,0 3,0 4,1 1,1 1,3 1,4zm30 27c0,-3 -1,-5 -2,-7 -1,-2 -3,-2 -6,-2 -1,0 -1,0 -2,0 -1,0 -1,0 -2,0l0 17c1,1 1,1 2,1 1,0 2,0 3,0 5,0 7,-3 7,-9zm10 0c0,3 0,5 -1,7 -1,2 -2,4 -3,6 -1,1 -3,2 -4,3 -2,1 -4,2 -7,2 -1,0 -2,-1 -4,-1 -1,0 -2,0 -3,-1l0 13 -9 0 0 -45c0,0 1,0 3,0 1,-1 2,-1 3,-1 1,0 2,0 4,0 1,-1 2,-1 3,-1 3,0 6,1 8,2 2,1 4,2 5,3 2,2 3,4 4,6 1,2 1,4 1,7zm37 -17c-2,7 -4,13 -6,18 -2,6 -4,12 -7,17 -1,2 -1,4 -2,5 -1,1 -2,2 -3,3 -1,1 -3,2 -4,2 -1,1 -3,1 -5,1 -1,0 -3,0 -4,-1 -1,0 -2,0 -3,-1l2 -7c1,0 2,0 2,0 1,1 2,1 3,1 2,0 3,-1 4,-2 1,-1 1,-2 2,-4 -2,-4 -4,-9 -6,-14 -3,-5 -5,-11 -7,-18l11 0c0,2 0,4 1,6 1,2 1,4 2,6 1,1 1,3 2,5 1,2 1,4 2,5 0,-1 1,-3 2,-5 0,-2 1,-4 1,-5 1,-2 1,-4 2,-6 0,-2 1,-4 1,-6l10 0zm27 17c0,-3 -1,-5 -2,-7 -1,-2 -3,-2 -6,-2 -1,0 -2,0 -2,0 -1,0 -2,0 -2,0l0 17c0,1 1,1 2,1 1,0 2,0 3,0 5,0 7,-3 7,-9zm10 0c0,3 -1,5 -1,7 -1,2 -2,4 -3,6 -1,1 -3,2 -5,3 -2,1 -4,2 -6,2 -1,0 -3,-1 -4,-1 -1,0 -2,0 -3,-1l0 13 -10 0 0 -45c1,0 2,0 3,0 1,-1 3,-1 4,-1 1,0 2,0 3,0 2,-1 3,-1 4,-1 3,0 5,1 8,2 2,1 4,2 5,3 2,2 3,4 3,6 1,2 2,4 2,7zm31 -9l-14 0 0 26 -10 0 0 -34 24 0 0 8zm15 26l-10 0 0 -34 10 0 0 34zm1 -44c0,2 -1,4 -2,5 -1,1 -3,1 -4,1 -2,0 -3,0 -4,-1 -1,-1 -2,-3 -2,-5 0,-1 1,-3 2,-4 1,-1 2,-1 4,-1 1,0 3,0 4,1 1,1 2,3 2,4zm22 32c-2,2 -3,4 -4,6 -1,2 -2,4 -3,6l-10 0c1,-3 3,-5 4,-8 1,-2 2,-4 4,-6 -2,-1 -4,-2 -5,-3 -1,-2 -1,-4 -1,-6 0,-4 1,-6 4,-8 2,-3 6,-4 11,-4 1,0 2,1 4,1 1,0 2,0 3,0 2,0 3,0 4,1 1,0 2,0 3,0l0 33 -9 0 0 -12 -5 0zm5 -15c-1,0 -2,0 -2,0 -1,0 -2,0 -3,0 -2,0 -4,0 -5,1 0,1 -1,2 -1,3 0,1 0,1 1,2 0,1 0,1 1,1 1,1 1,1 2,1 1,0 1,0 2,0l5 0 0 -8z"/>
   <path class="fil0" d="M18 601c0,2 0,3 0,4 -1,1 -1,2 -2,3 -1,0 -2,1 -3,2 -1,0 -2,0 -4,0 -1,0 -2,0 -4,0 -1,-1 -2,-2 -3,-2 0,-1 -1,-2 -1,-3 -1,-1 -1,-2 -1,-4 0,-1 0,-2 1,-3 0,-1 1,-2 1,-3 1,-1 2,-2 3,-2 2,-1 3,-1 4,-1 2,0 3,0 4,1 1,0 2,1 3,2 1,1 1,2 2,3 0,1 0,2 0,3zm23 50l10 0 0 45 -10 0 0 -45zm30 25c-1,2 -1,3 -1,5 0,2 0,4 0,5 0,2 0,4 0,6 0,1 0,3 0,4l-10 0c0,-3 1,-5 1,-8 0,-3 0,-6 0,-9 1,-3 1,-6 1,-9 0,-3 1,-6 1,-8l8 0c2,3 3,6 5,9 2,4 3,7 5,11 2,-4 3,-8 5,-11 2,-4 3,-7 5,-9l8 0c0,2 0,5 1,8 0,3 0,6 1,9 0,3 0,6 0,9 0,3 0,5 1,8l-10 0c0,-4 0,-7 0,-10 0,-3 -1,-7 -1,-10l-7 16 -6 0 -7 -16zm68 -14l0 34 -10 0 0 -26 -10 0 0 26 -9 0 0 -34 29 0zm24 8c0,1 0,2 0,4 0,1 0,3 -1,4 0,1 0,3 0,4 -1,1 -1,3 -1,4 -1,1 -1,2 -2,4 -1,1 -2,2 -3,3 -1,1 -3,1 -5,2 -1,1 -3,1 -6,1l-1 -8c2,0 4,-1 5,-1 1,-1 2,-2 3,-3 0,-2 1,-3 1,-4 0,-2 0,-3 0,-5 1,-1 1,-3 1,-4 0,-2 0,-4 0,-5l0 -4 25 0 0 34 -10 0 0 -26 -6 0zm38 19c1,0 2,0 3,0 0,0 1,0 2,0l0 -7c-1,0 -1,-1 -2,-1 -1,0 -2,0 -2,0 -1,0 -2,0 -3,0 -1,0 -1,1 -2,1 0,0 -1,1 -1,1 -1,1 -1,1 -1,2 0,2 1,3 2,3 1,1 2,1 4,1zm-1 -28c3,0 5,0 7,1 2,1 4,2 5,3 1,1 2,3 2,4 1,2 1,4 1,6l0 20c-2,0 -3,0 -6,1 -2,0 -5,0 -9,0 -2,0 -4,0 -6,0 -1,0 -3,-1 -4,-2 -2,-1 -3,-2 -3,-3 -1,-2 -1,-4 -1,-6 0,-2 0,-3 1,-5 1,-1 2,-2 3,-3 1,-1 3,-1 5,-2 1,0 3,0 5,0 1,0 2,0 3,0 1,0 2,0 3,0l0 -1c0,-1 -1,-2 -2,-3 -1,-1 -3,-2 -5,-2 -2,0 -3,0 -5,0 -1,1 -3,1 -4,1l-1 -7c0,0 1,-1 2,-1 1,0 2,0 3,0 1,0 2,-1 3,-1 1,0 2,0 3,0zm52 35l-9 0 0 -14 -10 0 0 14 -10 0 0 -34 10 0 0 13 10 0 0 -13 9 0 0 34zm37 -26l-10 0 0 26 -10 0 0 -26 -11 0 0 -8 31 0 0 8zm19 19c1,0 2,0 3,0 1,0 1,0 2,0l0 -7c-1,0 -1,-1 -2,-1 -1,0 -1,0 -2,0 -1,0 -2,0 -3,0 0,0 -1,1 -2,1 0,0 -1,1 -1,1 0,1 -1,1 -1,2 0,2 1,3 2,3 1,1 2,1 4,1zm-1 -28c3,0 5,0 7,1 2,1 4,2 5,3 1,1 2,3 2,4 1,2 1,4 1,6l0 20c-1,0 -3,0 -6,1 -2,0 -5,0 -9,0 -2,0 -4,0 -6,0 -1,0 -3,-1 -4,-2 -1,-1 -2,-2 -3,-3 -1,-2 -1,-4 -1,-6 0,-2 0,-3 1,-5 1,-1 2,-2 3,-3 2,-1 3,-1 5,-2 1,0 3,0 5,0 1,0 2,0 3,0 1,0 2,0 3,0l0 -1c0,-1 -1,-2 -2,-3 -1,-1 -2,-2 -5,-2 -1,0 -3,0 -5,0 -1,1 -3,1 -4,1l-1 -7c1,0 1,-1 2,-1 1,0 2,0 3,0 1,0 2,-1 3,-1 1,0 2,0 3,0zm53 27l5 0 0 17 -8 0 0 -9 -26 0 0 -34 9 0 0 26 10 0 0 -26 10 0 0 26zm21 8l-10 0 0 -34 10 0 0 34zm1 -44c0,2 -1,3 -2,4 -1,1 -3,2 -4,2 -2,0 -3,-1 -4,-2 -1,-1 -2,-2 -2,-4 0,-1 1,-3 2,-4 1,-1 2,-1 4,-1 1,0 3,0 4,1 1,1 2,3 2,4zm22 32c-2,2 -3,4 -4,6 -1,2 -2,4 -3,6l-10 0c1,-3 3,-6 4,-8 1,-2 2,-4 4,-6 -2,-1 -4,-2 -5,-3 -1,-2 -1,-4 -1,-6 0,-4 1,-7 4,-9 2,-2 6,-3 11,-3 1,0 2,0 3,0 2,1 3,1 4,1 2,0 3,0 4,0 1,1 2,1 3,1l0 33 -10 0 0 -12 -4 0zm4 -15c0,0 -1,0 -1,0 -1,0 -2,0 -3,0 -2,0 -4,0 -5,1 0,1 -1,2 -1,3 0,1 0,1 1,2 0,0 0,1 1,1 1,0 1,1 2,1 1,0 1,0 2,0l4 0 0 -8zm-390 4c0,1 0,3 0,4 -1,1 -1,2 -2,3 -1,0 -2,1 -3,2 -1,0 -2,0 -4,0 -1,0 -2,0 -4,0 -1,-1 -2,-2 -3,-2 0,-1 -1,-2 -1,-3 -1,-1 -1,-3 -1,-4 0,-1 0,-2 1,-3 0,-1 1,-2 1,-3 1,-1 2,-2 3,-2 2,-1 3,-1 4,-1 2,0 3,0 4,1 1,0 2,1 3,2 1,1 1,2 2,3 0,1 0,2 0,3z"/>
  </g>
 </g>
</svg>
