<?xml version="1.0" encoding="UTF-8"?>
<!DOCTYPE svg PUBLIC "-//W3C//DTD SVG 1.1//EN" "http://www.w3.org/Graphics/SVG/1.1/DTD/svg11.dtd">
<!-- Creator: CorelDRAW X7 -->
<svg xmlns="http://www.w3.org/2000/svg" xml:space="preserve" width="23.9335mm" height="27.1711mm" version="1.1" style="shape-rendering:geometricPrecision; text-rendering:geometricPrecision; image-rendering:optimizeQuality; fill-rule:evenodd; clip-rule:evenodd"
viewBox="0 0 2393 2717"
 xmlns:xlink="http://www.w3.org/1999/xlink">
 <defs>
  <style type="text/css">
   <![CDATA[
    .fil0 {fill:#FEFEFE;fill-rule:nonzero}
   ]]>
  </style>
 </defs>
 <g id="Слой_x0020_1">
  <metadata id="CorelCorpID_0Corel-Layer"/>
  <path class="fil0" d="M69 100c0,8 0,12 0,16 -3,3 -3,7 -7,11 -4,4 -8,4 -12,8 -4,0 -8,4 -15,4 -4,0 -8,-4 -16,-4 -4,-4 -7,-4 -11,-8 0,-4 -4,-8 -4,-11 -4,-4 -4,-8 -4,-16 0,-4 0,-7 4,-11 0,-4 4,-8 4,-12 4,-4 7,-4 11,-8 8,0 12,-3 16,-3 7,0 11,3 15,3 4,4 8,4 12,8 4,4 4,8 7,12 0,4 0,7 0,11zm232 -81l0 170 -39 0 0 -139 -65 0 0 139 -39 0 0 -170 143 0zm84 143c4,0 8,0 12,0 4,0 8,0 8,0l0 -27c0,0 -4,0 -8,0 0,0 -4,0 -8,0 -4,0 -4,0 -7,0 -4,0 -8,0 -8,0 -4,4 -4,4 -8,8 0,0 0,3 0,3 0,8 0,12 4,16 4,0 12,0 15,0l0 0zm0 -108c8,0 20,4 27,4 8,4 12,8 16,11 4,4 8,12 11,20 0,3 0,11 0,19l0 77c-3,0 -11,4 -19,4 -11,4 -23,4 -35,4 -7,0 -15,0 -23,-4 -7,0 -11,-4 -19,-8 -4,-4 -8,-8 -12,-11 0,-8 -3,-12 -3,-20 0,-7 3,-15 7,-19 0,-8 4,-12 12,-15 4,0 11,-4 15,-4 8,-4 16,-4 23,-4 4,0 8,0 12,0 4,0 8,4 8,4l0 -4c0,-8 0,-12 -4,-16 -4,-3 -12,-7 -19,-7 -8,0 -16,4 -20,4 -7,0 -11,0 -15,3l-8 -30c4,0 8,0 12,0 0,-4 4,-4 7,-4 4,0 8,0 12,0 4,0 12,-4 15,-4l0 0zm174 69c0,-7 -4,-19 -8,-27 -8,-3 -15,-7 -23,-7 -4,0 -8,0 -12,0 0,0 -3,0 -3,0l0 65c0,4 3,4 7,4 4,4 8,4 12,4 15,0 27,-12 27,-39l0 0zm35 0c0,12 0,20 -4,27 0,8 -4,16 -8,23 -8,4 -12,12 -19,12 -8,4 -16,8 -23,8 -8,0 -12,0 -16,-4 -4,0 -8,0 -11,-4l0 50 -39 0 0 -169c4,-4 8,-4 12,-4 3,0 7,-4 11,-4 8,0 12,0 16,0 3,0 11,0 15,0 12,0 19,0 27,4 8,4 15,7 23,11 4,8 8,16 12,23 4,8 4,20 4,27zm80 39c4,0 4,0 8,0 4,0 8,0 8,0l0 -27c0,0 -4,0 -4,0 -4,0 -8,0 -12,0 0,0 -3,0 -7,0 -4,0 -8,0 -8,0 -4,4 -4,4 -8,8 0,0 0,3 0,3 0,8 0,12 4,16 4,0 12,0 19,0zm-3 -108c11,0 19,4 27,4 7,4 11,8 15,11 8,4 8,12 12,20 0,3 3,11 3,19l0 77c-7,0 -15,4 -23,4 -11,4 -23,4 -34,4 -8,0 -16,0 -24,-4 -7,0 -11,-4 -19,-8 -4,-4 -8,-8 -11,-11 0,-8 -4,-12 -4,-20 0,-7 4,-15 8,-19 0,-8 7,-12 11,-15 4,0 12,-4 15,-4 8,-4 16,-4 24,-4 3,0 7,0 11,0 4,0 8,4 8,4l0 -4c0,-8 0,-12 -4,-16 -4,-3 -12,-7 -19,-7 -8,0 -12,4 -20,4 -7,0 -11,0 -15,3l-4 -30c0,0 4,0 8,0 4,-4 4,-4 8,-4 3,0 7,0 15,0 4,0 8,-4 12,-4l0 0zm77 104l15 0c4,-4 8,-12 12,-19 4,-8 4,-20 4,-27 3,-8 3,-19 3,-27 0,-12 0,-19 0,-27l101 0 0 100 23 0 0 69 -31 0 0 -38 -96 0 0 38 -31 0 0 -69zm100 0l0 -69 -31 0c0,7 0,11 -4,19 0,4 0,11 0,19 0,4 -4,12 -4,16 -3,7 -3,11 -7,15l46 0 0 0zm200 -35c0,12 0,20 -4,27 -3,12 -7,20 -11,23 -8,8 -16,12 -23,16 -8,4 -16,4 -23,4 -12,0 -20,0 -27,-4 -8,-4 -16,-8 -20,-16 -7,-3 -11,-11 -15,-23 -4,-7 -4,-15 -4,-27 0,-7 0,-19 4,-27 4,-7 8,-15 15,-23 4,-4 12,-7 20,-11 7,-4 15,-8 27,-8 7,0 15,4 23,8 7,4 15,7 23,11 4,8 8,16 11,23 4,8 4,20 4,27zm-38 0c0,-11 0,-19 -4,-27 -8,-3 -12,-7 -19,-7 -12,0 -16,3 -20,7 -7,8 -7,16 -7,27 0,12 0,20 7,27 4,8 8,12 20,12 7,0 11,-4 19,-12 4,-7 4,-15 4,-27zm181 66l-39 0 0 -50 -38 0 0 50 -35 0 0 -131 35 0 0 50 38 0 0 -50 39 0 0 131zm139 -100l-39 0 0 100 -38 0 0 -100 -43 0 0 -31 120 0 0 31 0 0zm146 34c0,12 -4,20 -4,27 -4,12 -7,20 -15,23 -4,8 -12,12 -19,16 -8,4 -16,4 -27,4 -8,0 -20,0 -27,-4 -8,-4 -12,-8 -20,-16 -4,-3 -7,-11 -11,-23 -4,-7 -4,-15 -4,-27 0,-7 0,-19 4,-27 4,-7 7,-15 11,-23 8,-4 16,-7 23,-11 8,-4 16,-8 24,-8 11,0 19,4 27,8 7,4 15,7 19,11 8,8 11,16 15,23 0,8 4,20 4,27l0 0zm-38 0c0,-11 -4,-19 -8,-27 -4,-3 -12,-7 -19,-7 -8,0 -16,3 -20,7 -4,8 -7,16 -7,27 0,12 3,20 7,27 4,8 12,12 20,12 7,0 15,-4 19,-12 4,-7 8,-15 8,-27zm123 -34c0,3 0,11 0,15 0,8 0,12 0,15 0,8 -4,12 -4,16 0,8 -4,11 -4,15 -4,4 -4,12 -8,16 -3,4 -7,7 -11,11 -4,4 -12,8 -16,8 -7,4 -15,4 -23,8l-7 -31c7,-4 15,-4 19,-8 8,-4 8,-8 11,-11 0,-4 4,-8 4,-16 0,-4 4,-11 4,-15 0,-8 0,-12 0,-19 0,-8 0,-12 0,-20l0 -15 97 0 0 131 -35 0 0 -100 -27 0 0 0zm220 34c0,12 -4,20 -4,27 -4,12 -8,20 -16,23 -4,8 -11,12 -19,16 -8,4 -15,4 -27,4 -8,0 -15,0 -23,-4 -12,-4 -15,-8 -23,-16 -4,-3 -8,-11 -12,-23 -4,-7 -4,-15 -4,-27 0,-7 0,-19 4,-27 4,-7 8,-15 12,-23 8,-4 15,-7 23,-11 8,-4 15,-8 23,-8 12,0 19,4 27,8 8,4 15,7 19,11 8,8 12,16 16,23 0,8 4,20 4,27zm-39 0c0,-11 -4,-19 -8,-27 -4,-3 -11,-7 -19,-7 -8,0 -15,3 -19,7 -4,8 -8,16 -8,27 0,12 4,20 8,27 4,8 11,12 19,12 8,0 15,-4 19,-12 4,-7 8,-15 8,-27zm158 -34l-54 0 0 100 -38 0 0 -131 92 0 0 31zm58 100l-39 0 0 -131 39 0 0 131zm4 -166c0,4 -4,12 -8,16 -4,3 -8,3 -15,3 -8,0 -12,0 -16,-3 -4,-4 -8,-12 -8,-16 0,-8 4,-11 8,-15 4,-4 8,-8 16,-8 7,0 11,4 15,8 4,4 8,7 8,15zm61 35l0 42c0,8 0,12 4,16 4,0 12,3 19,3 0,0 4,0 4,0 4,-3 8,-3 12,-3l0 -58 35 0 0 131 -35 0 0 -43c-4,0 -8,0 -12,0 -4,0 -7,0 -7,0 -12,0 -20,0 -23,0 -8,-3 -16,-3 -20,-7 -4,-4 -7,-8 -11,-16 -4,-4 -4,-11 -4,-23l0 -42 38 0 0 0zm220 131l-35 0 0 -50 -38 0 0 50 -39 0 0 -131 39 0 0 50 38 0 0 -50 35 0 0 131zm31 -66c0,-7 0,-19 4,-27 4,-11 7,-15 15,-23 4,-4 12,-11 19,-11 8,-4 16,-8 24,-8 15,0 30,8 42,19 11,12 15,27 15,50 0,0 0,4 0,8 0,0 0,4 0,4l-84 0c3,8 3,15 11,19 8,4 16,8 27,8 4,0 12,0 19,-4 8,0 12,0 16,-4l4 31c0,0 -4,0 -8,4 -4,0 -8,0 -12,0 -3,4 -7,4 -11,4 -4,0 -8,0 -16,0 -11,0 -19,0 -30,-4 -8,-4 -16,-8 -20,-16 -7,-7 -11,-11 -11,-23 -4,-7 -4,-15 -4,-27zm85 -11c0,-4 0,-8 0,-12 -4,0 -4,-4 -8,-7 0,0 -4,-4 -4,-4 -4,0 -8,-4 -11,-4 -4,0 -8,4 -12,4 -4,0 -4,4 -8,4 0,3 -4,7 -4,7 0,4 -3,8 -3,12l50 0 0 0zm-2174 254c0,4 0,12 0,16 0,3 0,11 -4,15 0,8 0,12 0,15 -4,8 -4,12 -4,16 -4,4 -4,11 -7,15 -4,4 -8,8 -12,12 -4,4 -12,8 -19,8 -4,3 -12,3 -23,7l-4 -31c7,-3 15,-3 19,-7 4,-4 8,-8 12,-12 0,-4 3,-11 3,-15 0,-4 0,-12 0,-16 4,-7 4,-15 4,-19 0,-8 0,-12 0,-19l0 -16 97 0 0 131 -39 0 0 -100 -23 0 0 0zm135 100l-39 0 0 -131 39 0 0 131zm0 -169c0,7 0,15 -4,19 -4,4 -12,4 -15,4 -8,0 -12,0 -16,-4 -4,-4 -8,-12 -8,-19 0,-4 4,-12 8,-16 4,-4 8,-4 16,-4 3,0 11,0 15,4 4,4 4,12 4,16zm69 85c4,-4 8,-8 12,-12 4,-4 8,-8 11,-12 4,-3 8,-7 12,-11 4,-4 8,-8 8,-12l46 0c-4,4 -8,8 -12,16 -7,4 -11,7 -15,15 -8,4 -12,12 -19,16 -4,3 -8,11 -16,15 8,4 12,8 19,12 4,7 8,11 16,19 4,8 8,11 15,19 4,8 8,12 12,19l-42 0c-4,-3 -8,-7 -12,-15 -4,-4 -8,-8 -12,-12 -3,-7 -7,-11 -11,-15 -4,-4 -8,-8 -12,-12l0 54 -34 0 0 -131 34 0 0 47 0 0zm231 -47c-7,27 -15,50 -23,74 -11,19 -19,42 -27,61 -3,8 -7,16 -11,19 -4,4 -8,8 -12,12 -4,4 -7,8 -15,8 -4,4 -8,4 -16,4 -7,0 -11,0 -15,-4 -8,0 -12,0 -15,-4l7 -27c4,0 8,0 12,4 4,0 4,0 8,0 7,0 11,-4 15,-8 4,-4 8,-8 8,-12 -8,-19 -16,-38 -23,-57 -8,-20 -16,-43 -24,-70l39 0c0,8 4,16 4,23 4,8 8,16 8,24 3,7 7,11 7,19 4,8 8,15 8,19 4,-4 4,-11 8,-19 0,-8 4,-12 7,-19 0,-8 4,-16 4,-24 4,-7 4,-15 8,-23l39 0 -1 0zm54 104c4,0 8,0 12,0 4,0 8,0 8,0 11,0 15,0 19,-3 8,0 8,-4 8,-8 0,-8 0,-12 -4,-12 -4,-4 -12,-4 -19,-4l-24 0 0 27 0 0zm24 -54c3,0 7,0 11,0 4,-3 8,-3 8,-11 0,-4 -4,-8 -8,-8 -4,-4 -8,-4 -15,-4 -4,0 -4,0 -8,0 -4,0 -8,0 -12,0l0 23 24 0 0 0zm-4 85c-4,0 -8,0 -16,-4 -4,0 -7,0 -15,0 -4,0 -8,0 -12,0 -7,-4 -7,-4 -11,-4l0 -123c4,0 4,-4 11,-4 4,0 8,0 12,0 8,0 11,0 15,0 8,-4 12,-4 16,-4 11,0 19,4 27,4 7,4 15,8 19,8 4,4 8,8 8,12 4,7 4,11 4,15 0,4 0,12 -4,15 -4,4 -4,8 -12,12 4,0 8,0 8,4 4,0 4,4 8,4 0,4 3,7 3,11 0,4 4,8 4,12 0,4 -4,11 -4,15 -3,4 -7,8 -11,12 -4,4 -12,7 -19,11 -8,0 -20,4 -31,4l0 0zm142 -31c4,0 8,0 12,0 0,0 4,0 8,0l0 -27c-4,0 -4,0 -8,0 -4,-3 -8,-3 -8,-3 -4,0 -8,0 -11,3 -4,0 -4,0 -8,0 0,0 -4,4 -4,4 -4,4 -4,8 -4,8 0,8 4,12 8,12 4,3 8,3 15,3l0 0zm-4 -108c12,0 20,4 27,4 8,4 16,8 20,12 4,4 7,11 7,15 4,8 4,16 4,23l0 77c-7,0 -11,4 -23,4 -8,0 -19,4 -35,4 -7,0 -15,-4 -23,-4 -4,0 -11,-4 -15,-7 -8,-4 -12,-8 -12,-12 -3,-8 -3,-11 -3,-19 0,-8 0,-16 3,-19 4,-8 8,-12 12,-16 4,-4 11,-4 19,-4 4,-4 12,-4 19,-4 4,0 8,0 12,0 4,0 8,0 12,4l0 -4c0,-7 -4,-11 -8,-15 -4,-4 -12,-8 -19,-8 -8,0 -12,0 -20,4 -4,0 -11,0 -15,4l-4 -31c0,0 4,0 8,-4 4,0 7,0 11,0 4,0 8,0 12,-4 4,0 8,0 11,0l0 0zm205 135l-39 0 0 -50 -38 0 0 50 -39 0 0 -131 39 0 0 50 38 0 0 -50 39 0 0 131zm146 0l-38 0 0 -50 -39 0 0 50 -38 0 0 -131 38 0 0 50 39 0 0 -50 38 0 0 131zm85 -46c-4,8 -8,16 -12,23 -3,8 -7,16 -11,23l-39 0c4,-11 8,-19 16,-30 4,-8 7,-16 11,-24 -4,-3 -11,-7 -15,-11 -4,-8 -4,-16 -4,-23 0,-16 4,-23 15,-31 8,-8 24,-12 43,-12 4,0 8,0 11,0 8,0 12,0 16,0 8,0 11,0 15,4 4,0 8,0 12,0l0 127 -39 0 0 -46 -19 0 0 0zm19 -58c0,0 -4,0 -7,0 0,0 -4,0 -8,0 -8,0 -16,0 -19,4 -4,4 -4,8 -4,12 0,4 0,4 4,7 0,4 0,4 3,4 0,4 4,4 8,4 0,0 4,0 8,0l15 0 0 -31 0 0z"/>
  <path class="fil0" d="M69 655c0,4 0,12 0,16 -3,3 -3,7 -7,11 -4,0 -8,4 -12,8 -4,0 -8,0 -15,0 -4,0 -8,0 -16,0 -4,-4 -7,-8 -11,-8 0,-4 -4,-8 -4,-11 -4,-4 -4,-12 -4,-16 0,-4 0,-8 4,-11 0,-4 4,-8 4,-12 4,-4 7,-8 11,-8 8,-3 12,-3 16,-3 7,0 11,0 15,3 4,0 8,4 12,8 4,4 4,8 7,12 0,3 0,7 0,11zm116 266c0,4 0,8 0,16 0,3 0,7 -4,15 0,4 0,12 0,15 -4,4 -4,8 -4,16 -4,4 -4,8 -7,11 -4,8 -8,12 -12,16 -4,4 -12,4 -19,7 -4,4 -12,4 -23,4l-4 -30c7,0 15,-4 19,-8 4,0 8,-4 12,-12 0,-4 3,-7 3,-11 0,-8 0,-12 0,-20 4,-3 4,-11 4,-19 0,-4 0,-11 0,-15l0 -16 97 0 0 131 -39 0 0 -100 -23 0 0 0zm135 100l-39 0 0 -131 39 0 0 131zm0 -169c0,7 0,11 -4,15 -4,4 -12,8 -15,8 -8,0 -12,-4 -16,-8 -4,-4 -8,-8 -8,-15 0,-8 4,-12 8,-16 4,-4 8,-4 16,-4 3,0 11,0 15,4 4,4 4,8 4,16zm69 85c4,-4 8,-8 12,-12 4,-4 8,-8 11,-12 4,-3 8,-7 12,-11 4,-4 8,-8 8,-12l46 0c-4,4 -8,8 -12,12 -7,8 -11,11 -15,15 -8,8 -12,12 -19,20 -4,3 -8,7 -16,11 8,4 12,12 19,16 4,7 8,11 16,19 4,4 8,11 15,19 4,8 8,12 12,19l-42 0c-4,-7 -8,-11 -12,-15 -4,-4 -8,-8 -12,-16 -3,-3 -7,-7 -11,-11 -4,-4 -8,-8 -12,-12l0 54 -34 0 0 -131 34 0 0 47 0 0zm231 -47c-7,23 -15,50 -23,70 -11,23 -19,42 -27,65 -3,8 -7,12 -11,19 -4,4 -8,8 -12,12 -4,4 -7,4 -15,8 -4,0 -8,4 -16,4 -7,0 -11,-4 -15,-4 -8,0 -12,0 -15,-4l7 -27c4,0 8,0 12,0 4,0 4,0 8,0 7,0 11,0 15,-4 4,-4 8,-8 8,-15 -8,-16 -16,-35 -23,-54 -8,-20 -16,-43 -24,-70l39 0c0,8 4,12 4,20 4,7 8,15 8,23 3,7 7,15 7,23 4,8 8,15 8,19 4,-4 4,-11 8,-19 0,-8 4,-16 7,-23 0,-8 4,-16 4,-23 4,-8 4,-12 8,-20l39 0 -1 0zm54 104c4,0 8,0 12,0 4,0 8,0 8,0 11,0 15,0 19,-4 8,0 8,-3 8,-11 0,-4 0,-8 -4,-12 -4,0 -12,0 -19,0l-24 0 0 27 0 0zm24 -54c3,0 7,0 11,0 4,-3 8,-7 8,-11 0,-4 -4,-8 -8,-12 -4,0 -8,0 -15,0 -4,0 -4,0 -8,0 -4,0 -8,0 -12,0l0 23 24 0 0 0zm-4 81c-4,0 -8,0 -16,0 -4,0 -7,0 -15,0 -4,0 -8,-4 -12,-4 -7,0 -7,0 -11,0l0 -127c4,0 4,0 11,0 4,0 8,0 12,0 8,-4 11,-4 15,-4 8,0 12,0 16,0 11,0 19,0 27,4 7,4 15,4 19,8 4,4 8,8 8,12 4,3 4,7 4,15 0,4 0,8 -4,15 -4,4 -4,8 -12,8 4,4 8,4 8,4 4,4 4,4 8,8 0,4 3,7 3,7 0,4 4,8 4,16 0,4 -4,8 -4,15 -3,4 -7,8 -11,12 -4,4 -12,7 -19,7 -8,4 -20,4 -31,4l0 0zm142 -27c4,0 8,0 12,0 0,0 4,0 8,0l0 -30c-4,0 -4,0 -8,0 -4,0 -8,0 -8,0 -4,0 -8,0 -11,0 -4,0 -4,3 -8,3 0,0 -4,4 -4,4 -4,4 -4,4 -4,8 0,8 4,11 8,11 4,4 8,4 15,4l0 0zm-4 -108c12,0 20,0 27,4 8,4 16,8 20,12 4,4 7,8 7,15 4,8 4,16 4,23l0 77c-7,0 -11,0 -23,4 -8,0 -19,0 -35,0 -7,0 -15,0 -23,0 -4,-4 -11,-4 -15,-7 -8,-4 -12,-8 -12,-16 -3,-4 -3,-11 -3,-19 0,-8 0,-12 3,-19 4,-4 8,-8 12,-12 4,-4 11,-4 19,-8 4,0 12,0 19,0 4,0 8,0 12,0 4,0 8,0 12,0l0 -3c0,-4 -4,-12 -8,-16 -4,-4 -12,-4 -19,-4 -8,0 -12,0 -20,0 -4,4 -11,4 -15,4l-4 -27c0,-4 4,-4 8,-4 4,0 7,0 11,0 4,-4 8,-4 12,-4 4,0 8,0 11,0l0 0zm205 135l-39 0 0 -54 -38 0 0 54 -39 0 0 -131 39 0 0 50 38 0 0 -50 39 0 0 131zm146 0l-38 0 0 -54 -39 0 0 54 -38 0 0 -131 38 0 0 50 39 0 0 -50 38 0 0 131zm85 -46c-4,8 -8,15 -12,23 -3,8 -7,16 -11,23l-39 0c4,-11 8,-23 16,-31 4,-7 7,-15 11,-23 -4,-3 -11,-7 -15,-15 -4,-4 -4,-12 -4,-19 0,-16 4,-27 15,-35 8,-8 24,-12 43,-12 4,0 8,0 11,0 8,0 12,4 16,4 8,0 11,0 15,0 4,0 8,4 12,4l0 127 -39 0 0 -46 -19 0 0 0zm19 -58c0,0 -4,0 -7,0 0,0 -4,0 -8,0 -8,0 -16,0 -19,4 -4,4 -4,8 -4,12 0,4 0,4 4,7 0,0 0,4 3,4 0,0 4,4 8,4 0,0 4,0 8,0l15 0 0 -31 0 0zm-1218 293c0,4 0,8 0,12 -3,4 -3,7 -7,11 -4,4 -8,8 -12,8 -4,4 -8,4 -15,4 -4,0 -8,0 -16,-4 -4,0 -7,-4 -11,-8 0,-4 -4,-7 -4,-11 -4,-4 -4,-8 -4,-12 0,-4 0,-8 4,-15 0,-4 4,-8 4,-8 4,-4 7,-8 11,-8 8,-4 12,-4 16,-4 7,0 11,0 15,4 4,0 8,4 12,8 4,0 4,4 7,8 0,7 0,11 0,15z"/>
  <path class="fil0" d="M193 1215c0,8 0,16 4,23 0,8 3,12 7,16 4,7 8,11 16,11 4,4 11,4 19,4 4,0 12,0 19,-4 4,0 8,-4 12,-11 4,-4 7,-8 11,-16 0,-7 0,-15 0,-23 0,-8 0,-15 0,-23 -4,-8 -7,-12 -11,-19 -4,-4 -8,-8 -12,-8 -7,-4 -15,-4 -19,-4 -8,0 -15,0 -19,4 -8,0 -12,4 -16,12 -4,3 -7,7 -7,15 -4,8 -4,15 -4,23zm131 0c0,16 -4,27 -8,39 -4,11 -12,19 -19,27 -8,7 -16,15 -27,19 -8,4 -19,4 -31,4 -12,0 -23,0 -35,-4 -11,-4 -19,-12 -27,-19 -7,-8 -15,-16 -19,-27 -4,-12 -8,-23 -8,-39 0,-15 4,-27 8,-38 4,-12 12,-20 19,-27 8,-8 16,-16 27,-20 12,-3 23,-3 35,-3 12,0 19,0 31,3 11,4 19,12 27,20 7,7 15,15 19,27 4,11 8,23 8,38zm112 23c0,-11 -4,-23 -8,-27 -4,-7 -12,-11 -23,-11 -4,0 -8,0 -8,0 -4,0 -8,0 -8,0l0 65c4,4 4,4 8,4 4,4 8,4 12,4 19,0 27,-12 27,-35l0 0zm38 -4c0,12 -4,20 -4,27 -4,12 -8,16 -11,24 -4,7 -12,11 -20,15 -3,0 -15,4 -23,4 -4,0 -11,0 -15,-4 -4,0 -8,0 -12,-4l0 50 -38 0 0 -169c4,-4 7,-4 11,-4 4,0 12,-4 16,-4 4,0 7,0 15,0 4,0 8,0 12,0 11,0 19,0 31,4 7,4 15,7 19,11 7,8 11,16 15,23 0,8 4,20 4,27l0 0zm135 -34l-42 0 0 100 -35 0 0 -100 -43 0 0 -31 120 0 0 31 0 0zm143 34c0,12 0,20 -4,31 -4,8 -8,16 -12,20 -8,7 -11,11 -19,15 -8,4 -19,4 -27,4 -12,0 -19,0 -27,-4 -8,-4 -16,-8 -19,-15 -8,-4 -12,-12 -16,-20 0,-11 -4,-19 -4,-31 0,-7 4,-19 4,-27 4,-7 8,-15 16,-23 3,-4 11,-7 19,-11 8,-4 15,-4 27,-4 8,0 15,0 23,4 8,4 15,7 23,11 4,8 8,16 12,23 4,8 4,20 4,27l0 0zm-35 0c0,-11 -4,-19 -8,-27 -4,-3 -11,-7 -19,-7 -8,0 -16,4 -19,7 -4,8 -8,16 -8,27 0,12 4,24 8,27 3,8 11,12 19,12 8,0 15,-4 19,-12 4,-3 8,-15 8,-27zm50 35l19 0c4,-4 8,-11 8,-19 4,-8 8,-16 8,-27 0,-8 0,-19 0,-27 0,-8 0,-19 0,-27l104 0 0 100 19 0 0 69 -31 0 0 -38 -92 0 0 38 -35 0 0 -69zm100 0l0 -69 -31 0c0,7 0,11 0,19 0,8 0,12 -4,19 0,4 0,12 -3,16 0,7 -4,11 -8,15l46 0 0 0zm204 -35c0,12 -3,20 -3,31 -4,8 -8,16 -16,20 -4,7 -11,11 -19,15 -8,4 -16,4 -27,4 -8,0 -19,0 -27,-4 -8,-4 -12,-8 -19,-15 -4,-4 -8,-12 -12,-20 -4,-11 -4,-19 -4,-31 0,-7 0,-19 4,-27 4,-7 8,-15 12,-23 7,-4 11,-7 19,-11 11,-4 19,-4 27,-4 11,0 19,0 27,4 8,4 15,7 19,11 8,8 12,16 12,23 4,8 7,20 7,27zm-38 0c0,-11 -4,-19 -8,-27 -4,-3 -11,-7 -19,-7 -8,0 -16,4 -19,7 -4,8 -8,16 -8,27 0,12 4,24 8,27 3,8 11,12 19,12 8,0 15,-4 19,-12 4,-3 8,-15 8,-27zm177 66l-35 0 0 -50 -38 0 0 50 -39 0 0 -131 39 0 0 50 38 0 0 -50 35 0 0 131zm143 -100l-43 0 0 100 -34 0 0 -100 -43 0 0 -31 120 0 0 31 0 0zm139 -31l0 131 -35 0c0,-8 0,-15 0,-23 0,-8 0,-16 0,-23 0,-8 0,-12 0,-20 0,-3 0,-7 0,-11 -4,8 -8,15 -12,23 -7,4 -11,12 -15,19 -4,8 -8,12 -12,20 -4,3 -7,11 -11,15l-31 0 0 -131 35 0c0,11 0,19 0,27 0,8 0,11 0,19 0,4 0,12 0,16 0,3 0,7 0,11 7,-15 19,-27 27,-38 7,-12 15,-24 23,-35l31 0 0 0zm65 0l0 42c0,8 4,12 8,16 4,0 7,4 15,4 4,0 4,0 8,0 4,0 8,0 8,-4l0 -58 38 0 0 131 -38 0 0 -42c-4,0 -8,0 -12,0 -4,3 -4,3 -8,3 -7,0 -15,-3 -23,-3 -8,0 -11,-4 -15,-8 -8,-4 -12,-8 -12,-16 -4,-3 -4,-11 -4,-23l0 -42 35 0 0 0zm224 131l-39 0 0 -50 -39 0 0 50 -34 0 0 -131 34 0 0 50 39 0 0 -50 39 0 0 131zm27 -62c0,-11 3,-23 7,-31 0,-7 8,-15 12,-23 8,-4 11,-7 19,-11 8,-4 16,-4 23,-4 19,0 35,4 46,15 8,12 16,27 16,50 0,0 0,4 0,8 0,0 0,4 0,4l-85 0c0,8 4,15 12,19 3,4 15,8 23,8 7,0 15,0 19,-4 8,0 15,0 19,-4l4 31c-4,0 -4,4 -8,4 -3,0 -7,0 -11,0 -4,4 -8,4 -12,4 -7,0 -11,0 -15,0 -12,0 -23,0 -31,-4 -8,-4 -15,-8 -19,-15 -8,-4 -12,-12 -16,-20 0,-11 -3,-19 -3,-27l0 0zm88 -15c0,-4 -4,-8 -4,-8 0,-4 0,-8 -4,-8 0,-3 -3,-7 -7,-7 0,0 -4,-4 -12,-4 -4,0 -7,4 -7,4 -4,0 -8,4 -8,4 -4,3 -4,7 -4,11 -4,0 -4,4 -4,8l50 0 0 0zm-1827 -8c0,4 0,8 0,12 -3,4 -3,7 -7,11 -4,4 -8,4 -12,8 -4,0 -8,4 -15,4 -4,0 -8,-4 -16,-4 -4,-4 -7,-4 -11,-8 0,-4 -4,-7 -4,-11 -4,-4 -4,-8 -4,-12 0,-8 0,-11 4,-15 0,-4 4,-8 4,-12 4,-4 7,-4 11,-8 8,0 12,-3 16,-3 7,0 11,3 15,3 4,4 8,4 12,8 4,4 4,8 7,12 0,4 0,7 0,15zm116 262c0,4 0,12 0,16 0,4 0,11 -4,15 0,8 0,12 0,15 -4,8 -4,12 -4,16 -4,4 -4,11 -7,15 -4,4 -8,8 -12,12 -4,4 -12,8 -19,8 -4,3 -12,3 -23,7l-4 -31c7,-3 15,-3 19,-7 4,-4 8,-8 12,-12 0,-4 3,-7 3,-15 0,-4 0,-12 0,-16 4,-7 4,-15 4,-19 0,-8 0,-11 0,-19l0 -16 97 0 0 131 -39 0 0 -100 -23 0 0 0zm135 100l-39 0 0 -131 39 0 0 131zm0 -165c0,4 0,11 -4,15 -4,4 -12,4 -15,4 -8,0 -12,0 -16,-4 -4,-4 -8,-11 -8,-15 0,-8 4,-16 8,-20 4,-3 8,-3 16,-3 3,0 11,0 15,3 4,4 4,12 4,20zm69 81c4,-4 8,-8 12,-12 4,-4 8,-8 11,-11 4,-4 8,-8 12,-12 4,-4 8,-8 8,-12l46 0c-4,4 -8,8 -12,16 -7,4 -11,8 -15,15 -8,4 -12,12 -19,16 -4,4 -8,11 -16,15 8,4 12,8 19,12 4,7 8,15 16,19 4,8 8,15 15,19 4,8 8,16 12,19l-42 0c-4,-3 -8,-7 -12,-15 -4,-4 -8,-8 -12,-12 -3,-7 -7,-11 -11,-15 -4,-4 -8,-8 -12,-12l0 54 -34 0 0 -131 34 0 0 47 0 0zm231 -47c-7,27 -15,50 -23,74 -11,19 -19,42 -27,61 -3,8 -7,16 -11,20 -4,3 -8,11 -12,11 -4,4 -7,8 -15,8 -4,4 -8,4 -16,4 -7,0 -11,0 -15,-4 -8,0 -12,0 -15,0l7 -31c4,0 8,4 12,4 4,0 4,0 8,0 7,0 11,-4 15,-8 4,0 8,-8 8,-11 -8,-20 -16,-35 -23,-58 -8,-20 -16,-43 -24,-70l39 0c0,8 4,16 4,24 4,7 8,15 8,23 3,7 7,15 7,19 4,8 8,15 8,23 4,-8 4,-15 8,-23 0,-4 4,-12 7,-19 0,-8 4,-16 4,-23 4,-8 4,-16 8,-24l39 0 -1 0zm54 104c4,0 8,0 12,0 4,0 8,0 8,0 11,0 15,0 19,0 8,-3 8,-7 8,-11 0,-8 0,-12 -4,-12 -4,-4 -12,-4 -19,-4l-24 0 0 27 0 0zm24 -50c3,0 7,-3 11,-3 4,0 8,-4 8,-12 0,-4 -4,-8 -8,-8 -4,-4 -8,-4 -15,-4 -4,0 -4,0 -8,0 -4,0 -8,0 -12,0l0 27 24 0 0 0zm-4 81c-4,0 -8,0 -16,0 -4,-4 -7,-4 -15,-4 -4,0 -8,0 -12,0 -7,0 -7,-3 -11,-3l0 -124c4,0 4,0 11,-4 4,0 8,0 12,0 8,0 11,0 15,0 8,0 12,0 16,0 11,0 19,0 27,0 7,4 15,8 19,12 4,0 8,4 8,12 4,3 4,7 4,11 0,4 0,12 -4,16 -4,3 -4,7 -12,11 4,0 8,0 8,4 4,0 4,4 8,8 0,0 3,3 3,7 0,4 4,8 4,12 0,4 -4,11 -4,15 -3,4 -7,8 -11,12 -4,4 -12,8 -19,11 -8,0 -20,4 -31,4l0 0zm142 -31c4,0 8,0 12,0 0,0 4,0 8,0l0 -27c-4,0 -4,0 -8,0 -4,0 -8,0 -8,0 -4,0 -8,0 -11,0 -4,0 -4,0 -8,0 0,4 -4,4 -4,4 -4,4 -4,8 -4,8 0,8 4,12 8,15 4,0 8,0 15,0l0 0zm-4 -107c12,0 20,3 27,3 8,4 16,8 20,12 4,4 7,12 7,19 4,4 4,12 4,19l0 78c-7,0 -11,3 -23,3 -8,4 -19,4 -35,4 -7,0 -15,0 -23,-4 -4,0 -11,-3 -15,-7 -8,-4 -12,-8 -12,-12 -3,-8 -3,-11 -3,-19 0,-8 0,-16 3,-19 4,-8 8,-12 12,-16 4,0 11,-4 19,-4 4,-4 12,-4 19,-4 4,0 8,0 12,0 4,0 8,4 12,4l0 -4c0,-7 -4,-11 -8,-15 -4,-4 -12,-8 -19,-8 -8,0 -12,4 -20,4 -4,0 -11,0 -15,4l-4 -31c0,0 4,0 8,0 4,-4 7,-4 11,-4 4,0 8,0 12,0 4,0 8,-3 11,-3l0 0zm205 134l-39 0 0 -50 -38 0 0 50 -39 0 0 -131 39 0 0 50 38 0 0 -50 39 0 0 131zm85 -46c-4,8 -8,16 -12,23 -4,8 -8,16 -12,23l-38 0c4,-11 8,-19 15,-30 4,-8 8,-16 12,-24 -4,0 -12,-7 -16,-11 -3,-8 -3,-12 -3,-23 0,-12 3,-23 15,-31 8,-8 23,-12 42,-12 4,0 8,0 12,0 8,0 12,0 15,0 8,0 12,4 16,4 4,0 7,0 11,0l0 127 -38 0 0 -46 -19 0 0 0zm19 -58c0,0 -4,0 -8,0 -4,0 -4,0 -8,0 -7,0 -15,0 -19,4 -4,4 -4,8 -4,12 0,4 0,7 4,7 0,4 0,4 4,4 0,4 4,4 8,4 0,0 4,0 7,0l16 0 0 -31 0 0zm-883 602c-4,-12 -11,-19 -15,-31 -8,-8 -12,-15 -19,-23 -4,4 -8,8 -12,12 0,3 -4,7 -8,11 -4,8 -7,12 -11,19 -4,4 -4,8 -8,12l-42 0c7,-15 15,-27 27,-42 7,-16 19,-27 30,-47l-54 -85 47 0 31 51 34 -51 43 0 -54 85c15,20 27,35 34,50 12,16 16,27 23,39l-46 0 0 0zm104 0l-38 0 0 -131 38 0 0 131zm0 -170c0,8 0,16 -4,20 -3,3 -11,3 -15,3 -8,0 -12,0 -15,-3 -4,-4 -8,-12 -8,-20 0,-4 4,-11 8,-15 3,-4 7,-4 15,-4 4,0 12,0 15,4 4,4 4,11 4,15zm116 104c0,-11 -4,-19 -8,-27 -4,-7 -11,-7 -23,-7 -4,0 -4,0 -8,0 -3,0 -3,0 -7,0l0 65c3,4 3,4 7,4 4,0 8,0 12,0 19,0 27,-11 27,-35l0 0zm38 0c0,12 0,20 -3,27 -4,8 -8,16 -12,24 -4,3 -12,7 -15,11 -8,4 -16,8 -27,8 -4,0 -8,-4 -16,-4 -4,0 -8,0 -11,-4l0 50 -35 0 0 -173c0,0 4,0 12,0 3,-4 7,-4 11,-4 4,0 8,0 15,0 4,-4 8,-4 12,-4 12,0 23,4 31,8 8,4 15,7 19,11 8,8 12,16 16,23 3,8 3,16 3,27l0 0zm143 -65c-8,27 -15,50 -23,69 -8,23 -16,47 -27,66 -4,7 -4,15 -8,19 -4,4 -7,8 -11,12 -4,3 -12,7 -16,7 -4,4 -11,4 -19,4 -4,0 -12,0 -15,-4 -4,0 -8,0 -12,-4l8 -27c4,0 7,0 7,0 4,4 8,4 12,4 8,0 12,-4 15,-7 4,-4 4,-8 8,-16 -8,-15 -15,-34 -23,-54 -12,-19 -19,-42 -27,-69l42 0c0,8 0,15 4,23 4,8 4,15 8,23 4,4 4,12 8,19 4,8 4,16 7,20 0,-4 4,-12 8,-20 0,-7 4,-15 4,-19 4,-8 4,-15 8,-23 0,-8 3,-15 3,-23l39 0 0 0zm104 65c0,-11 -4,-19 -8,-27 -3,-7 -11,-7 -23,-7 -4,0 -7,0 -7,0 -4,0 -8,0 -8,0l0 65c0,4 4,4 8,4 3,0 7,0 11,0 19,0 27,-11 27,-35l0 0zm39 0c0,12 -4,20 -4,27 -4,8 -8,16 -12,24 -4,3 -11,7 -19,11 -8,4 -15,8 -23,8 -4,0 -12,-4 -16,-4 -3,0 -7,0 -11,-4l0 50 -39 0 0 -173c4,0 8,0 12,0 4,-4 11,-4 15,-4 4,0 8,0 12,0 8,-4 11,-4 15,-4 12,0 20,4 31,8 8,4 16,7 19,11 8,8 12,16 12,23 4,8 8,16 8,27l0 0zm119 -34l-54 0 0 100 -38 0 0 -131 92 0 0 31zm58 100l-39 0 0 -131 39 0 0 131zm4 -170c0,8 -4,16 -8,20 -4,3 -11,3 -15,3 -8,0 -12,0 -16,-3 -4,-4 -7,-12 -7,-20 0,-4 3,-11 7,-15 4,-4 8,-4 16,-4 3,0 11,0 15,4 4,4 8,11 8,15zm85 124c-8,7 -12,15 -16,23 -4,8 -8,15 -11,23l-39 0c4,-12 12,-19 15,-31 4,-8 8,-15 16,-23 -8,-4 -16,-8 -19,-12 -4,-7 -4,-15 -4,-23 0,-15 4,-23 15,-31 8,-11 23,-15 43,-15 3,0 7,4 15,4 4,0 8,0 12,0 7,0 11,0 15,4 4,0 8,0 12,0l0 127 -35 0 0 -46 -19 0 0 0zm19 -58c-4,0 -8,0 -8,0 -4,0 -8,0 -11,0 -8,0 -16,0 -20,4 0,4 -4,7 -4,11 0,4 0,4 4,8 0,4 0,4 4,4 4,4 4,4 8,4 4,0 4,0 8,0l19 0 0 -31 0 0z"/>
  <path class="fil0" d="M69 1996c0,8 0,12 0,16 -3,4 -3,7 -7,11 -4,0 -8,4 -12,8 -4,0 -8,0 -15,0 -4,0 -8,0 -16,0 -4,-4 -7,-8 -11,-8 0,-4 -4,-7 -4,-11 -4,-4 -4,-8 -4,-16 0,-4 0,-7 4,-11 0,-4 4,-8 4,-12 4,-4 7,-8 11,-8 8,-3 12,-3 16,-3 7,0 11,0 15,3 4,0 8,4 12,8 4,4 4,8 7,12 0,4 0,7 0,11zm89 513l39 0 0 173 -39 0 0 -173zm116 96c-4,8 -4,12 -4,20 0,7 0,15 0,19 0,8 0,15 0,23 0,4 0,12 0,15l-39 0c0,-11 4,-19 4,-30 0,-12 0,-24 0,-35 4,-12 4,-23 4,-35 0,-11 4,-23 4,-31l31 0c7,12 11,23 19,35 8,15 11,27 19,42 8,-15 12,-30 19,-42 8,-15 12,-27 20,-35l31 0c0,8 0,20 3,31 0,12 0,23 4,35 0,11 0,23 0,35 0,11 0,19 4,30l-38 0c0,-15 0,-27 0,-38 0,-12 -4,-27 -4,-39l-27 62 -23 0 -27 -62 0 0zm262 -54l0 131 -39 0 0 -100 -38 0 0 100 -35 0 0 -131 112 0zm92 31c0,4 0,8 0,16 0,3 0,11 -4,15 0,4 0,12 0,15 -3,4 -3,12 -3,16 -4,4 -4,8 -8,15 -4,4 -8,8 -12,12 -4,4 -11,4 -19,8 -4,3 -12,3 -23,3l-4 -30c8,0 15,-4 19,-4 4,-4 8,-8 12,-12 0,-8 4,-11 4,-15 0,-8 0,-12 0,-20 4,-3 4,-11 4,-15 0,-8 0,-15 0,-19l0 -16 96 0 0 131 -39 0 0 -100 -23 0 0 0zm147 73c4,0 7,0 11,0 0,0 4,0 8,0l0 -27c-4,0 -4,-3 -8,-3 -4,0 -7,0 -7,0 -4,0 -8,0 -12,0 -4,0 -4,3 -8,3 0,0 -4,4 -4,4 -3,4 -3,4 -3,8 0,8 3,12 7,12 4,3 8,3 16,3l0 0zm-4 -107c11,0 19,0 27,3 7,4 15,8 19,12 4,4 8,11 8,15 4,8 4,16 4,23l0 78c-8,0 -12,0 -24,3 -7,0 -19,0 -34,0 -8,0 -16,0 -23,0 -4,0 -12,-3 -16,-7 -7,-4 -11,-8 -11,-12 -4,-8 -4,-15 -4,-23 0,-8 0,-12 4,-19 4,-4 7,-8 11,-12 4,-4 12,-4 20,-8 3,0 11,0 19,0 4,0 8,0 11,0 4,0 8,0 12,0l0 -3c0,-4 -4,-8 -8,-12 -4,-4 -11,-8 -19,-8 -8,0 -12,0 -19,0 -4,4 -12,4 -16,4l-4 -27c0,0 4,-4 8,-4 4,0 8,0 12,0 4,0 7,-3 11,-3 4,0 8,0 12,0l0 0zm200 134l-34 0 0 -54 -39 0 0 54 -39 0 0 -131 39 0 0 50 39 0 0 -50 34 0 0 131zm143 -100l-39 0 0 100 -38 0 0 -100 -43 0 0 -31 120 0 0 31 0 0zm73 73c4,0 8,0 12,0 3,0 3,0 7,0l0 -27c-4,0 -4,-3 -7,-3 -4,0 -4,0 -8,0 -4,0 -8,0 -12,0 0,0 -4,3 -7,3 0,0 -4,4 -4,4 0,4 -4,4 -4,8 0,8 4,12 8,12 3,3 7,3 15,3l0 0zm-4 -107c12,0 19,0 27,3 8,4 16,8 19,12 4,4 8,11 8,15 4,8 4,16 4,23l0 78c-4,0 -12,0 -23,3 -8,0 -19,0 -35,0 -8,0 -15,0 -23,0 -4,0 -11,-3 -15,-7 -4,-4 -8,-8 -12,-12 -4,-8 -4,-15 -4,-23 0,-8 0,-12 4,-19 4,-4 8,-8 12,-12 7,-4 11,-4 19,-8 4,0 11,0 19,0 4,0 8,0 12,0 4,0 7,0 11,0l0 -3c0,-4 -4,-8 -7,-12 -4,-4 -8,-8 -20,-8 -4,0 -11,0 -19,0 -4,4 -12,4 -15,4l-4 -27c4,0 4,-4 7,-4 4,0 8,0 12,0 4,0 8,-3 12,-3 3,0 7,0 11,0l0 0zm204 104l20 0 0 65 -31 0 0 -35 -100 0 0 -131 34 0 0 101 39 0 0 -101 38 0 0 101zm81 30l-38 0 0 -131 38 0 0 131zm4 -169c0,8 -4,11 -7,15 -4,4 -12,8 -16,8 -8,0 -11,-4 -15,-8 -4,-4 -8,-7 -8,-15 0,-4 4,-12 8,-16 4,-3 7,-3 15,-3 4,0 12,0 16,3 3,4 7,12 7,16zm85 123c-8,8 -12,16 -15,23 -4,8 -8,16 -12,23l-38 0c3,-11 11,-23 15,-30 4,-8 8,-16 15,-24 -7,-3 -15,-7 -19,-11 -4,-8 -4,-16 -4,-23 0,-16 4,-27 16,-35 7,-8 23,-11 42,-11 4,0 8,0 12,0 7,3 11,3 15,3 8,0 12,0 15,0 4,4 8,4 12,4l0 127 -39 0 0 -46 -15 0 0 0zm15 -58c0,0 -3,0 -3,0 -4,0 -8,0 -12,0 -8,0 -15,0 -19,4 0,4 -4,8 -4,12 0,4 0,4 4,7 0,0 0,4 4,4 3,0 3,4 7,4 4,0 4,0 8,0l15 0 0 -31 0 0zm-1503 16c0,4 0,11 0,15 -3,4 -3,8 -7,12 -4,0 -8,4 -12,7 -4,0 -8,0 -15,0 -4,0 -8,0 -16,0 -4,-3 -7,-7 -11,-7 0,-4 -4,-8 -4,-12 -4,-4 -4,-11 -4,-15 0,-4 0,-8 4,-12 0,-4 4,-8 4,-11 4,-4 7,-8 11,-8 8,-4 12,-4 16,-4 7,0 11,0 15,4 4,0 8,4 12,8 4,3 4,7 7,11 0,4 0,8 0,12z"/>
  <path class="fil0" d="M163 663c0,7 0,15 4,23 0,8 4,11 8,19 4,4 7,8 15,12 4,0 12,3 19,3 4,0 12,-3 20,-3 3,-4 7,-8 11,-12 4,-8 8,-11 12,-19 0,-8 0,-16 0,-23 0,-8 0,-16 0,-23 -4,-4 -8,-12 -12,-16 -4,-4 -8,-8 -11,-11 -8,-4 -16,-4 -20,-4 -7,0 -15,0 -19,4 -8,3 -11,7 -15,11 -4,4 -8,12 -8,16 -4,7 -4,15 -4,23zm131 0c0,15 -4,27 -8,38 -3,12 -11,23 -19,31 -8,4 -15,12 -27,15 -8,4 -19,4 -31,4 -11,0 -23,0 -34,-4 -12,-3 -20,-11 -27,-15 -8,-8 -16,-19 -20,-31 -3,-11 -7,-23 -7,-38 0,-16 4,-27 7,-39 4,-11 12,-19 20,-27 7,-8 15,-11 27,-15 11,-4 23,-8 34,-8 12,0 20,4 31,8 12,4 19,7 27,15 8,8 16,16 19,27 4,12 8,23 8,39zm112 23c0,-12 -4,-19 -8,-27 -4,-8 -11,-12 -23,-12 -4,0 -8,0 -8,0 -3,0 -7,0 -7,0l0 70c4,0 4,0 7,3 4,0 8,0 12,0 19,0 27,-11 27,-34l0 0zm38 0c0,8 -3,19 -3,27 -4,7 -8,15 -12,19 -4,8 -11,12 -19,15 -4,4 -16,4 -23,4 -4,0 -12,0 -16,0 -4,0 -7,-4 -11,-4l0 47 -39 0 0 -170c4,0 8,-4 12,-4 4,0 11,0 15,0 4,-4 8,-4 16,-4 3,0 7,0 11,0 12,0 19,0 31,4 8,4 15,8 19,16 8,4 12,11 16,19 0,12 3,19 3,31l0 0zm135 -35l-42 0 0 100 -35 0 0 -100 -42 0 0 -31 119 0 0 31 0 0zm143 35c0,8 0,19 -4,27 -4,7 -8,15 -11,19 -8,8 -12,12 -20,15 -7,4 -19,4 -27,4 -11,0 -19,0 -27,-4 -7,-3 -15,-7 -19,-15 -8,-4 -12,-12 -15,-19 0,-8 -4,-19 -4,-27 0,-12 4,-19 4,-31 3,-8 7,-15 15,-19 4,-8 12,-12 19,-16 8,-4 16,-4 27,-4 8,0 16,0 23,4 8,4 16,8 24,16 3,4 7,11 11,19 4,12 4,19 4,31l0 0zm-35 0c0,-12 -4,-23 -7,-27 -4,-8 -12,-12 -20,-12 -7,0 -15,4 -19,12 -4,4 -8,15 -8,27 0,11 4,19 8,27 4,4 12,7 19,7 8,0 16,-3 20,-7 3,-8 7,-16 7,-27zm178 -66l0 131 -39 0 0 -100 -39 0 0 100 -34 0 0 -131 112 0zm27 66c0,-12 3,-23 3,-31 4,-8 12,-15 16,-23 8,-4 11,-8 19,-12 8,-4 16,-4 23,-4 19,0 35,4 46,16 8,11 16,31 16,50 0,4 0,4 0,8 0,4 0,4 0,7l-85 0c0,8 4,12 12,16 3,8 11,8 23,8 7,0 15,0 19,0 8,-4 12,-4 15,-4l8 27c-4,3 -4,3 -8,3 -3,0 -7,4 -11,4 -4,0 -8,0 -16,0 -3,0 -7,0 -11,0 -12,0 -23,0 -31,-4 -8,-3 -15,-7 -23,-15 -4,-4 -8,-11 -12,-19 -3,-8 -3,-19 -3,-27l0 0zm88 -16c-4,-3 -4,-3 -4,-7 0,-4 -4,-8 -4,-8 0,-4 -3,-4 -7,-8 -4,0 -8,0 -12,0 -4,0 -7,0 -7,0 -4,4 -8,4 -8,8 -4,0 -4,4 -8,8 0,4 0,4 0,7l50 0zm50 50l16 0c4,-7 7,-15 11,-23 4,-7 4,-15 4,-27 4,-7 4,-15 4,-27 0,-7 0,-15 0,-23l100 0 0 101 23 0 0 65 -31 0 0 -35 -96 0 0 35 -31 0 0 -65 0 -1zm100 0l0 -69 -30 0c0,4 0,12 -4,16 0,7 0,11 0,19 0,8 -4,11 -4,19 -4,4 -4,8 -8,16l47 0 -1 -1zm197 -100l0 131 -35 0c0,-11 0,-19 0,-27 0,-7 0,-15 0,-23 0,-7 0,-11 0,-15 0,-8 0,-12 0,-12 -3,4 -7,12 -15,20 -4,7 -8,11 -12,19 -3,7 -7,15 -11,19 -4,8 -8,12 -12,19l-31 0 0 -131 35 0c0,8 0,16 0,23 0,8 0,16 0,20 0,7 0,11 0,15 0,8 0,8 0,12 8,-16 19,-27 27,-39 8,-11 16,-23 23,-31l31 0zm66 0l0 43c0,4 3,7 7,11 4,4 8,4 16,4 4,0 4,0 7,0 4,0 4,0 8,0l0 -58 39 0 0 131 -39 0 0 -46c-4,4 -8,4 -11,4 -4,0 -4,0 -8,0 -8,0 -16,0 -23,-4 -8,0 -12,-4 -16,-8 -7,-3 -11,-7 -11,-11 -4,-8 -4,-16 -4,-23l0 -43 35 0 0 0zm223 131l-38 0 0 -54 -39 0 0 54 -35 0 0 -131 35 0 0 47 39 0 0 -47 38 0 0 131zm27 -65c0,-12 4,-23 4,-31 4,-8 11,-15 15,-23 8,-4 12,-8 20,-12 7,-4 15,-4 23,-4 19,0 34,4 46,16 8,11 15,31 15,50 0,4 0,4 0,8 0,4 0,4 0,7l-84 0c0,8 3,12 11,16 4,8 12,8 23,8 8,0 16,0 20,0 7,-4 11,-4 15,-4l8 27c-4,3 -4,3 -8,3 -4,0 -8,4 -12,4 -3,0 -7,0 -15,0 -4,0 -8,0 -12,0 -11,0 -23,0 -30,-4 -8,-3 -16,-7 -24,-15 -3,-4 -7,-11 -11,-19 -4,-8 -4,-19 -4,-27l0 0zm85 -16c0,-3 0,-3 0,-7 0,-4 -4,-8 -4,-8 -4,-4 -4,-4 -8,-8 -4,0 -7,0 -11,0 -4,0 -8,0 -8,0 -4,4 -8,4 -8,8 -4,0 -4,4 -7,8 0,4 0,4 0,7l46 0z"/>
 </g>
</svg>
